<svg id="Group_14341" data-name="Group 14341" xmlns="http://www.w3.org/2000/svg" xmlns:xlink="http://www.w3.org/1999/xlink" width="73.825" height="80" viewBox="0 0 73.825 80">
  <defs>
    <linearGradient id="linear-gradient" x1="0.5" x2="0.5" y2="1" gradientUnits="objectBoundingBox">
      <stop offset="0" stop-color="#0468f7"/>
      <stop offset="1" stop-color="#c645ff"/>
    </linearGradient>
    <clipPath id="clip-path">
      <rect id="Rectangle_4093" data-name="Rectangle 4093" width="73.825" height="80" fill="url(#linear-gradient)"/>
    </clipPath>
  </defs>
  <g id="Group_14340" data-name="Group 14340" clip-path="url(#clip-path)">
    <path id="Path_9222" data-name="Path 9222" d="M36.907,70.2h0A20.078,20.078,0,0,0,51.2,64.283a20.34,20.34,0,0,0,5.927-14.3,20.2,20.2,0,0,0-20.2-20.192h-.04A20.209,20.209,0,0,0,36.907,70.2m.009-4.4a15.812,15.812,0,1,1,15.81-15.812,15.856,15.856,0,0,1-15.81,15.812" fill="url(#linear-gradient)"/>
    <path id="Path_9223" data-name="Path 9223" d="M39.207,48.809c-.455-.161-.88-.315-1.266-.464v-6.5a4.214,4.214,0,0,1,1.881.851,1.143,1.143,0,0,0,1.543-1.687,6.6,6.6,0,0,0-3.423-1.479V38.119a1.144,1.144,0,0,0-2.287,0v1.5c-.231.047-.467.106-.71.178-3.838,1.157-4.809,6.358-2.06,8.514a12.681,12.681,0,0,0,2.77,1.573v8.129a5.486,5.486,0,0,1-3.113-1.11,1.143,1.143,0,1,0-1.288,1.889l.036.024a7.739,7.739,0,0,0,4.365,1.483v1.573a1.143,1.143,0,0,0,2.286,0V60.21c5.717-1,7.335-9.256,1.266-11.4m-3.557-1.46a8.449,8.449,0,0,1-1.358-.843v0c-1.278-1-.768-3.9,1.307-4.526l.051-.013Zm2.287,10.513V50.784l.5.181c3.632,1.284,2.649,5.982-.5,6.9" fill="url(#linear-gradient)"/>
    <path id="Path_9224" data-name="Path 9224" d="M66.322,36.992l-.008-.01A128.517,128.517,0,0,0,53.209,21.244a4.91,4.91,0,0,0-.363-6.166c-.081-.087-.164-.173-.25-.254.782-.924,1.54-1.846,2.26-2.75A7.45,7.45,0,0,0,49.014,0h-24.2A7.451,7.451,0,0,0,18.97,12.077c.713.894,1.471,1.814,2.259,2.745a4.906,4.906,0,0,0-.886,6q.126.219.273.425A128.9,128.9,0,0,0,7.507,36.992C2.526,44.262,0,50.558,0,55.705A24.261,24.261,0,0,0,24.171,80H49.6A24.231,24.231,0,0,0,73.825,55.884v-.176c0-5.153-2.525-11.45-7.5-18.716m-17.1-17.939H24.606a.667.667,0,0,1,0-1.335H49.224a.667.667,0,0,1,0,1.335m2.315-9.616c-1.032,1.3-2.167,2.655-3.378,4.044H25.668c-1.211-1.389-2.346-2.747-3.376-4.042a3.209,3.209,0,0,1,2.515-5.2H49.022a3.209,3.209,0,0,1,2.517,5.2m-27,13.853H49.286a126.117,126.117,0,0,1,13.54,16.1c4.487,6.55,6.762,12.041,6.762,16.321A20,20,0,0,1,49.635,75.759h-25.4a20,20,0,0,1-19.993-19.9v-.15c0-4.282,2.275-9.773,6.753-16.308A126.235,126.235,0,0,1,24.544,23.29" fill="url(#linear-gradient)"/>
  </g>
</svg>
