<svg xmlns="http://www.w3.org/2000/svg" xmlns:xlink="http://www.w3.org/1999/xlink" width="70" height="63.383" viewBox="0 0 70 63.383">
  <defs>
    <linearGradient id="linear-gradient" x1="0.5" x2="0.5" y2="1" gradientUnits="objectBoundingBox">
      <stop offset="0" stop-color="#0468f7"/>
      <stop offset="1" stop-color="#c645ff"/>
    </linearGradient>
  </defs>
  <g id="Line" transform="translate(385 43.823)">
    <path id="Path_8991" data-name="Path 8991" d="M70.392,62.5H67.211V61.061a1.6,1.6,0,0,0-3.181,0V62.5H54.487V61.061a1.6,1.6,0,0,0-3.181,0V62.5H41.763V61.061a1.6,1.6,0,0,0-3.181,0V62.5H29.039V61.061a1.6,1.6,0,0,0-3.181,0V62.5H16.315V61.061a1.6,1.6,0,0,0-3.181,0V62.5H5.181V53.988C7.742,41.326,13.849,23.608,19.5,23.608A4.806,4.806,0,0,1,21.356,24c1.161,3.284,2.147,7.015,3.054,10.429,2.767,10.429,5.153,19.433,10.99,19.433,4.66,0,6.76-4.566,8.175-10.213,4.628-.691,7.11-3.961,9.145-6.655.525-.691,1-1.325,1.479-1.887,1.209,4.523,2.72,8.643,6.648,8.643A6.048,6.048,0,0,0,65.254,41.5,89.839,89.839,0,0,1,68.8,54.118a1.587,1.587,0,0,0,1.845,1.152A1.457,1.457,0,0,0,71.918,53.6,86.488,86.488,0,0,0,67.4,38.373a53.63,53.63,0,0,0,4.581-14.549,1.485,1.485,0,0,0-1.352-1.657A1.593,1.593,0,0,0,68.8,23.392,56.325,56.325,0,0,1,65.62,34.757c-1.75-3.155-3.881-5.388-6.362-5.388a8.992,8.992,0,0,0-3.181.562c-1.129-4.149-2.7-7.764-6.362-7.764-5.137,0-6.489,7.1-7.953,14.621-.254,1.3-.525,2.679-.811,4.033C37.484,40.217,34.7,35.809,32,31.531c-2.354-3.731-4.772-7.548-7.953-9.493-2.179-5.82-4.915-9.954-9.32-9.954-3.435,0-7.046,4.019-9.543,7.534V3.441A1.521,1.521,0,0,0,3.591,2,1.521,1.521,0,0,0,2,3.441v60.5a1.521,1.521,0,0,0,1.591,1.441h66.8a1.448,1.448,0,1,0,0-2.881Zm-6.457-24.23c-1.018,1.628-2.068,2.622-3.086,2.622-1.893,0-3.086-4.61-3.976-8.081a5.164,5.164,0,0,1,2.386-.562C60.642,32.251,62.312,34.657,63.934,38.272ZM49.715,25.048c1.59,0,2.752,3.457,3.595,6.641a24.852,24.852,0,0,0-3.181,3.673c-1.734,2.29-3.292,4.322-5.821,5.143.223-1.066.429-2.146.636-3.227C45.9,32.121,47.266,25.048,49.715,25.048Zm-20.47,7.923c3.054,4.84,6.219,9.81,11.133,10.66-1.145,4.048-2.608,7.347-4.978,7.347-3.34,0-5.869-9.551-7.953-17.214C26.923,31.819,26.414,29.9,25.858,28A54.685,54.685,0,0,1,29.245,32.971ZM14.724,14.965c2.115,0,3.881,2.391,5.376,5.762h-.6c-6.569,0-11.388,11.02-14.315,20.484V25.365C7.614,21.087,12.2,14.965,14.724,14.965Z" transform="translate(-387 -45.823)" fill="url(#linear-gradient)"/>
    <path id="Path_8992" data-name="Path 8992" d="M25.722,14.724H21.746a1.59,1.59,0,1,0,0,3.181h1.591V19.5a1.59,1.59,0,1,0,3.181,0V17.905a4,4,0,0,0-.8-7.952h-1.59a.8.8,0,0,1,0-1.591h3.976a1.59,1.59,0,1,0,0-3.181h-1.59V3.591a1.59,1.59,0,1,0-3.181,0V5.181a4,4,0,1,0,.8,7.953h1.59a.8.8,0,0,1,0,1.59Z" transform="translate(-374.927 -45.823)" fill="url(#linear-gradient)"/>
  </g>
</svg>
