<svg xmlns="http://www.w3.org/2000/svg" width="154.226" height="40" viewBox="0 0 154.226 40"><defs><style>.a,.b{fill:#333;}.b{fill-rule:evenodd;}.c,.d{fill:#fff;}.d{font-size:24px;font-family:Lato-Bold, Lato;font-weight:700;}</style></defs><path class="a" d="M313.51,36.978V7.482c0-2.674-2.451-4.842-5.474-4.842H204V41.82H308.036c3.023,0,5.474-2.168,5.474-4.842" transform="translate(-167.484 -2.23)"/><path class="a" d="M336.389,40H232.37V0H336.389c3.257,0,5.9,2.353,5.9,5.252v29.5c0,2.9-2.643,5.249-5.9,5.252m-103.1-.82h103.1a4.734,4.734,0,0,0,4.978-4.432V5.252A4.734,4.734,0,0,0,336.389.82h-103.1Z" transform="translate(-196.262)"/><path class="b" d="M61.209,29.177,59.52,31.507a3.152,3.152,0,0,0,.572,4.068l3.133,2.261c.538.388.58.777.325,1.183l.455.339,1.587-2.2a2.973,2.973,0,0,0-.559-4.264l-3.161-2.3a.789.789,0,0,1-.208-1.088l-.455-.325M63.919,18.89l-2.631,3.638a4.515,4.515,0,0,0,.9,5.858l4.324,3.175a2.44,2.44,0,0,1,.353,3.122l.367.275,2.983-4.2a4.416,4.416,0,0,0-.842-6.2L64.749,21.2a1.406,1.406,0,0,1-.432-2.032l-.4-.281M56.987,41.706h3.485l.622,2.113h5.7l.622-2.113H70.9l-.457-1.554h-13l-.457,1.554m1.633,7.07a1.8,1.8,0,0,0,.988-1.608c0-1.444-1.182-2.032-2.474-2.032H53.53V52.8H57.1c1.526,0,3.142-.667,2.881-2.422-.155-1.005-.553-1.243-1.363-1.6M55.157,46.6h1.877a.819.819,0,1,1,.073,1.635h-1.95Zm2.093,4.75H55.157V49.6H57.25C58.787,49.6,58.692,51.352,57.25,51.352Zm8.528-2.576a1.8,1.8,0,0,0,.988-1.608c0-1.444-1.183-2.032-2.474-2.032h-3.6V52.8h3.574c1.524,0,3.142-.667,2.881-2.422-.155-1.005-.553-1.243-1.363-1.6M62.32,46.6h1.872a.819.819,0,1,1,.073,1.635H62.319Zm2.088,4.752h-2.09V49.6h2.088c1.535,0,1.442,1.748,0,1.748Zm9.889-.971c-.155-1.005-.553-1.243-1.363-1.6a1.8,1.8,0,0,0,.988-1.608c0-1.444-1.183-2.032-2.474-2.032h-3.6V52.8h3.574c1.524,0,3.142-.667,2.881-2.422M69.482,46.6h1.866a.819.819,0,1,1,.073,1.635H69.476Zm2.088,4.752H69.476V49.6h2.088c1.535,0,1.442,1.748,0,1.748Z" transform="translate(-45.212 -15.955)"/><path class="c" d="M275.817,86.854l-.35-.965h-2.444l-.359.965H271.28l2.2-5.7h1.521l2.2,5.7Zm-1.571-4.488-.889,2.452h1.778Zm3.272,1.641a2.9,2.9,0,0,1,3.033-2.952,2.609,2.609,0,0,1,2.384,1.4l-1.043.513a1.545,1.545,0,0,0-1.333-.833,1.866,1.866,0,0,0,0,3.729,1.527,1.527,0,0,0,1.341-.828l1.036.517a2.624,2.624,0,0,1-2.384,1.4A2.9,2.9,0,0,1,277.519,84.007Zm5.931,0a2.9,2.9,0,0,1,3.033-2.952,2.609,2.609,0,0,1,2.384,1.4l-1.043.513a1.545,1.545,0,0,0-1.341-.833,1.866,1.866,0,0,0,0,3.729,1.527,1.527,0,0,0,1.341-.828l1.043.5a2.624,2.624,0,0,1-2.384,1.4A2.873,2.873,0,0,1,283.45,84.007Zm9.426,2.847-1.119-2.02h-.889v2.02h-1.214v-5.7h2.666a1.775,1.775,0,0,1,1.914,1.837,1.631,1.631,0,0,1-1.243,1.692l1.282,2.175Zm.115-3.863a.774.774,0,0,0-.855-.769h-1.273V83.76h1.273A.771.771,0,0,0,292.991,82.991Zm2.219,3.863v-5.7h4.04v1.068h-2.827v1.2h2.76v1.068h-2.76v1.29h2.82v1.068Zm5.042,0v-5.7H302.5a2.855,2.855,0,1,1,0,5.7Zm4.04-2.845a1.671,1.671,0,0,0-1.785-1.785h-1.033v3.562h1.033a1.7,1.7,0,0,0,1.779-1.778Zm2.157,2.845v-5.7h1.214v5.7Zm3.717,0V82.222H308.5V81.154h4.547v1.068h-1.658v4.632Zm3.717,0v-5.7h4.04v1.068H315.1v1.2h2.757v1.068H315.1v1.29h2.82v1.068Zm5.042,0v-5.7h2.247a2.855,2.855,0,1,1,0,5.7Zm4.04-2.845a1.671,1.671,0,0,0-1.785-1.785h-1.033v3.562h1.033a1.7,1.7,0,0,0,1.779-1.778ZM271.888,96.643v-5.7h3a1.473,1.473,0,0,1,1.641,1.453,1.265,1.265,0,0,1-.982,1.307,1.376,1.376,0,0,1,1.088,1.4,1.5,1.5,0,0,1-1.658,1.538Zm3.4-4.04a.622.622,0,0,0-.667-.622H273.1v1.243h1.521a.607.607,0,0,0,.665-.615Zm.11,2.331a.666.666,0,0,0-.735-.667H273.1v1.324h1.563A.646.646,0,0,0,275.4,94.934Zm2.208-.564V90.943h1.243v3.384a1.337,1.337,0,1,0,2.674,0V90.943h1.243v3.419a2.589,2.589,0,0,1-5.16.008Zm5.945,1.47.657-.923a2.5,2.5,0,0,0,1.812.769c.667,0,.991-.311.991-.632,0-.418-.53-.538-1.153-.691-.932-.213-2.127-.466-2.127-1.768,0-.948.82-1.734,2.161-1.734a3.174,3.174,0,0,1,2.222.794l-.676.89a2.447,2.447,0,0,0-1.658-.622c-.521,0-.811.232-.811.572,0,.368.521.486,1.136.632.932.222,2.137.505,2.137,1.795,0,1.043-.743,1.829-2.281,1.829A3.3,3.3,0,0,1,283.553,95.84Zm5.572.8v-5.7h1.214v5.7Zm6.332,0-2.718-3.717v3.717h-1.214v-5.7h1.243l2.642,3.574V90.943h1.214v5.7Zm2.359,0v-5.7h4.04v1.068h-2.827v1.2h2.76v1.068h-2.76v1.29h2.819V96.64Zm4.654-.8.657-.923a2.5,2.5,0,0,0,1.812.769c.667,0,.991-.311.991-.632,0-.418-.53-.538-1.153-.691-.932-.213-2.127-.466-2.127-1.768,0-.948.82-1.734,2.161-1.734a3.174,3.174,0,0,1,2.222.794l-.671.89a2.449,2.449,0,0,0-1.658-.622c-.521,0-.811.232-.811.572,0,.368.522.486,1.136.632.932.222,2.137.505,2.137,1.795,0,1.043-.743,1.829-2.281,1.829A3.317,3.317,0,0,1,302.469,95.84Zm5.193,0,.657-.923a2.5,2.5,0,0,0,1.812.769c.667,0,.991-.311.991-.632,0-.418-.53-.538-1.153-.691-.932-.213-2.127-.466-2.127-1.768,0-.948.82-1.734,2.161-1.734a3.174,3.174,0,0,1,2.222.794l-.676.89a2.449,2.449,0,0,0-1.658-.622c-.521,0-.811.232-.811.572,0,.368.522.486,1.136.632.932.222,2.137.505,2.137,1.795,0,1.043-.743,1.829-2.281,1.829A3.292,3.292,0,0,1,307.663,95.84Z" transform="translate(-189.501 -68.459)"/><path class="a" d="M147.476,36.633v-.019a3.375,3.375,0,0,1,6.75-.019v.019a3.375,3.375,0,1,1-6.75.019Zm6.442-.019V36.6a3.067,3.067,0,1,0-6.135.019v.019a3.067,3.067,0,1,0,6.135-.019Zm-4.391-1.827h1.554a1.44,1.44,0,0,1,1.026.364.911.911,0,0,1,.28.671v.019a1.025,1.025,0,0,1-.9,1.016l1.072,1.389h-.634l-1-1.305h-.886v1.305h-.513Zm1.5,1.7c.485,0,.82-.224.82-.622v-.019c0-.364-.3-.6-.792-.6H150.04v1.231ZM36.928,40H5.252A5.258,5.258,0,0,1,0,34.748V5.252A5.258,5.258,0,0,1,5.252,0H36.928V40M5.252.82A4.436,4.436,0,0,0,.82,5.252v29.5A4.436,4.436,0,0,0,5.252,39.18H36.108V.82Z"/><text class="d" transform="translate(45.782 28.851)"><tspan x="0" y="0">A+</tspan></text></svg>