<svg id="Group_15834" data-name="Group 15834" xmlns="http://www.w3.org/2000/svg" xmlns:xlink="http://www.w3.org/1999/xlink" width="88.126" height="100" viewBox="0 0 88.126 100">
  <defs>
    <linearGradient id="linear-gradient" x1="0.5" x2="0.5" y2="1" gradientUnits="objectBoundingBox">
      <stop offset="0" stop-color="#0069f7"/>
      <stop offset="0.112" stop-color="#3d5ef9"/>
      <stop offset="0.37" stop-color="#7753fc"/>
      <stop offset="0.627" stop-color="#a24cfe"/>
      <stop offset="0.802" stop-color="#bc47ff"/>
      <stop offset="0.892" stop-color="#c645ff"/>
      <stop offset="1" stop-color="#c645ff"/>
    </linearGradient>
    <clipPath id="clip-path">
      <rect id="Rectangle_4818" data-name="Rectangle 4818" width="88.126" height="100" fill="url(#linear-gradient)"/>
    </clipPath>
  </defs>
  <g id="Group_15833" data-name="Group 15833" clip-path="url(#clip-path)">
    <path id="Path_9953" data-name="Path 9953" d="M211.142,12.536q0,2.141,0,4.281v.137a4.176,4.176,0,0,0,.079,1.015,1.872,1.872,0,0,0,1.937,1.515h.005a1.886,1.886,0,0,0,1.937-1.506,3.61,3.61,0,0,0,.078-.935v-.127q0-2.159,0-4.318c0-3.271,0-6.653.018-9.979A2.79,2.79,0,0,0,213.966.066l-.1-.066h-1.4l-.1.066a2.848,2.848,0,0,0-1.237,2.647c.025,3.274.023,6.6.02,9.823" transform="translate(-168.076)" fill="url(#linear-gradient)"/>
    <path id="Path_9954" data-name="Path 9954" d="M87.623,334.97a8.617,8.617,0,0,0-10.6-3.3c-.861.367-1.715.778-2.541,1.175q-.53.255-1.061.507l-6.75,3.182-2.566,1.21c-.015-.02-.028-.039-.039-.056a10.8,10.8,0,0,0-9.536-5.287c-1.2-.017-2.43-.059-3.616-.1-1.669-.057-3.394-.116-5.1-.108a19.6,19.6,0,0,1-9.443-2.306,19.542,19.542,0,0,0-13.531-1.723,36.461,36.461,0,0,0-3.9,1.142c-.4.134-.812.271-1.224.4,0-.375-.008-.762.008-1.14a3.035,3.035,0,0,0-.521-2.206,2.835,2.835,0,0,0-2.126-.664q-4.43-.12-8.861-.223l-2.746-.067c-1.981-.055-2.662.6-2.715,2.583Q.6,333.934.428,339.887q-.071,2.563-.144,5.125Q.14,350.138,0,355.264c-.052,1.968,1.092,2.421,2.06,2.454,4.055.14,8.077.234,12.868.332a2.032,2.032,0,0,0,1.515-.57,1.642,1.642,0,0,0,.448-1.253c-.066-1.129.5-1.582,1.562-2.025a9.616,9.616,0,0,0,1.1-.569c.131-.075.262-.15.394-.223a5.52,5.52,0,0,1,4.362-.481l1.447.411c3.516,1,7.152,2.032,10.745,2.992.726.194,1.452.395,2.177.6a72.7,72.7,0,0,0,7.978,1.884,19.7,19.7,0,0,0,3.067.245,16.09,16.09,0,0,0,8.616-2.385c7.095-4.432,14.222-9.074,21.114-13.563q3.746-2.44,7.5-4.873a2.093,2.093,0,0,0,.68-3.268m-27.04,6.348-9.475-.253-6.1-.163-.189-.006a6.029,6.029,0,0,0-.725,0,2.009,2.009,0,0,0-1.9,1.971,1.987,1.987,0,0,0,1.746,2,14.1,14.1,0,0,0,1.59.1q2.623.072,5.246.134c3.923.1,7.979.2,11.966.348a2.832,2.832,0,0,0,2.366-.748,2.741,2.741,0,0,0,.426-2.371c-.1-.611,0-.79.6-1.069,2.619-1.206,5.267-2.464,7.827-3.679q2.117-1.005,4.236-2.006a4.414,4.414,0,0,1,4.792.371l-2.021,1.308-8.46,5.475q-2.28,1.475-4.564,2.945c-3.406,2.195-6.928,4.464-10.371,6.729a14.738,14.738,0,0,1-10.98,2.293,82.2,82.2,0,0,1-8.317-2.078c-1.028-.3-2.09-.6-3.139-.885-3.25-.882-6.513-1.809-9.667-2.707a10.335,10.335,0,0,0-2.836-.409,9.572,9.572,0,0,0-4.67,1.233c-.269.148-.539.286-.85.444q.065-2.329.133-4.659c.1-3.413.2-6.942.283-10.414a1.01,1.01,0,0,1,.608-1.017,17.144,17.144,0,0,1,16.4-.712l.492.23c2.4,1.124,4.879,2.286,7.689,2.395,1.509.059,3.043.1,4.527.138q1.269.034,2.537.07.74.022,1.479.041c1.352.036,2.75.073,4.12.147a6.513,6.513,0,0,1,5.812,4.8c-.206,0-.41,0-.614,0M13.614,329.668l-.663,24.114H4.124l.664-24.114Z" transform="translate(0 -259.058)" fill="url(#linear-gradient)"/>
    <path id="Path_9955" data-name="Path 9955" d="M127.363,154.139h.087a24.013,24.013,0,0,0,23.977-23.889,23.984,23.984,0,0,0-23.92-24.035h-.075a24.019,24.019,0,0,0-23.991,23.9,23.982,23.982,0,0,0,23.923,24.027m.068-43.857h.046a19.906,19.906,0,0,1-.035,39.811h-.015a19.906,19.906,0,0,1,0-39.811" transform="translate(-82.349 -84.558)" fill="url(#linear-gradient)"/>
    <path id="Path_9956" data-name="Path 9956" d="M270.974,45.562q0,.483,0,.966c0,.795-.007,1.616.006,2.426.021,1.407.784,2.293,1.99,2.31H273a1.9,1.9,0,0,0,1.359-.528,2.391,2.391,0,0,0,.647-1.742c.018-2.452.017-4.7,0-6.874a2.006,2.006,0,0,0-1.984-2.216h-.034a2.01,2.01,0,0,0-2.006,2.166c-.02.8-.015,1.616-.011,2.4,0,.363,0,.726,0,1.089" transform="translate(-215.718 -31.768)" fill="url(#linear-gradient)"/>
    <path id="Path_9957" data-name="Path 9957" d="M153.375,51.266h.029a2.011,2.011,0,0,0,2.007-2.17c.018-.808.014-1.627.01-2.42,0-.357,0-.714,0-1.071s0-.694,0-1.04c0-.8.008-1.632-.009-2.45a2.019,2.019,0,0,0-1.99-2.208,1.94,1.94,0,0,0-1.406.534,2.263,2.263,0,0,0-.627,1.641c-.022,2.22-.023,4.5,0,6.972a2.024,2.024,0,0,0,1.988,2.213" transform="translate(-120.508 -31.77)" fill="url(#linear-gradient)"/>
    <path id="Path_9958" data-name="Path 9958" d="M192.509,170.7h-.04a3.209,3.209,0,0,1-3.328-3.106c-.128-1.382-.973-2.234-2.154-2.165a1.968,1.968,0,0,0-1.4.675,2.423,2.423,0,0,0-.506,1.838,7.106,7.106,0,0,0,4.276,6.144,1.159,1.159,0,0,1,.869,1.316,2.7,2.7,0,0,0,.773,1.906,1.987,1.987,0,0,0,1.27.381,2.806,2.806,0,0,0,.686-.083,1.773,1.773,0,0,0,1.258-2.047c-.088-.76.1-1.034.938-1.335a7.222,7.222,0,0,0,4.61-7.184,7.333,7.333,0,0,0-5.556-6.688,10.214,10.214,0,0,0-1.454-.214c-.259-.025-.527-.052-.784-.089a3.217,3.217,0,0,1-2.824-3.265,3.263,3.263,0,0,1,3.148-3.246,3.308,3.308,0,0,1,3.4,3.087c.135,1.44,1.025,2.333,2.212,2.222a1.95,1.95,0,0,0,1.374-.719,2.574,2.574,0,0,0,.467-1.948,7.011,7.011,0,0,0-4.227-5.967c-1.07-.459-1.433-.8-1.342-1.812a1.587,1.587,0,0,0-.413-1.206,2.113,2.113,0,0,0-1.5-.681,2,2,0,0,0-2.02,1.725,3.546,3.546,0,0,0-.04.978c.05.423-.027.6-.581.839a6.982,6.982,0,0,0-4.523,6.4,6.846,6.846,0,0,0,3.882,6.8,10.375,10.375,0,0,0,3.132.822c.2.031.4.062.6.094a3.315,3.315,0,0,1,2.98,3.527,3.226,3.226,0,0,1-3.173,3.006" transform="translate(-147.33 -116.639)" fill="url(#linear-gradient)"/>
  </g>
</svg>
