<svg id="Group_15832" data-name="Group 15832" xmlns="http://www.w3.org/2000/svg" xmlns:xlink="http://www.w3.org/1999/xlink" width="113.061" height="100" viewBox="0 0 113.061 100">
  <defs>
    <linearGradient id="linear-gradient" x1="0.5" x2="0.5" y2="1" gradientUnits="objectBoundingBox">
      <stop offset="0" stop-color="#0468f7"/>
      <stop offset="1" stop-color="#c645ff"/>
    </linearGradient>
    <clipPath id="clip-path">
      <rect id="Rectangle_4817" data-name="Rectangle 4817" width="113.061" height="100" fill="url(#linear-gradient)"/>
    </clipPath>
  </defs>
  <g id="Group_15831" data-name="Group 15831" clip-path="url(#clip-path)">
    <path id="Path_9948" data-name="Path 9948" d="M110.2,55.464c-5.777.049-11.555.021-17.333.021H91.62V54.132q0-7.186,0-14.371c.021-6.4,0-29.214,0-31.534,0-2.544-.663-3.214-3.19-3.214Q73.636,5.011,58.842,5a3.707,3.707,0,0,1-1.683-.347A38.7,38.7,0,0,0,1.092,29.685C.631,31.72.359,33.8,0,35.857V41.6a5.273,5.273,0,0,1,.186.728c1.465,13.05,7.8,23.059,19.053,29.761,9.223,5.493,19.172,6.664,29.56,3.97a1.384,1.384,0,0,1,1.607.466c2.075,2.289,4.21,4.525,6.323,6.782q7.354,7.857,14.711,15.711a2.267,2.267,0,0,0,3.709.039c.155-.157.3-.319.455-.481q14.9-15.917,29.787-31.838c2.58-2.762,5.114-5.568,7.67-8.354V57.058a2.757,2.757,0,0,0-2.857-1.594M38.61,72.985A34.284,34.284,0,1,1,73.028,38.751,34.323,34.323,0,0,1,38.61,72.985m34.7,21.572L54.291,74.238c12.569-6.179,20.5-15.849,22.627-29.629,2.131-13.8-2.484-25.454-12.66-35.085H87.2c0,1.6,0,18.191,0,26.605,0,.094,0,.187,0,.28,0,.5,0,.963,0,1.394q0,9.606,0,19.212c0,2.166.732,2.883,2.942,2.885q7.121.005,14.242,0h1.355L73.309,94.558" transform="translate(0 0.001)" fill="url(#linear-gradient)"/>
    <path id="Path_9949" data-name="Path 9949" d="M89.781,59.959A29.871,29.871,0,1,1,59.964,30.091,29.9,29.9,0,0,1,89.781,59.959m-4.416,0A25.454,25.454,0,1,0,59.826,85.372,25.449,25.449,0,0,0,85.364,59.961" transform="translate(-21.194 -21.231)" fill="url(#linear-gradient)"/>
    <path id="Path_9950" data-name="Path 9950" d="M110.851,83.784a2.119,2.119,0,0,0-2.636-.333,5.332,5.332,0,0,0-.92.785l-.953.948Q95.176,96.228,84.053,107.317a6.015,6.015,0,0,0-.8.907,2.141,2.141,0,0,0,.307,2.726,2.119,2.119,0,0,0,2.636.333,5.321,5.321,0,0,0,.92-.785l.947-.942q11.169-11.047,22.294-22.138a6.014,6.014,0,0,0,.8-.907,2.141,2.141,0,0,0-.307-2.726" transform="translate(-58.49 -58.657)" fill="url(#linear-gradient)"/>
    <path id="Path_9951" data-name="Path 9951" d="M81.053,87.865A6.625,6.625,0,1,1,87.676,81.2a6.641,6.641,0,0,1-6.622,6.663m.019-4.42a2.174,2.174,0,0,0,2.171-2.266,2.221,2.221,0,0,0-2.2-2.146,2.293,2.293,0,0,0-2.254,2.236,2.238,2.238,0,0,0,2.288,2.176" transform="translate(-52.468 -52.646)" fill="url(#linear-gradient)"/>
    <path id="Path_9952" data-name="Path 9952" d="M156.634,149.882a6.654,6.654,0,1,1-6.689-6.583,6.631,6.631,0,0,1,6.689,6.583m-4.426-.011a2.166,2.166,0,0,0-2.28-2.151,2.215,2.215,0,0,0-2.18,2.165,2.279,2.279,0,0,0,2.25,2.231,2.213,2.213,0,0,0,2.211-2.245" transform="translate(-101.127 -101.108)" fill="url(#linear-gradient)"/>
  </g>
</svg>
