<svg id="g3256" xmlns="http://www.w3.org/2000/svg" xmlns:xlink="http://www.w3.org/1999/xlink" width="73.433" height="100.159" viewBox="0 0 73.433 100.159">
  <defs>
    <linearGradient id="linear-gradient" y1="0.5" x2="1" y2="0.5" gradientUnits="objectBoundingBox">
      <stop offset="0" stop-color="#0069f7"/>
      <stop offset="0.112" stop-color="#3d5ef9"/>
      <stop offset="0.37" stop-color="#7753fc"/>
      <stop offset="0.627" stop-color="#a24cfe"/>
      <stop offset="0.802" stop-color="#bc47ff"/>
      <stop offset="0.892" stop-color="#c645ff"/>
      <stop offset="1" stop-color="#c645ff"/>
    </linearGradient>
    <linearGradient id="linear-gradient-2" x1="-1.425" y1="-0.028" x2="2.425" y2="-0.028" xlink:href="#linear-gradient"/>
  </defs>
  <path id="path1603" d="M74.381,227.142c-.667,1.044-1.259,2.181-1.9,2.111-3.071-1.044-3.667-2.527-6.423-3.6a3.028,3.028,0,0,0-1.8.416,3.211,3.211,0,0,0-1.17,1.325,7.594,7.594,0,0,0-.635,3.519,13.516,13.516,0,0,0,1.588,5.433,42.5,42.5,0,0,0,3.8,6.256,47.565,47.565,0,0,0,7.809,8.616c-5.324,3.54-11.134,10.216-16.2,18.385-6.039,9.737-10.8,21.523-10.752,32.548a24.167,24.167,0,0,0,4,13.6,15.516,15.516,0,0,0,12.973,6.794h39.249a16.717,16.717,0,0,0,12.414-6.668,22.021,22.021,0,0,0,4.793-13.759c-.1-11.014-4.927-22.8-11-32.532a76.854,76.854,0,0,0-10.853-13.89c1.339.231,2.737.423,4.137.534a19.571,19.571,0,0,0,8.274-.754,6.9,6.9,0,0,0,4.634-6.362,5.557,5.557,0,0,0-1.8-4.173,7.258,7.258,0,0,0-3.929-1.585,25.2,25.2,0,0,0-9.272,1c-.982.257-1.937.55-2.873.856.635-.992,1.257-2.015,1.842-3.073,2.555-4.619,4.512-9.56,4.512-13.739a2.085,2.085,0,0,0-1.308-1.94,11.732,11.732,0,0,0-8.18-.615,11.327,11.327,0,0,0-4.838,3.48c-1.06,1.209-1.849,2.183-2.156,2.433-.028-.016,0,.032-.261-.233-1.813-1.81-2.809-4.992-4.777-7.348a5.024,5.024,0,0,0-1.973-1.508,3.969,3.969,0,0,0-1.41-.281c-3,.315-5.174,2.977-6.521,4.758ZM86.1,234.478a4.885,4.885,0,0,0,2.7,1.508,4.034,4.034,0,0,0,2.816-.709,16.142,16.142,0,0,0,3-3.2,7.262,7.262,0,0,1,3.036-2.278c.754-.256,2.153.13,3.375.338a29.638,29.638,0,0,1-3.391,9.981c-3.484,6.231-10.278,12.642-17.358,9.318-2.591-1.617-6.262-5.409-9.06-9.288a38.615,38.615,0,0,1-3.419-5.608,10.794,10.794,0,0,1-1.186-3.79,1.061,1.061,0,0,1,.032-.184l.8.615a8.545,8.545,0,0,0,4.793,2.234,5.082,5.082,0,0,0,3.248-.986c.926-.685,1.62-2.112,2.508-3.1a24.441,24.441,0,0,1,2.75-2.764c.3.006,3.351,5.855,5.355,7.919Zm23.374,12.949c2.087-.181,3.473.57,3.676,1.683s-.441,1.9-1.911,2.45a16.935,16.935,0,0,1-6.5.493,55.655,55.655,0,0,1-7.793-1.341,43.277,43.277,0,0,1,6.44-2.323,43.708,43.708,0,0,1,6.089-.962Zm-19.914,6.052a23.562,23.562,0,0,1-3.843,8.371A2.089,2.089,0,1,0,89,264.438c2.508-3.193,2.342-4.787,3.049-7.393a36.7,36.7,0,0,0,7.886,11.95,2.091,2.091,0,1,0,2.959-2.955,31.852,31.852,0,0,1-5.037-6.713,74.18,74.18,0,0,1,9.737,12.471c5.79,9.28,10.274,20.567,10.364,30.364a18.028,18.028,0,0,1-3.88,11.106,12.516,12.516,0,0,1-9.272,5.1H65.679a10.953,10.953,0,0,1-9.553-5.009,20.362,20.362,0,0,1-3.248-11.228c-.046-9.785,4.367-21.055,10.12-30.331,5.44-8.772,12.23-15.711,16.6-18.063,2.924,1.165,6.347.819,9.965-.257Z" transform="translate(-48.704 -222.384)" fill="url(#linear-gradient)"/>
  <path id="path4408-9" d="M62.48,228.865a2.27,2.27,0,0,0-2.241,2.312v2.343c-4.471.862-8.088,4.189-8.088,8.589,0,5.13,4.905,8.806,10.365,8.806,3.477,0,5.825,2.165,5.825,4.266s-2.348,4.288-5.825,4.288-5.825-2.188-5.825-4.288a2.27,2.27,0,0,0-4.54,0c0,4.4,3.617,7.726,8.088,8.589v2.68a2.268,2.268,0,1,0,4.536,0v-2.676c4.48-.857,8.106-4.187,8.106-8.593,0-5.13-4.905-8.806-10.365-8.806-3.477,0-5.825-2.165-5.825-4.266,0-2.005,2.153-4.486,5.822-4.489s5.828,2.481,5.828,4.489a2.27,2.27,0,0,0,4.54,0c0-4.406-3.626-7.737-8.106-8.593v-2.339a2.27,2.27,0,0,0-2.295-2.312Z" transform="translate(-25.799 -182.009)" fill="url(#linear-gradient-2)"/>
</svg>
