<svg id="quality" xmlns="http://www.w3.org/2000/svg" xmlns:xlink="http://www.w3.org/1999/xlink" width="100.001" height="100" viewBox="0 0 100.001 100">
  <defs>
    <linearGradient id="linear-gradient" x1="0.461" y1="1.387" x2="0.5" y2="-0.529" gradientUnits="objectBoundingBox">
      <stop offset="0" stop-color="#0069f7"/>
      <stop offset="0.112" stop-color="#3d5ef9"/>
      <stop offset="0.37" stop-color="#7753fc"/>
      <stop offset="0.627" stop-color="#a24cfe"/>
      <stop offset="0.802" stop-color="#bc47ff"/>
      <stop offset="0.892" stop-color="#c645ff"/>
      <stop offset="1" stop-color="#c645ff"/>
    </linearGradient>
  </defs>
  <path id="Path_8416" data-name="Path 8416" d="M123.66,91.06a32.622,32.622,0,1,0,32.622,32.622A32.659,32.659,0,0,0,123.66,91.06Zm0,59.313a26.691,26.691,0,1,1,26.691-26.691A26.721,26.721,0,0,1,123.66,150.372Z" transform="translate(-73.664 -73.682)" fill="url(#linear-gradient)"/>
  <path id="Path_8417" data-name="Path 8417" d="M195.5,196.9,180.351,212.05l-9.427-9.427a2.863,2.863,0,0,0-4.048,4.048l11.451,11.451a2.862,2.862,0,0,0,4.048,0l17.176-17.176A2.863,2.863,0,0,0,195.5,196.9Z" transform="translate(-133.218 -157.51)" fill="url(#linear-gradient)"/>
  <path id="Path_8418" data-name="Path 8418" d="M95.807,29.466l-10.23-6.124-2.294-9.5a8.749,8.749,0,0,0-9.22-6.7l-11.647.9L55.694,2.112a8.751,8.751,0,0,0-11.4,0L37.576,8.044l-11.647-.9a8.747,8.747,0,0,0-9.194,6.593L13.542,23.912,4.194,29.466A8.751,8.751,0,0,0,.673,40.3l3.985,9.657L.673,59.618A8.751,8.751,0,0,0,4.195,70.457l10.212,6.085,2.3,9.54a8.746,8.746,0,0,0,8.525,6.725c.618,0-.076.023,12.22-.919l6.843,6a8.751,8.751,0,0,0,11.4,0l6.843-6,11.525.892a8.752,8.752,0,0,0,9.22-6.7l2.294-9.5c12.506-7.486,9.855-5.892,10.23-6.124a8.751,8.751,0,0,0,3.521-10.838l-3.985-9.657L99.328,40.3a8.751,8.751,0,0,0-3.521-10.838Zm-6.34,21.613,4.446,10.774a2.917,2.917,0,0,1-1.162,3.606L81.514,72.186a2.929,2.929,0,0,0-1.343,1.826l-2.583,10.7a2.916,2.916,0,0,1-3.073,2.233l-12.756-.987a2.931,2.931,0,0,0-2.158.719l-7.719,6.774a2.916,2.916,0,0,1-3.771,0l-7.719-6.774a2.929,2.929,0,0,0-2.158-.719l-12.756.987A2.916,2.916,0,0,1,22.4,84.707L19.812,73.969a2.929,2.929,0,0,0-1.348-1.829L7.248,65.457a2.917,2.917,0,0,1-1.16-3.6l4.446-10.774a2.928,2.928,0,0,0,0-2.235L6.088,38.07a2.917,2.917,0,0,1,1.158-3.6L17.5,28.377a2.929,2.929,0,0,0,1.3-1.641C22.574,14.69,22.361,15.4,22.4,15.216a2.913,2.913,0,0,1,3.073-2.233l12.882,1a2.929,2.929,0,0,0,2.164-.724l7.59-6.7a2.917,2.917,0,0,1,3.765,0l7.59,6.7a2.93,2.93,0,0,0,2.164.724l12.882-1a2.917,2.917,0,0,1,3.073,2.233l2.583,10.7a2.93,2.93,0,0,0,1.343,1.826l11.238,6.727a2.916,2.916,0,0,1,1.162,3.605L89.467,48.844A2.929,2.929,0,0,0,89.467,51.079Z" transform="translate(0 -0.003)" fill="url(#linear-gradient)"/>
</svg>
