<svg xmlns="http://www.w3.org/2000/svg" width="438.608" height="522.572" viewBox="0 0 438.608 522.572"><defs><style>.a{opacity:0.1;}.b{fill:#74a5cd;}</style></defs><g class="a" transform="translate(-866.563 -2203)"><path class="b" d="M330.109,314.671c-14.345-27.845-26.3-55.183-34.906-82.521a426.707,426.707,0,0,1-18.17-78.977c-3.347-25.313-3.825-48.6-1.435-70.371s7.651-40.5,15.779-56.7C276.554,41.288,264.6,61.539,256.472,86.852c-8.607,25.313-13.389,53.158-14.345,84.546s2.391,63.789,9.564,97.2,19.6,66.827,36.34,98.722c15.3,28.351,32.515,53.664,51.642,74.927,19.6,21.769,39.688,39.995,61.205,54.677a259.845,259.845,0,0,0,65.03,32.4c22,7.088,42.557,10.125,62.64,9.113a122.917,122.917,0,0,0,54.511-15.694c18.648-11.138,32.993-27.338,43.513-48.1,10.52-21.263,16.736-45.564,18.648-73.408q3.586-41.767-5.738-89.609c4.3,27.338,5.738,53.158,3.346,76.952-1.912,23.794-7.172,44.045-15.779,61.764-8.607,17.213-20.561,30.882-35.384,39.995-17.214,9.619-36.341,13.163-56.9,10.631-21.039-3.038-42.556-11.138-65.031-24.807s-44.469-32.4-66.465-55.689c-21.517-22.782-41.6-49.614-59.771-80.5-4.3-9.113-9.085-17.213-13.389-25.313" transform="translate(624.597 2186.942)"/><path class="b" d="M455.76,394.578c27.255-8.607,54.033-23.908,80.81-47.338,37.775-32.993,62.64-71.247,74.594-115.238a182.234,182.234,0,0,0,5.26-67.421c-3.826-28.69-14.823-52.12-33.472-71.247-23.908-24.865-60.249-37.3-109.979-37.3h-80.81L400.771,24,257.8,139.716H430.418c17.692,0,31.081,1.434,41.6,4.3,10.041,2.869,18.648,7.651,25.342,14.823,8.129,8.607,13.388,19.127,16.258,32.037a95.488,95.488,0,0,1-1.434,40.166,122.79,122.79,0,0,1-19.6,39.688,119.823,119.823,0,0,1-32.515,31.559c-11,7.651-22,12.91-33.472,15.78-11,3.347-25.82,4.782-44.469,5.738l35.384-132.93H321.874L284.1,330.026c18.648,29.168,38.253,54.511,59.771,76.028h30.6c30.6-.478,57.38-3.825,81.289-11.476" transform="translate(687.654 2179)"/></g></svg>