<svg xmlns="http://www.w3.org/2000/svg" width="51.723" height="35" viewBox="0 0 51.723 35">
  <g id="_004-chat" data-name="004-chat" transform="translate(0 -82.769)">
    <g id="Group_2048" data-name="Group 2048" transform="translate(0.758 83.527)">
      <g id="Group_2046" data-name="Group 2046" transform="translate(0 0)">
        <path id="Path_1710" data-name="Path 1710" d="M245.209,160.639c0-6.255-6.523-11.326-14.569-11.326s-14.569,5.071-14.569,11.326,6.523,11.326,14.569,11.326h.059a1.107,1.107,0,0,1,.964.55c1.89,3.274,6.374,4.11,8.134,4.316a.342.342,0,0,0,.328-.524,15.852,15.852,0,0,1-2.143-4.94,1.112,1.112,0,0,1,.588-1.225C242.567,168.121,245.209,164.62,245.209,160.639Z" transform="translate(-195.002 -143.348)" fill="#d2d4d8"/>
        <path id="Path_1711" data-name="Path 1711" d="M339.905,170.141c4-2.02,6.639-5.521,6.639-9.5,0-6.255-6.523-11.326-14.569-11.326a18.642,18.642,0,0,0-3.181.272c6.516,1.128,11.387,5.649,11.387,11.054,0,3.981-2.643,7.483-6.639,9.5a1.112,1.112,0,0,0-.588,1.225,12.348,12.348,0,0,0,.6,1.962c2.1,2.6,5.969,3.316,7.573,3.5a.342.342,0,0,0,.328-.524,15.851,15.851,0,0,1-2.143-4.94,1.112,1.112,0,0,1,.588-1.225Z" transform="translate(-296.336 -143.348)" fill="#b5b5b5"/>
        <path id="Path_1712" data-name="Path 1712" d="M26.64,90.269c-10.571,0-19.14,6.662-19.14,14.879a12.931,12.931,0,0,0,4.165,9.267,1.185,1.185,0,0,1,.31,1.161,23.452,23.452,0,0,1-3.995,7.585.367.367,0,0,0,.3.592c2.118-.053,8.06-.527,11.658-4.064a1.192,1.192,0,0,1,1.113-.307,24.235,24.235,0,0,0,5.59.645c10.571,0,19.14-6.662,19.14-14.879S37.21,90.269,26.64,90.269Z" transform="translate(-7.5 -90.269)" fill="#79b0eb"/>
        <g id="Group_2045" data-name="Group 2045" transform="translate(0.402 0)">
          <path id="Path_1713" data-name="Path 1713" d="M18.531,363.389a12.973,12.973,0,0,1-6.593,4.318c-.139.189-.266.356-.377.5a.367.367,0,0,0,.3.592c2.118-.053,8.06-.527,11.658-4.064a1.193,1.193,0,0,1,1.113-.307l0-.005a22.133,22.133,0,0,1-4.137-1.415A1.711,1.711,0,0,0,18.531,363.389Z" transform="translate(-11.483 -335.315)" fill="#2765a8"/>
          <path id="Path_1714" data-name="Path 1714" d="M168.652,90.269a24.651,24.651,0,0,0-3.181.206c9.056,1.178,15.958,7.3,15.958,14.674s-6.9,13.492-15.951,14.673a24.618,24.618,0,0,0,3.174.207c10.571,0,19.14-6.662,19.14-14.879S179.223,90.269,168.652,90.269Z" transform="translate(-149.915 -90.269)" fill="#2765a8"/>
        </g>
      </g>
      <g id="Group_2047" data-name="Group 2047" transform="translate(5.482 12.927)">
        <circle id="Ellipse_67" data-name="Ellipse 67" cx="1.868" cy="1.868" r="1.868" fill="#f0f7ff"/>
        <circle id="Ellipse_68" data-name="Ellipse 68" cx="1.868" cy="1.868" r="1.868" transform="translate(7.491)" fill="#f0f7ff"/>
        <circle id="Ellipse_69" data-name="Ellipse 69" cx="1.868" cy="1.868" r="1.868" transform="translate(14.982)" fill="#f0f7ff"/>
        <circle id="Ellipse_70" data-name="Ellipse 70" cx="1.868" cy="1.868" r="1.868" transform="translate(22.473)" fill="#f0f7ff"/>
      </g>
    </g>
    <g id="Group_2049" data-name="Group 2049" transform="translate(0 82.769)">
      <path id="Path_1715" data-name="Path 1715" d="M39.795,98.406c0-9.446-9.957-15.637-19.9-15.637-9.98,0-19.9,6.22-19.9,15.637a13.758,13.758,0,0,0,4.394,9.81.427.427,0,0,1,.108.419,22.821,22.821,0,0,1-3.862,7.32,1.125,1.125,0,0,0,.888,1.815h.029c4.232-.106,9.138-1.3,12.17-4.281a.433.433,0,0,1,.407-.11,25.009,25.009,0,0,0,5.764.666c9.977,0,19.9-6.218,19.9-15.637ZM14.483,111.9a1.94,1.94,0,0,0-1.819.5c-3.032,2.981-7.984,3.659-10.328,3.81a23.607,23.607,0,0,0,3.628-7.183,1.942,1.942,0,0,0-.512-1.9,12.1,12.1,0,0,1-3.936-8.725c0-7.787,8.246-14.122,18.382-14.122S38.28,90.619,38.28,98.406,30.033,112.528,19.9,112.528A23.5,23.5,0,0,1,14.483,111.9Z" transform="translate(0 -82.769)" fill="#363636"/>
      <path id="Path_1716" data-name="Path 1716" d="M338.625,165.725c4.418-2.232,7.055-6.037,7.055-10.178,0-5.852-5.29-10.853-12.579-11.89a.758.758,0,0,0-.213,1.5c6.534.93,11.277,5.3,11.277,10.39,0,3.557-2.326,6.857-6.223,8.826a1.873,1.873,0,0,0-.987,2.059,15.779,15.779,0,0,0,1.785,4.433c-4.474-.745-6.17-2.892-6.706-3.821a1.869,1.869,0,0,0-1.618-.929h-.061a18.03,18.03,0,0,1-2.5-.173.758.758,0,0,0-.211,1.5,19.562,19.562,0,0,0,2.711.188h.063a.35.35,0,0,1,.3.171c2.052,3.556,6.769,4.464,8.7,4.69a1.1,1.1,0,0,0,1.054-1.686,15.049,15.049,0,0,1-2.04-4.689A.356.356,0,0,1,338.625,165.725Z" transform="translate(-293.957 -137.498)" fill="#363636"/>
      <path id="Path_1717" data-name="Path 1717" d="M56.891,210.733a2.626,2.626,0,1,0,2.626,2.626A2.629,2.629,0,0,0,56.891,210.733Zm0,3.736A1.111,1.111,0,1,1,58,213.359,1.112,1.112,0,0,1,56.891,214.469Z" transform="translate(-48.783 -197.806)" fill="#363636"/>
      <path id="Path_1718" data-name="Path 1718" d="M131.044,210.733a2.626,2.626,0,1,0,2.626,2.626A2.629,2.629,0,0,0,131.044,210.733Zm0,3.736a1.111,1.111,0,1,1,1.111-1.111A1.112,1.112,0,0,1,131.044,214.469Z" transform="translate(-115.445 -197.806)" fill="#363636"/>
      <path id="Path_1719" data-name="Path 1719" d="M205.2,210.733a2.626,2.626,0,1,0,2.626,2.626A2.629,2.629,0,0,0,205.2,210.733Zm0,3.736a1.111,1.111,0,1,1,1.111-1.111A1.112,1.112,0,0,1,205.2,214.469Z" transform="translate(-182.106 -197.806)" fill="#363636"/>
      <path id="Path_1720" data-name="Path 1720" d="M279.35,210.733a2.626,2.626,0,1,0,2.626,2.626A2.629,2.629,0,0,0,279.35,210.733Zm0,3.736a1.111,1.111,0,1,1,1.111-1.111A1.112,1.112,0,0,1,279.35,214.469Z" transform="translate(-248.769 -197.806)" fill="#363636"/>
    </g>
  </g>
</svg>
