<svg id="Group_14367" data-name="Group 14367" xmlns="http://www.w3.org/2000/svg" xmlns:xlink="http://www.w3.org/1999/xlink" width="53.897" height="40" viewBox="0 0 53.897 40">
  <defs>
    <linearGradient id="linear-gradient" x1="0.5" x2="0.5" y2="1" gradientUnits="objectBoundingBox">
      <stop offset="0" stop-color="#0468f7"/>
      <stop offset="1" stop-color="#c645ff"/>
    </linearGradient>
    <clipPath id="clip-path">
      <rect id="Rectangle_4103" data-name="Rectangle 4103" width="53.897" height="40" fill="url(#linear-gradient)"/>
    </clipPath>
  </defs>
  <g id="Group_14366" data-name="Group 14366" clip-path="url(#clip-path)">
    <path id="Path_9282" data-name="Path 9282" d="M48.517,60.872A17.55,17.55,0,0,0,46.3,59.448c-.254-.146-.514-.295-.77-.448a9.134,9.134,0,0,0,.774-4.787,9.586,9.586,0,0,0-14.588-7.235.925.925,0,0,1-.9.13,13.813,13.813,0,0,0-9.12.173,12.47,12.47,0,0,0-6.349,5.456.494.494,0,0,1-.272.117c-.494.015-1,.012-1.489.009-.588,0-1.2-.006-1.8.02-4.627.2-8.015,2.248-10.069,6.084A14.874,14.874,0,0,0,.176,68.3,11.4,11.4,0,0,0,4.754,76.15a12.544,12.544,0,0,0,7.737,2.368H31.9q1.484,0,2.972.006c.946,0,1.9.006,2.868.006,1.526,0,3.065-.008,4.589-.037a10.012,10.012,0,0,0,7.08-2.873,9.751,9.751,0,0,0,2.883-7.462,10,10,0,0,0-3.774-7.286m-5.483-2.658c-.113.226-.145.257-.408.237C42,58.4,41.364,58.4,40.743,58.4H40.4c-.3,0-.6,0-.907,0h-.012a11.421,11.421,0,0,0-5.277-9.778,6.6,6.6,0,0,1,3.1-.494,7,7,0,0,1,5.729,10.09m-4.636,2.8c.483.01.974.008,1.449.006a24.285,24.285,0,0,1,3.221.129,7.646,7.646,0,0,1,5.746,4.1,7.2,7.2,0,0,1,.09,6.733,7.122,7.122,0,0,1-6.7,3.9c-3.562.053-7.186.041-10.691.03q-2.253-.007-4.507-.01h-.384l-3.574.006H12.492a9.735,9.735,0,0,1-7.017-2.53,9.235,9.235,0,0,1-2.827-6.533,11.874,11.874,0,0,1,2.011-7.682,8.61,8.61,0,0,1,7.2-3.666c1.078-.042,2.181-.03,3.247-.019l.766.007h.018a1.446,1.446,0,0,0,1.4-.838C19.57,50.035,24.68,47.993,30,49.563c3.8,1.122,6.057,3.551,6.7,7.22a14.479,14.479,0,0,1,.153,2.075c.005.209.011.418.019.626A1.369,1.369,0,0,0,38.4,61.009" transform="translate(0 -38.53)" fill="url(#linear-gradient)"/>
    <path id="Path_9283" data-name="Path 9283" d="M315.506,117.583c-1.329-.322-2.65-.6-3.767-.828a1.268,1.268,0,0,0-1.494.971,1.189,1.189,0,0,0,.824,1.516c.916.25,1.86.465,2.693.656.323.074.636.145.935.216l.074.01.123,0c1.278,0,1.51-.772,1.55-1.112a1.22,1.22,0,0,0-.937-1.431" transform="translate(-262.559 -98.8)" fill="url(#linear-gradient)"/>
    <path id="Path_9284" data-name="Path 9284" d="M253.093,6.161l.153,0,.113-.1c.017-.016.076-.056.119-.085a1.442,1.442,0,0,0,.649-.727c.365-1.278.637-2.57.877-3.776a1.2,1.2,0,0,0-.186-.931,1.272,1.272,0,0,0-.861-.521,1.212,1.212,0,0,0-1.454.9c-.324,1.27-.617,2.537-.871,3.766a1.121,1.121,0,0,0,.218.943,1.582,1.582,0,0,0,1.242.527" transform="translate(-212.964 0)" fill="url(#linear-gradient)"/>
    <path id="Path_9285" data-name="Path 9285" d="M182.269,18.418a1.476,1.476,0,0,0,1.39.373,1.458,1.458,0,0,0,.7-.6c.063-.083.123-.162.181-.225l.254-.274-.263-.257a.592.592,0,0,0-.082-.255q-.272-.438-.541-.878c-.554-.9-1.126-1.836-1.737-2.727a.965.965,0,0,0-.646-.415,1.336,1.336,0,0,0-.994.265,1.152,1.152,0,0,0-.423,1.562c.566.965,1.323,2.227,2.162,3.427" transform="translate(-152.312 -11.129)" fill="url(#linear-gradient)"/>
    <path id="Path_9286" data-name="Path 9286" d="M300.758,49.6c.06.048.116.093.163.136l.148.137.2-.044c.086-.02.151-.031.2-.04a.8.8,0,0,0,.3-.1q.431-.267.865-.532c.873-.534,1.775-1.087,2.639-1.673a1.133,1.133,0,0,0,.211-1.625,1.167,1.167,0,0,0-1.607-.466c-1.054.616-2.142,1.3-3.326,2.078a1.118,1.118,0,0,0-.364,1.54,2.387,2.387,0,0,0,.569.585" transform="translate(-253.94 -38.289)" fill="url(#linear-gradient)"/>
  </g>
</svg>
