<svg xmlns="http://www.w3.org/2000/svg" xmlns:xlink="http://www.w3.org/1999/xlink" width="319" height="46.312" viewBox="0 0 319 46.312">
  <defs>
    <clipPath id="clip-path">
      <path id="Path_11099" data-name="Path 11099" d="M0,0H319V46.312H0Z"/>
    </clipPath>
    <clipPath id="clip-path-2">
      <path id="Path_11096" data-name="Path 11096" d="M0,0V46.312H319V0Z" fill="#fff"/>
    </clipPath>
  </defs>
  <g id="Credit_Karma-Logo.svg" clip-path="url(#clip-path)">
    <g id="Group_18243" data-name="Group 18243" clip-path="url(#clip-path-2)">
      <path id="Path_11095" data-name="Path 11095" d="M126.278,6.257V36.986c0,6.1,3.795,9.32,9.383,9.32a19.732,19.732,0,0,0,5.6-.876V40.392a14.709,14.709,0,0,1-4.29.632c-3.269,0-4.765-2.037-4.765-4.713V18.9h8.224v-4.99H132.2V10.644c0-3.12-1.858-4.7-4.226-4.7a4.9,4.9,0,0,0-1.7.317ZM245.407,18.075v-.132c0-3.12-1.654-4.7-4.021-4.7a4.9,4.9,0,0,0-1.7.317V45.641h5.921V23.685c1.763-2.384,5.326-5.168,8.454-5.168,3.459,0,5.186,2.241,5.186,5.5V45.641h5.922V23.685c2.042-2.759,5.326-5.168,8.453-5.168,3.46,0,5.186,2.241,5.186,5.5V45.641h5.921V23.686c0-5.978-2.7-10.446-10.026-10.446-4.458,0-7.755,2.391-10.424,5.3-.9-2.137-2.917-5.3-9.155-5.3-4.227,0-7.335,2.243-9.718,4.836Zm-20.688-.132c0-3.12-1.754-4.7-4.122-4.7a4.9,4.9,0,0,0-1.7.317V45.641h5.921V26.879c1.68-3.984,5.657-7.659,10.911-7.659V13.24c-5.615,0-8.831,2.715-11.012,6.745Zm-188.425,0c0-3.12-1.754-4.7-4.122-4.7a4.9,4.9,0,0,0-1.7.317V45.641H36.4V26.879c1.68-3.984,5.657-7.659,10.912-7.659V13.24c-5.616,0-8.832,2.715-11.013,6.745ZM173.7,29.447a51.087,51.087,0,0,0,9.669-15.784l-5.472-2A46.607,46.607,0,0,1,162.9,32.09V.75h-5.921V45.641H162.9V39.015a65.218,65.218,0,0,0,6.546-5.314l5.406,9.143a6.312,6.312,0,0,0,5.841,3.46,5.467,5.467,0,0,0,2.744-.665ZM6.192,29.74c0-7.385,3.848-11.222,9.673-11.222a15.352,15.352,0,0,1,8.244,2.249,4.518,4.518,0,0,0,1.307-3.148c0-2.1-2.482-4.378-9.788-4.378C7.109,13.24,0,18.962,0,29.807c0,10.578,6.459,16.5,14.975,16.5A24.717,24.717,0,0,0,25.35,44.054V38.171a19.668,19.668,0,0,1-9.4,2.853c-5.589,0-9.76-3.827-9.76-11.284ZM99.98,20.292a13.576,13.576,0,0,0-6.586-1.774c-5.472,0-9.226,3.8-9.226,11.649,0,6.986,3.51,10.851,11.048,10.851a16.844,16.844,0,0,0,4.764-.681ZM105.832,44.7a36.416,36.416,0,0,1-10.616,1.614c-12.216,0-16.93-6.817-16.93-15.975,0-11.577,6.584-17.107,14.04-17.107A17.078,17.078,0,0,1,99.98,14.9V.75h5.852ZM53.772,27.767c.255-4.669,3.274-9.454,9.831-9.454,2.928,0,4.69,1.671,4.69,3.695,0,4.525-8.266,5.759-14.52,5.759Zm.04,4.594c8.813,0,20.477-1.333,20.477-10.64,0-4.653-3.88-8.481-10.392-8.481-10.993,0-16.284,7.724-16.284,17.031,0,8.923,5.76,16.037,16.035,16.037,5.719,0,9.991-1.556,9.991-4.8a4.679,4.679,0,0,0-1.2-2.95A15.161,15.161,0,0,1,64,41.024c-6.728,0-9.507-4.356-10.191-8.664Zm59.249,13.28V13.905h5.921V45.641Zm2.994-38.122a3.777,3.777,0,0,1-3.792-3.726A3.834,3.834,0,0,1,116.055,0a3.777,3.777,0,0,1,3.726,3.792,3.719,3.719,0,0,1-3.726,3.726ZM309.59,36.925c-2.661,2.728-5.359,4.106-8.819,4.106-3.357,0-5.119-2.144-5.119-4.4,0-3.26,2.6-6,13.938-7.094ZM302.7,13.24c-7.566,0-10.517,2.036-10.517,4.375a4.443,4.443,0,0,0,1.31,3.141,15.26,15.26,0,0,1,8.36-2.249c5.717,0,7.736,2.707,7.736,5.631v.878c-13.24,1.4-20.026,3.9-20.026,11.813,0,5.389,4.035,9.477,9.757,9.477a14.648,14.648,0,0,0,10.412-4.3v3.633h5.78v-21.7C315.513,16.89,310.419,13.24,302.7,13.24ZM205.685,36.925c-2.662,2.728-5.359,4.106-8.819,4.106-3.357,0-5.119-2.144-5.119-4.4,0-3.26,2.6-6,13.938-7.094Zm-6.89-23.685c-7.566,0-10.516,2.036-10.516,4.375a4.442,4.442,0,0,0,1.31,3.141,15.26,15.26,0,0,1,8.36-2.249c5.718,0,7.736,2.707,7.736,5.631v.878c-13.24,1.4-20.027,3.9-20.027,11.813,0,5.389,4.035,9.477,9.757,9.477a14.65,14.65,0,0,0,10.412-4.3v3.633h5.78v-21.7C211.607,16.89,206.513,13.24,198.795,13.24Z" transform="translate(0 0)" fill="#3ddb93"/>
    </g>
    <g id="Group_18244" data-name="Group 18244" clip-path="url(#clip-path-2)">
      <path id="Path_11097" data-name="Path 11097" d="M684.308,19.624a18.172,18.172,0,0,0-.3-3.213,6.534,6.534,0,0,0-.962,2.369h-.454a6.245,6.245,0,0,0-.953-2.369,17.137,17.137,0,0,0-.3,3.213h-.757a16.735,16.735,0,0,1,.465-3.938h.67a7.068,7.068,0,0,1,1.1,2,6.921,6.921,0,0,1,1.1-2h.682a17.391,17.391,0,0,1,.454,3.938Zm-6.892-3.938h2.921v.606h-1.081v3.332H678.5V16.292h-1.082Z" transform="translate(-366.054 -8.476)" fill="#3ddb93"/>
    </g>
  </g>
</svg>
