<svg xmlns="http://www.w3.org/2000/svg" width="34.186" height="41.094" viewBox="0 0 34.186 41.094">
  <g id="Group_2384" data-name="Group 2384" transform="translate(-138.6 -466.246)">
    <g id="_002-piggy-bank" data-name="002-piggy-bank" transform="translate(139.6 467.246)">
      <g id="Group_2229" data-name="Group 2229" transform="translate(0 0)">
        <path id="Path_8313" data-name="Path 8313" d="M43.739,18.685A9.343,9.343,0,1,0,34.4,9.339,9.34,9.34,0,0,0,43.739,18.685Z" transform="translate(-34.4)" fill="none" stroke="#c645ff" stroke-width="2"/>
        <path id="Path_8314" data-name="Path 8314" d="M82.5,122.905h-1.09a12.212,12.212,0,0,0-4-5.674,1.044,1.044,0,0,0-.031-.216,4.394,4.394,0,0,1,.657-3.548.887.887,0,0,0-.858-1.353,6.553,6.553,0,0,0-3.595,1.507,3.493,3.493,0,0,0-1.1,1.809,11.241,11.241,0,0,1-17.765,6.285,10.923,10.923,0,0,0-.7,7.174h0a.135.135,0,0,0,.008.039,11.158,11.158,0,0,0,.928,2.466,12.941,12.941,0,0,0,2.373,3.587,6.842,6.842,0,0,1,1.84,4.4v.417h0a.809.809,0,0,0,.8.75h4.886a.8.8,0,0,0,.8-.8v-1.206a16.808,16.808,0,0,0,2.172.147,15.6,15.6,0,0,0,1.708-.093v1.152a.8.8,0,0,0,.8.8h4.9a.8.8,0,0,0,.8-.8v-1.206a4.822,4.822,0,0,1,1.662-3.371l.162-.139c.015-.015.031-.023.046-.039h0a12.091,12.091,0,0,0,3.572-5.458h1.028A1.485,1.485,0,0,0,84,128.046v-3.657A1.508,1.508,0,0,0,82.5,122.905Z" transform="translate(-51.81 -101.452)" fill="none" stroke="#c645ff" stroke-width="2"/>
        <circle id="Ellipse_118" data-name="Ellipse 118" cx="1.49" cy="1.49" r="1.49" transform="translate(22.252 19.377)" fill="#c645ff"/>
      </g>
    </g>
    <path id="Path_8393" data-name="Path 8393" d="M40.516,13.053c.085-.309.17-.611.263-.92.108-.356.209-.394.533-.224a5.221,5.221,0,0,0,1.763.526,2.174,2.174,0,0,0,1.152-.155.9.9,0,0,0,.216-1.577,2.821,2.821,0,0,0-.657-.387,15.6,15.6,0,0,1-1.8-.8,2.547,2.547,0,0,1-1.438-2.435A2.676,2.676,0,0,1,42.5,4.6c.479-.178.479-.17.487-.673v-.51c.008-.379.077-.441.448-.456h.348c.8,0,.8,0,.8.8,0,.564,0,.572.564.657a5.017,5.017,0,0,1,1.245.371.371.371,0,0,1,.24.487c-.1.348-.193.7-.309,1.036-.108.325-.209.371-.518.224a3.975,3.975,0,0,0-1.979-.394,1.361,1.361,0,0,0-.526.108.748.748,0,0,0-.186,1.33,3.219,3.219,0,0,0,.858.479,15.79,15.79,0,0,1,1.569.711,2.809,2.809,0,0,1,.9,4.267,3.006,3.006,0,0,1-1.562,1,.436.436,0,0,0-.379.495c.015.278,0,.549,0,.827a.342.342,0,0,1-.371.387c-.294.008-.6.008-.889,0a.361.361,0,0,1-.387-.41c0-.2,0-.4-.008-.6-.008-.441-.015-.464-.448-.533a5.4,5.4,0,0,1-1.585-.456C40.447,13.564,40.408,13.463,40.516,13.053Z" transform="translate(105.196 467.337)" fill="#c645ff"/>
  </g>
</svg>
