<svg xmlns="http://www.w3.org/2000/svg" width="40.001" height="40" viewBox="0 0 40.001 40">
  <g id="_003-email" data-name="003-email" transform="translate(-0.001 -0.005)">
    <g id="Group_2043" data-name="Group 2043" transform="translate(0.666 0.669)">
      <path id="Path_1701" data-name="Path 1701" d="M46.176,192.719v22.668a1.337,1.337,0,0,1-1.333,1.333h-36a1.337,1.337,0,0,1-1.333-1.333V192.719l.28-.213.167.213H45.73l.167-.213Z" transform="translate(-7.507 -178.052)" fill="#2765a8"/>
      <path id="Path_1702" data-name="Path 1702" d="M44.176,192.719v22.668a1.337,1.337,0,0,1-1.333,1.333h-34a.855.855,0,0,1-.133-.007.393.393,0,0,1-.093-.013,1.333,1.333,0,0,1-.847-.527,1.3,1.3,0,0,1-.26-.787V192.719H43.729l.167-.213Z" transform="translate(-7.507 -178.052)" fill="#79b0eb"/>
      <path id="Path_1703" data-name="Path 1703" d="M49.2,21.958l-.167.213-18.221,14H29.48l-18.221-14-.167-.213,6.387-4.967,8.787-6.82L29.34,7.784a1.3,1.3,0,0,1,1.613,0l3.074,2.387,8.787,6.82Z" transform="translate(-10.812 -7.504)" fill="#2765a8"/>
      <path id="Path_1704" data-name="Path 1704" d="M118.176,42.97V58.418l-2,1.54-10,7.681h-1.333l-12-9.221V42.97a1.337,1.337,0,0,1,1.333-1.333h22.668A1.337,1.337,0,0,1,118.176,42.97Z" transform="translate(-86.174 -38.97)" fill="#d2d4d8"/>
      <path id="Path_1705" data-name="Path 1705" d="M116.176,42.97V59.958l-10,7.681h-1.333l-12-9.221V42.97a1.337,1.337,0,0,1,1.333-1.333h20.668A1.337,1.337,0,0,1,116.176,42.97Z" transform="translate(-86.174 -38.97)" fill="#e9eaef"/>
      <path id="Path_1706" data-name="Path 1706" d="M462.848,479.47a1.319,1.319,0,0,1-1.073.547h-2a1.337,1.337,0,0,0,1.333-1.333v-.567Z" transform="translate(-424.438 -441.348)" fill="#d84315"/>
      <path id="Path_1707" data-name="Path 1707" d="M47.244,323.381v.567a1.337,1.337,0,0,1-1.333,1.333h-34a.855.855,0,0,1-.133-.007.392.392,0,0,1-.093-.013,1.333,1.333,0,0,1-.847-.527l15.274-11.861,2.994-2.327a1.3,1.3,0,0,1,1.613,0l2.994,2.327Z" transform="translate(-10.575 -286.612)" fill="#79b0eb"/>
    </g>
    <g id="Group_2044" data-name="Group 2044" transform="translate(0.001 0.004)">
      <path id="Path_1708" data-name="Path 1708" d="M39.966,15.161a.667.667,0,0,0-.038-.115.6.6,0,0,0-.067-.1.629.629,0,0,0-.089-.1c-.011-.009-.015-.022-.027-.031L33.335,9.83V4.669a2,2,0,0,0-2-2H24.109L21.216.423a1.977,1.977,0,0,0-2.431,0L15.891,2.669H8.666a2,2,0,0,0-2,2V9.83L.256,14.81c-.011.009-.016.022-.027.031a.625.625,0,0,0-.089.1.6.6,0,0,0-.067.1.658.658,0,0,0-.038.115.632.632,0,0,0-.027.133c0,.014-.008.026-.008.04V38a1.978,1.978,0,0,0,.391,1.177c0,.006,0,.013.009.019s.015.011.021.019A1.99,1.99,0,0,0,2,40H38a1.991,1.991,0,0,0,1.581-.789c.005-.007.013-.009.018-.015s.005-.013.009-.019A1.977,1.977,0,0,0,40,38V15.336c0-.014-.007-.026-.008-.04A.63.63,0,0,0,39.966,15.161ZM19.6,1.475a.639.639,0,0,1,.8,0l1.538,1.194H18.067ZM7.333,17.336A.667.667,0,0,0,8,16.67v-12A.667.667,0,0,1,8.666,4H31.334A.667.667,0,0,1,32,4.669v12a.667.667,0,1,0,1.333,0V11.518l4.69,3.645L26.906,23.8a.667.667,0,1,0,.817,1.053l10.945-8.5v21.28L21.216,24.077a1.978,1.978,0,0,0-2.431,0L1.332,37.632V16.352l10.925,8.484a.667.667,0,0,0,.817-1.054l-11.1-8.619,4.69-3.645V16.67A.667.667,0,0,0,7.333,17.336Zm30.5,21.335H2.167L19.6,25.13a.64.64,0,0,1,.8,0Z" transform="translate(-0.001 -0.004)" fill="#363636"/>
      <path id="Path_1709" data-name="Path 1709" d="M161.575,84.24a.667.667,0,1,0,0-1.333,6.667,6.667,0,1,1,6.667-6.667v2.667a1.333,1.333,0,0,1-2.667,0V76.239a.667.667,0,1,0-1.333,0,2.667,2.667,0,1,1-2.667-2.667.667.667,0,1,0,0-1.333,4,4,0,1,0,2.7,6.948,2.66,2.66,0,0,0,5.305-.281V76.24a8,8,0,1,0-8,8Z" transform="translate(-141.575 -62.908)" fill="#363636"/>
    </g>
  </g>
</svg>
