<svg id="Group_14351" data-name="Group 14351" xmlns="http://www.w3.org/2000/svg" xmlns:xlink="http://www.w3.org/1999/xlink" width="92.172" height="80" viewBox="0 0 92.172 80">
  <defs>
    <linearGradient id="linear-gradient" x1="0.5" x2="0.5" y2="1" gradientUnits="objectBoundingBox">
      <stop offset="0" stop-color="#0468f7"/>
      <stop offset="1" stop-color="#c645ff"/>
    </linearGradient>
    <clipPath id="clip-path">
      <rect id="Rectangle_4098" data-name="Rectangle 4098" width="92.172" height="80" fill="url(#linear-gradient)"/>
    </clipPath>
  </defs>
  <g id="Group_14350" data-name="Group 14350" clip-path="url(#clip-path)">
    <path id="Path_9264" data-name="Path 9264" d="M91.441,20.29A8.145,8.145,0,0,0,83.678,15.3c-4.391-.038-8.859-.03-13.178-.022-1.918,0-3.838.011-5.754.007h-2.24v-1.7c0-.439,0-.858,0-1.278-.006-.719,0-1.439.009-2.161A45.239,45.239,0,0,0,62.4,5.416,5.772,5.772,0,0,0,56.559.058c-7.382-.077-14.233-.078-20.942,0a5.971,5.971,0,0,0-5.942,6.186c-.024,1.8-.018,3.606-.012,5.451l.006,3.591H27.521q-2.843,0-5.686.012c-4.258.014-8.66.026-12.994-.03A8.383,8.383,0,0,0,.13,22.252a1.2,1.2,0,0,1-.13.4v50.16a10.453,10.453,0,0,0,1.934,4.147A8.757,8.757,0,0,0,8.792,80q6.921-.007,13.843,0H82.921c5.013,0,7.927-2.274,9.168-7.157a1.108,1.108,0,0,1,.084-.226V22.5c-.069-.221-.134-.446-.2-.669a9.885,9.885,0,0,0-.533-1.546M33.634,6.316A2.09,2.09,0,0,1,35.924,4q6.008-.007,12.015,0l8.317,0a2.045,2.045,0,0,1,2.269,2.052c.02,1.958.017,3.917.014,5.91l0,3.3H33.629V9.8c0-1.161,0-2.322.006-3.483m-29.7,17.79c.019-3.139,1.752-4.868,4.88-4.869q13.971-.006,27.942,0H53.2q14.973,0,29.945.023a7.237,7.237,0,0,1,2.878.615,3.5,3.5,0,0,1,2.109,3.1c.007.44.018.881.029,1.323a30.786,30.786,0,0,1-.23,5.913,9.526,9.526,0,0,1-7.036,7.8c-8.528,2.547-17.218,5.063-25.621,7.5l-5.94,1.719a11.232,11.232,0,0,1-3.165.452,13.286,13.286,0,0,1-3.75-.569q-13.632-3.987-27.275-7.937l-3.315-.963A10.481,10.481,0,0,1,3.94,27.9c-.019-1.167-.012-2.335,0-3.5ZM86.086,75.365a6.213,6.213,0,0,1-2.843.645q-31.869.034-63.741.022H8.936c-.14,0-.278,0-.417,0A4.379,4.379,0,0,1,3.94,71.554c-.006-.171-.006-.344-.005-.517V39.795l.7-.233a1.118,1.118,0,0,1,1.146.069c2.361,1.755,5.105,2.485,8.01,3.258.787.21,1.575.419,2.353.649,5.96,1.762,12.035,3.508,17.91,5.2q4.055,1.166,8.108,2.334a13.8,13.8,0,0,0,7.778.03l2.125-.612c9.858-2.843,20.052-5.782,30.054-8.747A18.9,18.9,0,0,0,85.2,40.4c.508-.258,1.02-.516,1.542-.757L88.124,39l.085,1.7c.013.2.027.427.027.656v8.742q0,10.49.01,20.978a4.514,4.514,0,0,1-2.16,4.281" fill="url(#linear-gradient)"/>
  </g>
</svg>
