<svg id="Group_14349" data-name="Group 14349" xmlns="http://www.w3.org/2000/svg" xmlns:xlink="http://www.w3.org/1999/xlink" width="61.59" height="80" viewBox="0 0 61.59 80">
  <defs>
    <linearGradient id="linear-gradient" x1="0.5" x2="0.5" y2="1" gradientUnits="objectBoundingBox">
      <stop offset="0" stop-color="#0468f7"/>
      <stop offset="1" stop-color="#c645ff"/>
    </linearGradient>
    <clipPath id="clip-path">
      <rect id="Rectangle_4097" data-name="Rectangle 4097" width="61.59" height="80" fill="url(#linear-gradient)"/>
    </clipPath>
  </defs>
  <g id="Group_14348" data-name="Group 14348" clip-path="url(#clip-path)">
    <path id="Path_9262" data-name="Path 9262" d="M61.545,56.177A17.311,17.311,0,0,0,49.2,40.015a37.714,37.714,0,0,0-5.678-.97c-.787-.092-1.573-.186-2.354-.3-.689-.1-1.382-.176-2.124-.255.587-.407,1.131-.784,1.669-1.169a9.549,9.549,0,0,0,3.776-5.506,23.7,23.7,0,0,0,.481-2.63.376.376,0,0,1,.3-.385,4.861,4.861,0,0,0,3.149-4.718c.028-2.287.027-4.549,0-6.723A17.63,17.63,0,0,0,35.328.606c-.66-.175-1.334-.3-1.987-.424-.3-.056-.6-.112-.9-.172L32.394,0,29.169.008l-.586.109c-.356.066-.713.133-1.069.2A17.454,17.454,0,0,0,13.353,15.558c-.23,2.749-.188,5.554-.147,8.266l.009.642a4.336,4.336,0,0,0,2.636,4.074c.672.3.817.653.9,1.392a9.731,9.731,0,0,0,3.1,6.507,24.729,24.729,0,0,0,2.162,1.651c.192.136.385.272.577.41l-1.478.166c-1.99.223-3.934.441-5.876.677A17.517,17.517,0,0,0,.06,56.1c-.078,4.315-.079,9.037,0,14.437A9.006,9.006,0,0,0,4.5,78.4a12.8,12.8,0,0,0,2.7,1.144c.4.136.808.272,1.2.424L53.115,80l.221-.091a1.012,1.012,0,0,1,.129-.051,9.655,9.655,0,0,0,8.1-9.635l.006-1.174c.021-4.219.043-8.58-.024-12.872m-9.2,18.472a8.612,8.612,0,0,0-.28-1.3c-.059-.222-.119-.443-.168-.666a1.081,1.081,0,0,1-.03-.42c.05-.261.12-.52.19-.779a6.443,6.443,0,0,0,.287-1.619c.036-6.515.03-12.778.018-20.287a4.476,4.476,0,0,0-4.825-4.808q-2.1,0-4.195,0h-6.37l.941-2.723.528.056c.7.072,1.44.15,2.182.238.619.073,1.239.138,1.86.2,1.444.149,2.937.3,4.372.579A13.878,13.878,0,0,1,57.932,56.374c.057,4.868.053,9.665-.011,14.256A5.781,5.781,0,0,1,56.059,74.7a5.848,5.848,0,0,1-3.682,1.625l0-.131a11.26,11.26,0,0,0-.031-1.543m-3.655,1.677H12.909V74.8H48.694ZM9.235,75.2c.005.259.011.518,0,.775-.006.124-.007.247-.006.395L8.95,76.31a7.81,7.81,0,0,1-1.581-.438,5.665,5.665,0,0,1-3.688-5.38c-.08-5.164-.08-9.876,0-14.4a13.952,13.952,0,0,1,11.7-13.111c1.914-.262,3.873-.471,5.766-.673q1.17-.125,2.337-.252a1.741,1.741,0,0,1,.19-.01h.015l.942,2.724H21.472q-3.7,0-7.4,0a4.474,4.474,0,0,0-4.838,4.792c-.011,7.2-.018,13.7.017,20.365a6.3,6.3,0,0,0,.3,1.637c.064.231.129.463.178.694.011.049.025.1.04.16.006.017.011.037.016.054a4.489,4.489,0,0,0-.551,2.73M40.3,15.064a21.785,21.785,0,0,1-7.63-2.676A3.737,3.737,0,0,0,30.8,11.85a3.635,3.635,0,0,0-1.838.527,22.371,22.371,0,0,1-7.856,2.73,5.23,5.23,0,0,0-4.245,3.3c-.131-5.533,1.922-9.611,6.247-12.433a13.271,13.271,0,0,1,14.851-.331c4.628,2.756,6.881,6.994,6.856,12.924a5.365,5.365,0,0,0-4.511-3.5M18.228,22.852A1.848,1.848,0,0,0,19.974,20.9a2.1,2.1,0,0,1,2.045-2.289,23.8,23.8,0,0,0,8.348-2.891.75.75,0,0,1,.914.024A23.833,23.833,0,0,0,39.556,18.6a2.12,2.12,0,0,1,2.07,2.269,1.86,1.86,0,0,0,1.8,1.985,1.413,1.413,0,0,1,1.365,1.308c.019.723-.477,1.226-1.361,1.379a1.915,1.915,0,0,0-1.848,1.907l-.1.579c-.156.941-.311,1.88-.507,2.813a4.972,4.972,0,0,1-1.89,3.117,57.077,57.077,0,0,1-5.453,3.5,7.593,7.593,0,0,1-2,.652c-.311.072-.622.144-.927.229a10.715,10.715,0,0,1-4.346-1.7c-1.209-.752-2.4-1.59-3.421-2.315A6,6,0,0,1,20.5,30.361c-.122-.671-.229-1.344-.336-2.017l-.151-.94a1.9,1.9,0,0,0-1.816-1.853,1.438,1.438,0,0,1-1.387-1.368c.01-.907.778-1.224,1.421-1.331m9.134,18.321a9.849,9.849,0,0,0,6.878.008,3.4,3.4,0,0,1-1.527,3,3.325,3.325,0,0,1-3.757.038,3.378,3.378,0,0,1-1.594-3.05M48.737,69.836c0,1.094-.2,1.286-1.319,1.286H14.259c-1.225,0-1.394-.167-1.394-1.366q0-10.026,0-20.05c0-1.137.191-1.323,1.357-1.324H47.381c1.166,0,1.356.188,1.356,1.327q0,10.062,0,20.126" fill="url(#linear-gradient)"/>
    <path id="Path_9263" data-name="Path 9263" d="M30.792,55.3h-.014a5.767,5.767,0,0,0,0,11.534h.047a5.774,5.774,0,0,0,5.725-5.73,5.772,5.772,0,0,0-1.7-4.123A5.709,5.709,0,0,0,30.792,55.3m.041,7.9a2.149,2.149,0,0,1-1.519-.611,2.127,2.127,0,0,1,1.478-3.656H30.8a2.134,2.134,0,0,1,.034,4.267" fill="url(#linear-gradient)"/>
  </g>
</svg>
