<svg id="Group_14353" data-name="Group 14353" xmlns="http://www.w3.org/2000/svg" xmlns:xlink="http://www.w3.org/1999/xlink" width="80.089" height="80" viewBox="0 0 80.089 80">
  <defs>
    <linearGradient id="linear-gradient" x1="0.5" x2="0.5" y2="1" gradientUnits="objectBoundingBox">
      <stop offset="0" stop-color="#0468f7"/>
      <stop offset="1" stop-color="#c645ff"/>
    </linearGradient>
    <clipPath id="clip-path">
      <rect id="Rectangle_4099" data-name="Rectangle 4099" width="80.089" height="80" fill="url(#linear-gradient)"/>
    </clipPath>
  </defs>
  <g id="Group_14352" data-name="Group 14352" clip-path="url(#clip-path)">
    <path id="Path_9265" data-name="Path 9265" d="M79.673,39.9a6.122,6.122,0,0,0-3.706-3.783,6.528,6.528,0,0,0-5.619.556c-.841.5-1.668,1.052-2.466,1.584q-.506.336-1.013.668a27.119,27.119,0,0,0-11.81-20.586,5.038,5.038,0,0,0,.635-4.358,5.121,5.121,0,0,0-2.95-3.266l.82-1.477c.877-1.577,1.744-3.137,2.607-4.7a2.547,2.547,0,0,0,.366-2.215A2.639,2.639,0,0,0,54.66.973,34.031,34.031,0,0,0,44.8,0a26.655,26.655,0,0,0-7.13,1.049,2.342,2.342,0,0,0-1.677,1.255,2.36,2.36,0,0,0,.282,2.09q1.035,1.876,2.082,3.747L39.728,10.6c.023.04.044.081.064.123A5.162,5.162,0,0,0,37.51,18.4C30.048,23.471,26.074,30.742,25.7,40.019c-.009.226-.009.226-.291.31a18.708,18.708,0,0,0-6.768,3.7c-1.136.971-2.26,1.954-3.4,2.945l-1.23,1.075c-1.746-1.331-2.268-1.214-3.954.472L.99,57.587C-.331,58.911-.33,59.9,1,61.223L18.754,78.979A2.768,2.768,0,0,0,20.616,80a2.717,2.717,0,0,0,1.83-1l1.762-1.76q3.714-3.706,7.41-7.433a3.773,3.773,0,0,0,1.153-1.819A2.258,2.258,0,0,0,32.5,66.7l5.839,0c4.978,0,9.951-.008,14.928.014h.05a8.815,8.815,0,0,0,6.366-2.533c1.595-1.523,3.206-3.027,4.819-4.532l5.479-5.136q4-3.759,8.017-7.5A6.463,6.463,0,0,0,79.673,39.9m-4.586,4.246q-3.771,3.519-7.529,7.049l-5,4.679q-2.85,2.662-5.682,5.342a4.724,4.724,0,0,1-3.556,1.411c-8.087-.02-16.174-.006-24.262-.024a1.12,1.12,0,0,1-.676-.2q-4.9-4.851-9.766-9.738L16.9,50.948c.692-.577,1.363-1.181,2.016-1.769,2.106-1.9,4.1-3.687,6.744-4.637a15.144,15.144,0,0,1,14.7,2.038,7.431,7.431,0,0,0,4.882,1.587c1.327-.062,2.686-.044,4-.03.486.006.972.012,1.457.014a2.6,2.6,0,0,1,2.8,2.565,2.484,2.484,0,0,1-.709,1.816,2.92,2.92,0,0,1-2.1.81q-3.489.008-6.975,0l-3.186,0c-.184,0-.363,0-.539.011a2.043,2.043,0,0,0-1.938,2.075,1.992,1.992,0,0,0,1.967,1.977c.9.005,1.793.014,2.69.022,2.873.028,5.845.057,8.766-.061a6.179,6.179,0,0,0,4.316-2.027,6.814,6.814,0,0,0,1.759-4.883.785.785,0,0,1,.463-.846q3.817-2.487,7.623-4.989,3.294-2.162,6.589-4.316A2.576,2.576,0,0,1,74.634,40a2.333,2.333,0,0,1,1.375,1.718,2.446,2.446,0,0,1-.923,2.427Zm-13.2-1.909c-1.532.933-3,1.908-4.553,2.941q-.765.508-1.546,1.024c-1.673-1.867-3.79-2.154-5.943-2.154-.482,0-.967.014-1.448.029l-.094,0c-.006-.35-.011-.679,0-.923a.574.574,0,0,1,.174-.146,5.13,5.13,0,0,0-2.1-9.752,1.08,1.08,0,0,1-1.1-.744.933.933,0,0,1,.337-1.118,1.034,1.034,0,0,1,1.313-.054,4.426,4.426,0,0,1,.525.373l.235.18a2.01,2.01,0,0,0,2.882-.249,1.977,1.977,0,0,0-.241-2.825,6.683,6.683,0,0,0-1.7-1.173c-.327-.144-.356-.238-.328-.549a7.3,7.3,0,0,0,0-1.156,2.046,2.046,0,0,0-2.029-1.96h-.027a2.125,2.125,0,0,0-1.534.686,1.709,1.709,0,0,0-.439,1.314,2.1,2.1,0,0,1-1.194,2.281,4.81,4.81,0,0,0-1.7,5.473,5.2,5.2,0,0,0,4.466,3.576c.092.008.187.012.28.015a1.866,1.866,0,0,1,.352.029,1.08,1.08,0,0,1,.689.488.987.987,0,0,1,.127.774,1.137,1.137,0,0,1-.565.715.839.839,0,0,1-.69.052,4.182,4.182,0,0,1-1.3-.861c-1.052-.968-2.2-1.058-3.055-.239a1.942,1.942,0,0,0-.639,1.373,2.424,2.424,0,0,0,.763,1.713,8.411,8.411,0,0,0,1.236,1.071,8.828,8.828,0,0,0,.988.575c.059.029.118.06.177.092v.961a1.6,1.6,0,0,1-.9-.418,19.058,19.058,0,0,0-9.122-3.96c-1.091-.152-2.188-.2-3.349-.256-.368-.016-.743-.033-1.127-.054.044-.309.085-.621.127-.935a29.162,29.162,0,0,1,.548-3.239,22.223,22.223,0,0,1,7.467-12.058c5.182-4.295,11.343-4.395,16.485-.261A21.851,21.851,0,0,1,62.769,40.6a1.632,1.632,0,0,1-.885,1.633M44.912,13.766q.695-.13,1.394-.265c.471.093.94.18,1.406.267,1.156.215,2.249.417,3.336.7a1.071,1.071,0,0,1,.793.823.888.888,0,0,1-.332.9,1.345,1.345,0,0,1-.976.181,15.775,15.775,0,0,0-8.492.015.956.956,0,0,1-1.305-.587,1.122,1.122,0,0,1,.08-.875.941.941,0,0,1,.615-.448c1.144-.277,2.332-.5,3.481-.715m4.823-6.048c-.129.231-.245.487-.359.743a2.842,2.842,0,0,1-.769,1.2,2.339,2.339,0,0,1-1.21.026,7.408,7.408,0,0,0-.885-.072H46.47c-.4,0-.8.029-1.2.055-.37.024-.739.048-1.108.054a.85.85,0,0,1-.251-.04c-.864-1.505-1.7-3.021-2.559-4.563l-.368-.662a27.666,27.666,0,0,1,10.568-.006ZM27.73,67.765l-7.11,7.068L5.208,59.412,12.3,52.34Z" fill="url(#linear-gradient)"/>
  </g>
</svg>
