<svg xmlns="http://www.w3.org/2000/svg" xmlns:xlink="http://www.w3.org/1999/xlink" width="59.586" height="70" viewBox="0 0 59.586 70">
  <defs>
    <linearGradient id="linear-gradient" x1="0.5" y1="-0.364" x2="0.5" y2="1" gradientUnits="objectBoundingBox">
      <stop offset="0" stop-color="#0468f7"/>
      <stop offset="1" stop-color="#c645ff"/>
    </linearGradient>
  </defs>
  <g id="traffic" transform="translate(-38.084)">
    <path id="Path_8987" data-name="Path 8987" d="M97.254,12.717,84.539.387a1.37,1.37,0,0,0-1.907,0L69.915,12.716a1.37,1.37,0,0,0,.954,2.353h3.944v3.469a17.862,17.862,0,0,0-13.871,0V1.37A1.37,1.37,0,0,0,59.572,0h-14.8A1.37,1.37,0,0,0,43.4,1.37V54.93H39.454a1.37,1.37,0,0,0-.954,2.353l12.715,12.33a1.37,1.37,0,0,0,1.907,0l12.716-12.33a1.37,1.37,0,0,0-.954-2.353H60.942V51.461a17.861,17.861,0,0,0,13.871,0V68.63A1.37,1.37,0,0,0,76.183,70h14.8a1.37,1.37,0,0,0,1.37-1.37l0-39.718a1.37,1.37,0,1,0-2.74,0l0,38.348H77.552V50.009a17.85,17.85,0,0,0,0-30.017V13.7a1.37,1.37,0,0,0-1.37-1.37H74.249l9.336-9.052L92.92,12.33H90.987a1.37,1.37,0,0,0-1.37,1.37l0,15.16a1.37,1.37,0,0,0,1.37,1.37h0a1.37,1.37,0,0,0,1.37-1.37l0-13.79H96.3a1.37,1.37,0,0,0,.954-2.353ZM59.572,57.67H61.5l-9.336,9.052L42.834,57.67h1.933a1.37,1.37,0,0,0,1.37-1.37V2.74H58.2V19.991a17.85,17.85,0,0,0,0,30.017V56.3a1.37,1.37,0,0,0,1.37,1.37ZM83,35A15.123,15.123,0,1,1,67.877,19.877,15.14,15.14,0,0,1,83,35Z" fill="url(#linear-gradient)"/>
    <path id="FontAwsome_dollar-sign_" data-name="FontAwsome (dollar-sign)" d="M8.027,8.916,3.9,7.709A1.127,1.127,0,0,1,4.218,5.5H6.751a2.332,2.332,0,0,1,1.306.4A.6.6,0,0,0,8.8,5.826l1.329-1.3a.619.619,0,0,0-.069-.936,5.4,5.4,0,0,0-3.3-1.146V.611A.613.613,0,0,0,6.147,0H4.925a.613.613,0,0,0-.611.611V2.445h-.1A4.186,4.186,0,0,0,.054,7.014a4.373,4.373,0,0,0,3.2,3.69L7.171,11.85a1.127,1.127,0,0,1-.317,2.208H4.321a2.332,2.332,0,0,1-1.306-.4.6.6,0,0,0-.745.076L.94,15.032a.619.619,0,0,0,.069.936,5.4,5.4,0,0,0,3.3,1.146v1.834a.613.613,0,0,0,.611.611H6.147a.613.613,0,0,0,.611-.611V17.107A4.315,4.315,0,0,0,10.8,14.329a4.2,4.2,0,0,0-2.77-5.413Z" transform="translate(62.341 25.22)" fill="url(#linear-gradient)"/>
  </g>
</svg>
