<svg xmlns="http://www.w3.org/2000/svg" xmlns:xlink="http://www.w3.org/1999/xlink" width="70" height="70" viewBox="0 0 70 70">
  <defs>
    <linearGradient id="linear-gradient" x1="0.5" y1="1" x2="0.5" gradientUnits="objectBoundingBox">
      <stop offset="0" stop-color="#0468f7"/>
      <stop offset="1" stop-color="#c645ff"/>
    </linearGradient>
  </defs>
  <path id="financial" d="M17.167,86H84.833A1.167,1.167,0,0,0,86,84.833V80.167A1.167,1.167,0,0,0,84.833,79H83.667V76.667h1.167A1.167,1.167,0,0,0,86,75.5V70.833a1.167,1.167,0,0,0-1.167-1.167h-3.5v-3.5A1.167,1.167,0,0,0,80.167,65h-2a9.327,9.327,0,0,0-10.83-15.078V32.333a1.167,1.167,0,0,0-.342-.825L51.825,16.342A1.167,1.167,0,0,0,51,16H17.167A1.167,1.167,0,0,0,16,17.167V84.833A1.167,1.167,0,0,0,17.167,86Zm29.167-7V76.667H62.667V79Zm2.333-4.667V72H65v2.333ZM65,83.667H48.667V81.333H65ZM65,79V76.667H81.333V79Zm18.667,4.667H67.333V81.333H83.667Zm0-11.667v2.333H67.333V72ZM79,67.333v2.333H62.667V67.333ZM72,51a7,7,0,1,1-7,7A7,7,0,0,1,72,51ZM52.167,19.983,63.35,31.167H52.167Zm-33.833-1.65h31.5v14A1.167,1.167,0,0,0,51,33.5H65V51.836A9.311,9.311,0,0,0,65.837,65H61.5a1.167,1.167,0,0,0-1.167,1.167v3.5H47.5a1.167,1.167,0,0,0-1.167,1.167v3.5H45.167A1.167,1.167,0,0,0,44,75.5v4.667a1.167,1.167,0,0,0,1.167,1.167h1.167v2.333h-28ZM21.833,44A1.167,1.167,0,0,1,23,42.833H60.333a1.167,1.167,0,1,1,0,2.333H23A1.167,1.167,0,0,1,21.833,44Zm0,5.833A1.167,1.167,0,0,1,23,48.667H60.333a1.167,1.167,0,1,1,0,2.333H23A1.167,1.167,0,0,1,21.833,49.833Zm0,5.833A1.167,1.167,0,0,1,23,54.5H58a1.167,1.167,0,1,1,0,2.333H23A1.167,1.167,0,0,1,21.833,55.667Zm36.167,7H23a1.167,1.167,0,0,1,0-2.333H58a1.167,1.167,0,1,1,0,2.333ZM38.167,68.5H23a1.167,1.167,0,0,1,0-2.333H38.167a1.167,1.167,0,0,1,0,2.333ZM21.833,38.167v-14a1.167,1.167,0,1,1,2.333,0v8.85l2.675-2.675a1.167,1.167,0,0,1,1.65,0L30,31.85l3.842-3.842a1.167,1.167,0,0,1,1.65,0L37,29.517,40.017,26.5h-.684a1.167,1.167,0,0,1,0-2.333h3.5A1.167,1.167,0,0,1,44,25.333v3.5a1.167,1.167,0,1,1-2.333,0V28.15l-3.842,3.842a1.167,1.167,0,0,1-1.65,0l-1.508-1.508-3.842,3.842a1.167,1.167,0,0,1-1.65,0l-1.508-1.508-3.5,3.5V37H42.833a1.167,1.167,0,0,1,0,2.333H23A1.167,1.167,0,0,1,21.833,38.167Zm49,21H72a2.331,2.331,0,0,1-1.167-4.351V54.5a1.167,1.167,0,1,1,2.333,0,1.167,1.167,0,0,1,0,2.333H72a2.331,2.331,0,0,1,1.167,4.351V61.5a1.167,1.167,0,1,1-2.333,0,1.167,1.167,0,1,1,0-2.333Z" transform="translate(-16 -16)" fill="url(#linear-gradient)"/>
</svg>
