<svg xmlns="http://www.w3.org/2000/svg" width="28" height="28" viewBox="0 0 28 28">
  <g id="Group_744" data-name="Group 744" transform="translate(21260 -9127)">
    <g id="equal-housing-lender" transform="translate(-21260 9127)" opacity="0.7">
      <path id="Exclusion_6" data-name="Exclusion 6" d="M25.2,20.5H2.119V10.716H0V7.872L13.832,0,27.356,7.95v2.767H25.2V20.5h0ZM13.831,2.965l-8.9,5.221v9.821H22.538V8.186L13.831,2.965Z" fill="#fff"/>
      <path id="Exclusion_1" data-name="Exclusion 1" d="M6.595,18.49H5.015V15.412H6.633a2.448,2.448,0,0,1,1.416.331A1.426,1.426,0,0,1,8.6,17.009C8.6,18.242,7.832,18.49,6.595,18.49Zm-.733-2.417h0v1.754h.694c.69,0,1.117-.137,1.117-.818a.944.944,0,0,0-1.04-.935H5.862ZM9.209,6.014H0V3.6H9.209V6.014Zm0-3.6H0V0H9.209V2.416Z" transform="translate(9.097 9.51)" fill="#fff"/>
      <path id="Exclusion_2" data-name="Exclusion 2" d="M.848,3.079H0V0H2.235a1.432,1.432,0,0,1,.915.224.892.892,0,0,1,.279.75c0,.494-.254.738-.848.819l.886,1.285H2.543L1.658,1.793H.848V3.078Zm0-2.413h0v.467H2.077c.425,0,.539,0,.539-.233,0-.2-.161-.234-.5-.234H.845Z" transform="translate(22.557 24.921)" fill="#fff"/>
      <path id="Exclusion_4" data-name="Exclusion 4" d="M8.752,6.6H7.944V3.525h.963l1.618,1.91V3.525h.809V6.6h-.963L8.752,4.732V6.6Zm8.369,0h0V3.525h2.928v.663H17.968v.467H19.74v.623H17.968v.663h2.081v.623L17.121,6.6ZM6.882,6.6H3.915V3.525H6.882v.663H4.8v.467H6.535v.623H4.8v.663H6.882V6.6Zm-3.838,0H0V3.525H.847V5.9l2.2.039V6.6ZM6.6,2.767H6.038L6.809,0h.655l.77,2.767h-.6l-.171-.624H6.771L6.6,2.767ZM7.121.592h0L6.889,1.683h.5Z" transform="translate(1.523 21.396)" fill="#fff"/>
      <path id="Exclusion_5" data-name="Exclusion 5" d="M2.119,2.806h0A5.418,5.418,0,0,1,.467,2.67C.135,2.544,0,2.3,0,1.832V1.091A1.3,1.3,0,0,1,.2.283.853.853,0,0,1,.924,0a.834.834,0,0,1,.751.317,1.429,1.429,0,0,1,.174.814v.585a1.4,1.4,0,0,1-.155.74l.463.155-.039.2ZM.961.468C.607.468.575.639.575,1.13v.662a1.211,1.211,0,0,0,.072.521.269.269,0,0,0,.275.141c.312,0,.346-.126.346-.623v-.74C1.269.543,1.231.468.961.468Z" transform="translate(3.266 21.318)" fill="#fff"/>
      <path id="Exclusion_3" data-name="Exclusion 3" d="M5.063,2.884a.928.928,0,0,1-.674-.229.746.746,0,0,1-.212-.55l.464-.078c.079.28.239.428.462.428.24,0,.347-.084.347-.272,0-.226-.251-.394-.517-.572h0C4.6,1.386,4.216,1.133,4.216.7s.333-.7.848-.7a.95.95,0,0,1,.645.2A.737.737,0,0,1,5.95.7L5.564.857C5.446.616,5.327.467,5.1.467c-.154,0-.309.08-.309.234,0,.191.24.356.517.546.336.23.716.491.716.858a.708.708,0,0,1-.294.55A1.1,1.1,0,0,1,5.063,2.884Zm-4.139,0a.949.949,0,0,1-.737-.219A1.016,1.016,0,0,1,0,1.949v-.9C0,.354.311,0,.925,0a.933.933,0,0,1,.737.224,1.082,1.082,0,0,1,.188.75v.857a1.249,1.249,0,0,1-.188.8A.892.892,0,0,1,.925,2.884Zm0-2.455C.6.429.576.694.576,1.013v.857c0,.413.048.585.347.585.246,0,.347-.181.347-.624V1.013C1.27.731,1.243.429.923.429Z" transform="translate(14.809 21.318)" fill="#fff"/>
      <path id="Path_1330" data-name="Path 1330" d="M44.991,142.649c0,.818.231,1.052,1,1.052.6,0,.771-.283.771-.585v-.9h-.809v.429h.27v.312c0,.234-.077.351-.27.351-.385,0-.424-.273-.424-.662v-.624c0-.468.039-.779.424-.779.27,0,.424.2.463.468l.385-.156a.779.779,0,0,0-.886-.74c-.77,0-.924.429-.924,1.013v.818h0Zm-7.238-1.754v1.6c0,.935.159,1.234.968,1.234.616,0,.843-.338.843-1.156v-1.676h-.539v1.6c0,.623-.039.779-.347.779s-.347-.234-.347-.818v-1.559h-.578Zm5.148,0v2.767h.462v-1.871l.655,1.871h.694V140.9h-.462v1.714l-.616-1.714Zm-16.378,0v1.676c0,.78.077,1.13.848,1.13.886,0,.925-.429.925-1.208v-1.6h-.539v1.637c0,.546-.077.7-.347.7-.308,0-.347-.156-.347-.779V140.9h-.54Zm7.007,0v2.767h.54v-1.247h.655v1.247h.539V140.9h-.539v1.052h-.655V140.9Zm-11.193,0v2.767h1.387v-.429h-.848v-.779h.771v-.39h-.771v-.74h.848V140.9Zm8.518,0v2.767h1.271v-.429h-.809V140.9Zm11.117,0v2.767h.5V140.9Z" transform="translate(-20.853 -119.499)" fill="#fff"/>
    </g>
  </g>
</svg>
