<svg xmlns="http://www.w3.org/2000/svg" width="107.948" height="27.998" viewBox="0 0 107.948 27.998">
  <g id="Layer_2" data-name="Layer 2" opacity="0.7">
    <g id="Layer_1" data-name="Layer 1">
      <path id="Exclusion_9" data-name="Exclusion 9" d="M72.818,27.423H0V0H72.818a3.635,3.635,0,0,1,3.831,3.389V24.035A3.635,3.635,0,0,1,72.818,27.423ZM9.645,16.76h4.792l.864,2.36a.884.884,0,0,0,.265.348.714.714,0,0,0,.455.139h1.664L13.141,8.04H10.949L6.4,19.607h1.68a.692.692,0,0,0,.455-.152.76.76,0,0,0,.248-.336l.864-2.359Zm47.961,1.472-.46.646a2.3,2.3,0,0,0,1.687.637c1,0,1.6-.478,1.6-1.28,0-.9-.825-1.1-1.488-1.255l-.006,0-.017,0c-.418-.1-.778-.184-.778-.439s.218-.4.568-.4h.022a1.708,1.708,0,0,1,1.139.435l.473-.623a2.213,2.213,0,0,0-1.555-.556c-.877,0-1.513.511-1.513,1.214,0,.9.809,1.082,1.459,1.231l.029.007.034.008c.415.1.773.191.773.476,0,.22-.215.443-.694.443A1.764,1.764,0,0,1,57.606,18.231Zm-3.635,0-.46.646a2.321,2.321,0,0,0,1.69.637c1,0,1.6-.478,1.6-1.28,0-.9-.825-1.1-1.488-1.255l-.006,0-.017,0c-.418-.1-.778-.184-.778-.439s.218-.4.568-.4H55.1a1.708,1.708,0,0,1,1.139.435l.47-.623a2.21,2.21,0,0,0-1.555-.556c-.877,0-1.513.511-1.513,1.214,0,.9.809,1.082,1.46,1.231l.03.007.035.009c.414.1.772.191.772.476,0,.22-.215.443-.694.443A1.764,1.764,0,0,1,53.971,18.231Zm-13.24,0-.461.646a2.3,2.3,0,0,0,1.688.637c1,0,1.6-.478,1.6-1.28,0-.9-.826-1.1-1.489-1.255l-.007,0-.015,0c-.419-.1-.78-.184-.78-.439s.217-.4.567-.4h.022a1.713,1.713,0,0,1,1.139.435l.473-.623a2.215,2.215,0,0,0-1.556-.556c-.876,0-1.512.511-1.512,1.214,0,.9.809,1.082,1.459,1.231l.029.007.036.009c.414.1.772.191.772.475,0,.213-.217.443-.694.443A1.764,1.764,0,0,1,40.731,18.231ZM36.11,15.45v2.4a1.6,1.6,0,0,0,1.812,1.663,1.582,1.582,0,0,0,1.8-1.669V15.45h-.87v2.369a.936.936,0,1,1-1.871,0V15.45Zm14.144,0v3.99l2.822,0V18.69H51.1v-.9h1.931v-.747H51.1V16.2h1.978V15.45ZM46.7,16.838l0,0,1.9,2.6h.817V15.45h-.85v2.5l-1.849-2.5h-.87v3.99h.85v-2.6Zm-2.53-1.388v3.99h.85V15.45Zm-12.065,0v3.99l2.162,0a1.05,1.05,0,0,0,1.16-1.077.961.961,0,0,0-.761-.978.886.886,0,0,0,.688-.915,1.027,1.027,0,0,0-1.148-1.017ZM18.341,13.5v1.464h3.088v3.3h1.608v-3.3h3.1V13.5h-3.1v-3.28H21.429V13.5ZM38.223,8.529h-.052a2.064,2.064,0,1,0,0,4.127,1.825,1.825,0,0,0,1.669-.979l-.725-.362a1.069,1.069,0,0,1-.939.58,1.236,1.236,0,0,1-1.25-1.305,1.237,1.237,0,0,1,1.25-1.306,1.082,1.082,0,0,1,.933.583l.73-.359A1.821,1.821,0,0,0,38.223,8.529Zm4.151,0h-.052a2.059,2.059,0,1,0-.021,4.117h.021a1.825,1.825,0,0,0,1.669-.979l-.73-.352a1.067,1.067,0,0,1-.939.58,1.236,1.236,0,0,1-1.249-1.305,1.237,1.237,0,0,1,1.249-1.306,1.08,1.08,0,0,1,.939.583l.73-.359A1.819,1.819,0,0,0,42.374,8.529Zm3.018,2.646h.622l.783,1.414.979,0-.9-1.523a1.14,1.14,0,0,0,.87-1.184A1.243,1.243,0,0,0,46.409,8.6H44.542v3.99h.85V11.175ZM65.03,8.6v3.99H66.6A1.948,1.948,0,0,0,68.72,10.6a1.951,1.951,0,0,0-2.118-2Zm-3.53,0v3.99l2.824,0v-.747H62.349v-.9h1.93v-.747h-1.93V9.346h1.978V8.6Zm-3.768,0v.747H58.9v3.243h.855V9.346h1.16V8.6ZM56.3,8.6v3.99h.85V8.6Zm-4.337,0v3.99h1.572A1.948,1.948,0,0,0,55.65,10.6a1.951,1.951,0,0,0-2.118-2Zm-3.53,0v3.99l2.823,0v-.747H49.279v-.9h1.931v-.747H49.279V9.346h1.978V8.6ZM32.9,11.912h1.711l.245.676h.968L34.289,8.6H33.224l-1.543,3.99h.969l.251-.675ZM34.05,18.7H32.955v-.927H34.05a.465.465,0,0,1,.515.467A.454.454,0,0,1,34.05,18.7Zm-.03-1.657H32.955v-.869h1.1a.431.431,0,0,1,.3.116.44.44,0,0,1,.139.319A.429.429,0,0,1,34.02,17.047ZM13.885,15.24H10.2l1.408-3.832c.069-.174.138-.375.212-.616s.15-.5.22-.76c.071.26.146.514.224.756s.147.436.216.6l1.407,3.847Zm52.722-3.4h-.723V9.347h.723a1.171,1.171,0,0,1,1.25,1.25A1.2,1.2,0,0,1,66.607,11.84Zm-13.07,0h-.723V9.347h.723a1.171,1.171,0,0,1,1.25,1.25A1.2,1.2,0,0,1,53.537,11.84Zm-19.158-.676H33.135l.622-1.716.621,1.715Zm11.9-.741h-.891V9.346h.891a.542.542,0,1,1,0,1.077Z" transform="translate(25.559 0.287)" fill="#fff"/>
      <path id="Path_987" data-name="Path 987" d="M305.177,28H232.37V0h72.807a3.927,3.927,0,0,1,4.129,3.676V24.321A3.927,3.927,0,0,1,305.177,28m-72.162-.574h72.162a3.313,3.313,0,0,0,3.484-3.1V3.676a3.313,3.313,0,0,0-3.484-3.1H233.015Z" transform="translate(-207.097)" fill="#fff"/>
      <path id="Path_988" data-name="Path 988" d="M58.905,26.09l-1.182,1.631a2.206,2.206,0,0,0,.4,2.847l2.193,1.582c.376.272.406.544.227.828l.319.237,1.11-1.538a2.081,2.081,0,0,0-.392-2.984l-2.212-1.612a.552.552,0,0,1-.146-.761l-.319-.227m1.9-7.2L58.96,21.436a3.161,3.161,0,0,0,.631,4.1l3.027,2.222a1.708,1.708,0,0,1,.247,2.185l.257.193L65.21,27.2a3.091,3.091,0,0,0-.589-4.337l-3.238-2.353a.984.984,0,0,1-.3-1.423l-.278-.2M55.95,34.859h2.44l.435,1.479h3.987l.435-1.479h2.441l-.32-1.088h-9.1l-.32,1.088m1.143,4.949a1.261,1.261,0,0,0,.692-1.126c0-1.01-.828-1.423-1.731-1.423H53.53v5.365h2.5c1.068,0,2.2-.467,2.016-1.7-.109-.7-.387-.87-.954-1.122m-2.425-1.52h1.314a.574.574,0,1,1,.051,1.144H54.669Zm1.465,3.325H54.669V40.388h1.465C57.209,40.388,57.143,41.611,56.134,41.611Zm5.969-1.8a1.261,1.261,0,0,0,.692-1.126c0-1.01-.828-1.423-1.731-1.423H58.54v5.365h2.5c1.067,0,2.2-.467,2.016-1.7-.109-.7-.387-.87-.954-1.122m-2.421-1.523h1.311a.574.574,0,1,1,.051,1.144H59.682Zm1.462,3.326H59.682V40.388h1.462c1.075,0,1.009,1.224,0,1.224Zm6.922-.68c-.109-.7-.387-.87-.954-1.122a1.261,1.261,0,0,0,.692-1.126c0-1.01-.828-1.423-1.731-1.423H63.549v5.365h2.5c1.067,0,2.2-.467,2.016-1.7M64.7,38.285H66a.574.574,0,1,1,.051,1.144H64.691Zm1.462,3.326H64.691V40.388h1.462c1.075,0,1.009,1.224,0,1.224Z" transform="translate(-47.708 -16.835)" fill="#fff"/>
      <path id="Path_990" data-name="Path 990" d="M103.224,25.641v-.013a2.362,2.362,0,0,1,4.725-.013v.013a2.362,2.362,0,1,1-4.725.013Zm4.509-.013v-.013a2.147,2.147,0,1,0-4.294.013v.013a2.147,2.147,0,1,0,4.294-.013Zm-3.074-1.279h1.088a1.008,1.008,0,0,1,.718.255.637.637,0,0,1,.2.47v.013a.717.717,0,0,1-.626.711l.75.972h-.444l-.7-.914h-.62v.914h-.359Zm1.051,1.188c.339,0,.574-.157.574-.435v-.013c0-.255-.209-.418-.555-.418h-.711v.861ZM25.847,28H3.676A3.68,3.68,0,0,1,0,24.321V3.676A3.68,3.68,0,0,1,3.676,0H25.847V28M3.676.574a3.105,3.105,0,0,0-3.1,3.1V24.321a3.105,3.105,0,0,0,3.1,3.1h21.6V.574Z" fill="#fff"/>
    </g>
  </g>
</svg>
