<svg xmlns="http://www.w3.org/2000/svg" width="218.061" height="24.068" viewBox="0 0 218.061 24.068">
  <g id="Group_745" data-name="Group 745" transform="translate(21909.057 -9126.5)">
    <g id="Layer_2" data-name="Layer 2" transform="translate(-21835.459 9126.5)" opacity="0.7">
      <g id="Layer_1" data-name="Layer 1" transform="translate(0)">
        <path id="Path_1301" data-name="Path 1301" d="M3.841,0A3.841,3.841,0,0,0,0,3.841V20.158A3.841,3.841,0,0,0,3.841,24H25.878a3.841,3.841,0,0,0,3.841-3.841V3.841A3.841,3.841,0,0,0,25.878,0" transform="translate(0)" fill="#fff"/>
        <path id="Path_1302" data-name="Path 1302" d="M25.724.75a2.926,2.926,0,0,1,2.926,2.938V20h0a2.926,2.926,0,0,1-2.926,2.938H3.688A2.938,2.938,0,0,1,.75,20V3.688A2.938,2.938,0,0,1,3.688.75" transform="translate(0.153 0.153)" fill="#0d2341"/>
        <path id="Exclusion_8" data-name="Exclusion 8" d="M23.856,19.9H1.794A1.8,1.8,0,0,1,0,18.111V1.794A1.8,1.8,0,0,1,1.794,0H23.855a1.791,1.791,0,0,1,1.793,1.794V18.111a1.8,1.8,0,0,1-.534,1.275A1.775,1.775,0,0,1,23.856,19.9ZM12.872,17.7h0v.568h6.417c3.13,0,4.926-1.588,4.926-4.358,0-2.523-1.567-4.08-4.53-4.5a3.943,3.943,0,0,0,3.844-3.913,3.538,3.538,0,0,0-.676-2.146c-.942-1.169-2.148-1.624-4.3-1.624H12.908v.628h.409c.876,0,1.2.418,1.2,1.541V16a2.068,2.068,0,0,1-.3,1.355,1.411,1.411,0,0,1-1.146.343h-.2ZM1.239,17.605h0v.638H6.983v-.615H6.561c-.966,0-1.2-.338-1.2-1.724v-5.73h1.2c2.279,0,3.121.8,3.335,3.189h.458V6.212H9.872A4.1,4.1,0,0,1,9.12,8.7a3.06,3.06,0,0,1-2.4.707H5.4V3.767c0-1.269.249-1.492,1.662-1.492h.1a8.847,8.847,0,0,1,1.723.17,5.721,5.721,0,0,1,3.262,2.624l.446.638c.109.252.17.252.279.252H12.9a.242.242,0,0,0,.149-.054.236.236,0,0,0,.08-.163.6.6,0,0,0,0-.183l-.061-.166L11.992,2V1.9a.137.137,0,0,1-.04-.085.172.172,0,0,0-.019-.071.119.119,0,0,0-.1-.07H1.2V2.3h.361a1.3,1.3,0,0,1,.983.286,1.514,1.514,0,0,1,.281,1.135V15.955A2.35,2.35,0,0,1,2.6,17.277c-.166.233-.447.328-.975.328H1.239Zm17.373.089a3.207,3.207,0,0,1-.346-.019c-.923,0-1.206-.337-1.206-1.445V9.992l.074-.047V9.826H17.3c.143-.012.29-.018.434-.018s.291.006.434.018c2.382,0,3.312,1.1,3.312,3.936,0,1.906-.366,2.892-1.3,3.518A3.193,3.193,0,0,1,18.612,17.694ZM17.428,9.063c-.092,0-.186,0-.282-.008h-.072V3.767c0-1.153.258-1.468,1.2-1.468a2.246,2.246,0,0,1,1.982.784,4.651,4.651,0,0,1,.572,2.707,4.053,4.053,0,0,1-.5,2.266c-.462.776-1.05,1-2.623,1C17.615,9.06,17.518,9.063,17.428,9.063Z" transform="translate(2.049 2.048)" fill="#fff"/>
        <path id="Path_1306" data-name="Path 1306" d="M36.241,1.75H31.147v9.838c4.419,0,7.586.277,7.586-3.444a.265.265,0,0,1,.53,0v8.068a.265.265,0,0,1-.53,0c0-3.841-3.167-3.745-7.586-3.745v7.514c0,2.541,2.336,1.313,2.336,2.216a.325.325,0,0,1-.349.349c-.638,0-1.2-.06-3.251-.06s-2.625.06-3.263.06a.325.325,0,0,1-.349-.349c0-.9,2.336.325,2.336-2.216V3.255c0-2.529-2.336-1.313-2.336-2.216A.337.337,0,0,1,26.619.69c.638,0,1.264.06,3.263.06,4.9,0,8.851,0,11.428-.06L42.8,5.627c.132.494-.325.518-.53.325C42.237,5.952,38.806,1.75,36.241,1.75Z" transform="translate(5.363 0.141)" fill="#fff"/>
        <path id="Path_1307" data-name="Path 1307" d="M43.686,19.675c0,1.83,2.107.963,2.107,1.746,0,.265-.145.349-.458.349-.71,0-1.373-.06-2.938-.06s-2.228.06-2.95.06c-.313,0-.458-.084-.458-.349,0-.783,2.119.084,2.119-1.746V11.632c0-1.951-2.119-1.132-2.119-1.806s.722,0,4.7-1.577ZM40.592,6.2a1.577,1.577,0,1,1,3.143,0,1.577,1.577,0,1,1-3.143,0Z" transform="translate(7.96 0.916)" fill="#fff"/>
        <path id="Path_1308" data-name="Path 1308" d="M77.966.76h.217c3.48,0,5.431.59,6.96,2.119A4.022,4.022,0,0,1,86.226,5.7c0,2.745-2.408,4.744-6.213,5.13,4.817.566,7.333,2.589,7.333,5.924,0,3.612-2.914,5.72-7.984,5.72H68.886v-.747h.337c1.842,0,2.336-.458,2.336-2.228V3.6c0-1.505-.554-2.023-2.047-2.023H68.85V.76ZM75.69,11.6v8.176c0,1.433.434,1.891,1.866,1.891a6.2,6.2,0,0,0,3.107-.518c1.529-.819,2.119-2.1,2.119-4.612,0-3.733-1.529-5.166-5.383-5.166a12.439,12.439,0,0,0-1.4.06h-.277a.465.465,0,0,1-.036.193Zm.132-1.2a9.055,9.055,0,0,0,.927,0c2.577,0,3.516-.289,4.263-1.313a4.48,4.48,0,0,0,.807-3c0-3.372-1.1-4.588-4.142-4.588-1.553,0-2.011.458-2.011,1.927v6.948Z" transform="translate(14.057 0.155)" fill="#fff"/>
        <path id="Path_1309" data-name="Path 1309" d="M87.664,21.3a3.01,3.01,0,0,1-3.191-3.01c0-1.7,1.108-2.974,3.456-4.022l1.2-.53,1.373-.65c.421-.193.686-.361.867-.458s.084,0,.144-.1v-1.24c0-1.638-.771-2.408-2.264-2.408a1.975,1.975,0,0,0-2.131,2.059c0,.193,0,.458,0,.722a4.989,4.989,0,0,1,.1.783,1.337,1.337,0,0,1-1.337,1.373A1.794,1.794,0,0,1,84.1,12.027c0-2.264,3.36-4.287,7.068-4.287,2.408,0,3.456,1.2,3.456,3.757,0,.626,0,1.12-.12,3.54,0,1.2-.1,2.312-.12,3.432V18.6c0,.915.181,1.276.71,1.276.265,0,.446-.132.626-.47l.12-.229c.12-.193.2-.253.385-.253s.325.193.325.458a2.2,2.2,0,0,1-2.408,1.963,3.2,3.2,0,0,1-2.89-1.505A6.141,6.141,0,0,1,87.664,21.3Zm3.613-7.49c-2.854,1.108-3.805,2.023-3.805,3.793a2.1,2.1,0,0,0,1.842,2.228c1.337,0,2.168-1.276,2.168-3.239V13.713Z" transform="translate(17.17 1.58)" fill="#fff"/>
        <path id="Path_1310" data-name="Path 1310" d="M95.267,9.251h.181a24.3,24.3,0,0,0,3.841-1.469V9.793a6.478,6.478,0,0,1,4.5-2.023c2.553,0,3.938,1.854,3.938,5.322v5.563c0,1.2.265,1.541,1.373,1.6h.217v.783h-6.394v-.747h.181c1.2-.072,1.469-.361,1.469-1.866v-5.2c0-2.709-.747-4.19-2.192-4.19a3.612,3.612,0,0,0-2.878,2.324v7.526c0,.915.337,1.2,1.385,1.409a.843.843,0,0,1,.265,0V21H94.93v-.674h.157c1.325-.132,1.493-.361,1.493-1.7V11.262c0-.879-.385-1.2-1.313-1.276Z" transform="translate(19.381 1.586)" fill="#fff"/>
        <path id="Path_1311" data-name="Path 1311" d="M107.651,2.085a13.245,13.245,0,0,0,2.408-.433A15.234,15.234,0,0,0,111.6,1.29a2.179,2.179,0,0,1,.409-.12h0s.12,0,.12.193V15.945L116.249,12l.181-.2.482-.482a.867.867,0,0,0,.181-.494c0-.325-.3-.53-.9-.53V9.467h5.431v.686a6.659,6.659,0,0,0-4.383,2.131l-.145.132-1.565,1.469L120.187,20l.181.229c.325.4.506.65.566.723a1.782,1.782,0,0,0,.759.518,2.071,2.071,0,0,0,.867.132v.783h-7.08V21.7c.662-.1,1.048-.361,1.048-.783,0-.229-.12-.421-.421-.855l-.181-.253L113.2,16.2l-1.06,1.012V19.7c0,1.565.277,1.866,1.65,1.891v.819h-6.5v-.819h.241c1.2,0,1.433-.289,1.433-2.155V4.987c0-1.373-.361-2-1.349-2.192Z" transform="translate(21.905 0.239)" fill="#fff"/>
        <path id="Path_1312" data-name="Path 1312" d="M47.417,11.117c0-2.071-2.047-1.2-2.047-1.987,0-.518,1.529-.145,4.419-1.517V10.7h.06c1.2-3.095,3.5-3.083,3.5-3.083a1.457,1.457,0,0,1,1.686,1.577,1.288,1.288,0,0,1-1.349,1.4c-.891,0-.795-.7-1.758-.7s-2.192,1.927-2.192,5.106v4.046c0,1.83,1.951.963,1.951,1.746,0,.265-.132.349-.421.349-.65,0-1.264-.06-2.709-.06s-2.059.06-2.709.06c-.3,0-.421-.084-.421-.349,0-.783,1.939.084,1.939-1.746Z" transform="translate(9.263 1.55)" fill="#fff"/>
        <path id="Path_1313" data-name="Path 1313" d="M58.169,7.61a9.778,9.778,0,0,1,3.817.879v3.733c0,.229-.072.313-.2.313s-.217-.253-.373-.759C60.795,9.922,59.891,8.5,57.8,8.5a1.842,1.842,0,0,0-1.939,1.77c0,2.914,6.9,3,6.9,7.044,0,2.192-1.565,4-4.877,4a11.163,11.163,0,0,1-4.19-.735V16.292c0-.349.072-.518.241-.518s.229.144.446.9c.722,2.529,2.2,3.745,4.082,3.745A2.252,2.252,0,0,0,60.746,18.3c0-3-6.9-2.565-6.9-6.924C53.871,9.416,55.412,7.61,58.169,7.61Z" transform="translate(10.962 1.554)" fill="#fff"/>
        <path id="Path_1314" data-name="Path 1314" d="M69.554,9.849H65.941V18c0,1.927.819,2.336,2.119,2.336s1.686-1.276,2.264-1.276c.108,0,.193.084.193.229a4.01,4.01,0,0,1-3.877,2.6c-2.131,0-3.215-1.409-3.215-3.914V9.849H61.57v-.1A44.107,44.107,0,0,0,65.821,4.84h.06V8.452h4.166Z" transform="translate(12.57 0.988)" fill="#fff"/>
      </g>
    </g>
    <text id="A_Division_Of" data-name="A Division Of" transform="translate(-21909.057 9148.568)" fill="#fff" font-size="11" font-family="Lato-Bold, Lato" font-weight="700" opacity="0.7"><tspan x="0" y="0">A Division Of</tspan></text>
  </g>
</svg>
