<svg xmlns="http://www.w3.org/2000/svg" width="23.995" height="23.995" viewBox="0 0 23.995 23.995">
  <g id="_004-instagram" data-name="004-instagram" opacity="0.7">
    <path id="Path_1360" data-name="Path 1360" d="M211.593,209.3a2.3,2.3,0,1,1-2.3-2.3A2.3,2.3,0,0,1,211.593,209.3Zm0,0" transform="translate(-197.299 -197.299)" fill="#b8b5c3"/>
    <path id="Path_1361" data-name="Path 1361" d="M146.5,137.073a2.281,2.281,0,0,0-1.307-1.307,3.811,3.811,0,0,0-1.279-.237c-.727-.033-.944-.04-2.784-.04s-2.058.007-2.784.04a3.814,3.814,0,0,0-1.279.237,2.282,2.282,0,0,0-1.308,1.307,3.813,3.813,0,0,0-.237,1.279c-.033.726-.04.944-.04,2.784s.007,2.057.04,2.784a3.812,3.812,0,0,0,.237,1.279,2.282,2.282,0,0,0,1.307,1.307,3.807,3.807,0,0,0,1.279.237c.726.033.944.04,2.784.04s2.058-.007,2.784-.04a3.807,3.807,0,0,0,1.279-.237A2.281,2.281,0,0,0,146.5,145.2a3.815,3.815,0,0,0,.237-1.279c.033-.727.04-.944.04-2.784s-.007-2.058-.04-2.784A3.807,3.807,0,0,0,146.5,137.073Zm-5.37,7.6a3.538,3.538,0,1,1,3.538-3.538A3.538,3.538,0,0,1,141.133,144.674Zm3.677-6.388a.827.827,0,1,1,.827-.827A.827.827,0,0,1,144.81,138.286Zm0,0" transform="translate(-129.135 -129.139)" fill="#b8b5c3"/>
    <path id="Path_1362" data-name="Path 1362" d="M12,0A12,12,0,1,0,24,12,12,12,0,0,0,12,0Zm6.848,14.838a5.054,5.054,0,0,1-.32,1.672,3.523,3.523,0,0,1-2.015,2.015,5.058,5.058,0,0,1-1.672.32c-.735.034-.969.042-2.84.042s-2.106-.008-2.84-.042a5.058,5.058,0,0,1-1.672-.32A3.523,3.523,0,0,1,5.47,16.51a5.053,5.053,0,0,1-.32-1.672c-.034-.735-.042-.97-.042-2.84s.008-2.106.042-2.84a5.055,5.055,0,0,1,.32-1.672A3.525,3.525,0,0,1,7.485,5.47a5.059,5.059,0,0,1,1.672-.32c.735-.034.969-.042,2.84-.042s2.106.008,2.84.042a5.06,5.06,0,0,1,1.672.32,3.524,3.524,0,0,1,2.015,2.015,5.054,5.054,0,0,1,.32,1.672c.034.735.041.969.041,2.84S18.879,14.1,18.845,14.838Zm0,0" fill="#b8b5c3"/>
  </g>
</svg>
