<svg xmlns="http://www.w3.org/2000/svg" xmlns:xlink="http://www.w3.org/1999/xlink" width="70" height="70" viewBox="0 0 70 70">
  <defs>
    <linearGradient id="linear-gradient" x1="0.5" x2="0.5" y2="1" gradientUnits="objectBoundingBox">
      <stop offset="0" stop-color="#0468f7"/>
      <stop offset="1" stop-color="#c645ff"/>
    </linearGradient>
  </defs>
  <g id="mansion" transform="translate(-1 -1)">
    <path id="Path_8988" data-name="Path 8988" d="M69.871,19.065A1.129,1.129,0,0,0,71,17.935V13.419a1.129,1.129,0,0,0-1.129-1.129H67.952L51.3,1.19A1.136,1.136,0,0,0,50.677,1H21.323a1.136,1.136,0,0,0-.627.19L4.048,12.29H2.129A1.129,1.129,0,0,0,1,13.419v4.516a1.129,1.129,0,0,0,1.129,1.129H3.258v26.59A4.506,4.506,0,0,0,1,49.548a3.387,3.387,0,0,0,3.387,3.387h9.032a3.387,3.387,0,0,0,3.387-3.387,4.458,4.458,0,0,0-.149-1.129h1.278v3.387a1.129,1.129,0,0,0,1.129,1.129h4.516a1.129,1.129,0,0,0,1.129-1.129V48.419h3.978l-3.839,9.608C9.285,59.727,1,64.925,1,69.871A1.129,1.129,0,0,0,2.129,71H15.677a1.129,1.129,0,0,0,1.129-1.129c0-2.357,7.3-5.645,19.194-5.645s19.194,3.288,19.194,5.645A1.129,1.129,0,0,0,56.323,71H69.871A1.129,1.129,0,0,0,71,69.871c0-4.946-8.285-10.144-23.844-11.844l-3.843-9.608H47.29v3.387a1.129,1.129,0,0,0,1.129,1.129h4.516a1.129,1.129,0,0,0,1.129-1.129V48.419h1.278a4.458,4.458,0,0,0-.149,1.129,3.387,3.387,0,0,0,3.387,3.387h9.032A3.387,3.387,0,0,0,71,49.548a4.506,4.506,0,0,0-2.258-3.894V19.065Zm-1.129-2.258H50.226l-3.079-2.258h21.6ZM20.194,23.581V21.323H51.806v2.258ZM36,9.174l13.486,9.89H44.266l-7.61-5.435a1.129,1.129,0,0,0-1.312,0l-7.61,5.435H22.514Zm4.38,9.89H31.62L36,15.936ZM21.661,3.258H50.339L63.887,12.29H44.068l-7.4-5.427a1.129,1.129,0,0,0-1.335,0l-7.4,5.427H8.113Zm-18.4,11.29H24.853l-3.079,2.258H3.258ZM13.419,50.677H4.387a1.129,1.129,0,0,1-1.129-1.129A2.258,2.258,0,0,1,5.483,47.29h0c.029,0,.149.018.177.019a1.1,1.1,0,0,0,.973-.452A1.129,1.129,0,0,0,6.79,45.8a2.009,2.009,0,0,1,.13-1.769,2.362,2.362,0,0,1,1.514-1.2,2.178,2.178,0,0,1,1.6.266,1.129,1.129,0,0,0,1.136,0,2.164,2.164,0,0,1,1.626-.257A2.316,2.316,0,0,1,14.511,44.6a2.23,2.23,0,0,1-.548,1.934,1.129,1.129,0,0,0,0,1.511,2.234,2.234,0,0,1,.585,1.5A1.129,1.129,0,0,1,13.419,50.677Zm3.222-4.516a4.5,4.5,0,0,0,.086-1.976,4.575,4.575,0,0,0-3.421-3.556,4.374,4.374,0,0,0-2.71.226,4.394,4.394,0,0,0-2.643-.238,4.534,4.534,0,0,0-2.438,1.5V19.065H18.694l-.3.218a1.129,1.129,0,0,0-.462.911h0V46.161Zm3.552,4.516V25.839h2.258V50.677Zm22.581-4.516H40.516V37.129a4.516,4.516,0,1,0-9.032,0v9.032H29.226V37.129a6.774,6.774,0,0,1,13.548,0Zm-4.516,0H33.742V37.129a2.258,2.258,0,0,1,4.516,0ZM68.5,68.742H57.265c-1.489-4.4-11.656-6.774-21.265-6.774s-19.776,2.371-21.265,6.774H3.5C5.386,64.264,18.206,59.71,36,59.71S66.614,64.264,68.5,68.742ZM44.628,57.79c-2.685-.218-5.557-.339-8.628-.339s-5.943.121-8.628.339l3.747-9.371h9.762Zm.4-11.629V37.129a9.032,9.032,0,1,0-18.065,0v9.032H24.71V25.839H47.29V46.161Zm4.516,4.516V25.839h2.258V50.677Zm18.065,0H58.581a1.129,1.129,0,0,1-1.129-1.129,2.234,2.234,0,0,1,.588-1.5,1.129,1.129,0,0,0,0-1.511,2.23,2.23,0,0,1-.548-1.934,2.316,2.316,0,0,1,1.717-1.768,2.184,2.184,0,0,1,.5-.059,2.219,2.219,0,0,1,1.129.316,1.129,1.129,0,0,0,1.136,0,2.167,2.167,0,0,1,1.594-.265,2.362,2.362,0,0,1,1.514,1.2,2.009,2.009,0,0,1,.13,1.769,1.129,1.129,0,0,0,.157,1.061,1.1,1.1,0,0,0,.973.452c.028,0,.113-.016.145-.019a2.258,2.258,0,0,1,2.258,2.258,1.129,1.129,0,0,1-1.132,1.128Zm-1.129-8.564a4.534,4.534,0,0,0-2.438-1.495,4.378,4.378,0,0,0-2.643.236,4.366,4.366,0,0,0-2.71-.226,4.575,4.575,0,0,0-3.421,3.556,4.5,4.5,0,0,0,.086,1.976H54.065V20.194h0a1.129,1.129,0,0,0-.462-.911l-.3-.218H66.484Z" transform="translate(0)" fill="url(#linear-gradient)"/>
    <path id="Path_8989" data-name="Path 8989" d="M10.387,19A3.387,3.387,0,0,0,7,22.387v6.774A1.129,1.129,0,0,0,8.129,30.29h4.516a1.129,1.129,0,0,0,1.129-1.129V22.387A3.387,3.387,0,0,0,10.387,19Zm1.129,9.032H9.258V22.387a1.129,1.129,0,1,1,2.258,0Z" transform="translate(0.774 2.323)" fill="url(#linear-gradient)"/>
    <path id="Path_8990" data-name="Path 8990" d="M52.129,30.29h4.516a1.129,1.129,0,0,0,1.129-1.129V22.387a3.387,3.387,0,1,0-6.774,0v6.774A1.129,1.129,0,0,0,52.129,30.29Zm1.129-7.9a1.129,1.129,0,1,1,2.258,0v5.645H53.258Z" transform="translate(6.452 2.323)" fill="url(#linear-gradient)"/>
  </g>
</svg>
