<svg xmlns="http://www.w3.org/2000/svg" width="23.995" height="23.995" viewBox="0 0 23.995 23.995">
  <path id="_002-linkedin" data-name="002-linkedin" d="M12,0A12,12,0,1,0,24,12,12,12,0,0,0,12,0ZM8.511,18.137H5.589V9.346H8.511ZM7.05,8.146H7.031A1.523,1.523,0,1,1,7.07,5.108,1.523,1.523,0,1,1,7.05,8.146Zm12,9.991H16.126v-4.7c0-1.182-.423-1.988-1.48-1.988a1.6,1.6,0,0,0-1.5,1.069,2,2,0,0,0-.1.713v4.909H10.128s.038-7.966,0-8.791H13.05v1.245A2.9,2.9,0,0,1,15.683,9.14c1.922,0,3.364,1.256,3.364,3.956Zm0,0" fill="#b8b5c3" opacity="0.7"/>
</svg>
