<svg xmlns="http://www.w3.org/2000/svg" width="10.5" height="14" viewBox="0 0 10.5 14"><defs><style>.a{fill:#707070;}</style></defs><path class="a" d="M0-12.25A5.265,5.265,0,0,0-5.25-7c0,2.1.7,2.713,4.725,8.488A.652.652,0,0,0,0,1.75a.652.652,0,0,0,.525-.262C4.55-4.287,5.25-4.9,5.25-7A5.265,5.265,0,0,0,0-12.25ZM0-.052c-.394-.562-.752-1.07-1.078-1.531C-3.655-5.237-3.937-5.682-3.937-7A3.942,3.942,0,0,1,0-10.937,3.942,3.942,0,0,1,3.938-7c0,1.318-.283,1.763-2.86,5.417C.752-1.122.394-.614,0-.052ZM2.732-8.045,2.1-8.685a.27.27,0,0,0-.382,0L-.673-6.317-1.709-7.361a.27.27,0,0,0-.382,0l-.64.635a.27.27,0,0,0,0,.382L-.872-4.47a.27.27,0,0,0,.382,0L2.731-7.663A.27.27,0,0,0,2.732-8.045Z" transform="translate(5.25 12.25)"/></svg>