<svg xmlns="http://www.w3.org/2000/svg" xmlns:xlink="http://www.w3.org/1999/xlink" width="223.207" height="25" viewBox="0 0 223.207 25">
  <defs>
    <linearGradient id="linear-gradient" x1="-0.438" y1="1.131" x2="8.054" y2="-4.62" gradientUnits="objectBoundingBox">
      <stop offset="0" stop-color="#0069f7"/>
      <stop offset="0.12" stop-color="#3d5ef9"/>
      <stop offset="0.25" stop-color="#7753fc"/>
      <stop offset="0.36" stop-color="#a24cfe"/>
      <stop offset="0.44" stop-color="#bc47ff"/>
      <stop offset="0.49" stop-color="#c645ff"/>
    </linearGradient>
    <linearGradient id="linear-gradient-2" x1="-1.409" y1="1.736" x2="7.361" y2="-4.014" xlink:href="#linear-gradient"/>
    <linearGradient id="linear-gradient-3" x1="-1.705" y1="2.446" x2="5.326" y2="-3.305" xlink:href="#linear-gradient"/>
    <linearGradient id="linear-gradient-4" x1="-3.536" y1="2.93" x2="5.952" y2="-2.82" xlink:href="#linear-gradient"/>
    <linearGradient id="linear-gradient-5" x1="1.814" y1="1" x2="-0.47" y2="0.5" gradientUnits="objectBoundingBox">
      <stop offset="0" stop-color="#120638"/>
      <stop offset="0.112" stop-color="#373a3f"/>
      <stop offset="0.37" stop-color="#373a3f"/>
      <stop offset="0.627" stop-color="#a24cfe"/>
      <stop offset="0.802" stop-color="#bc47ff"/>
      <stop offset="0.892" stop-color="#c645ff"/>
      <stop offset="1" stop-color="#c645ff"/>
    </linearGradient>
    <linearGradient id="linear-gradient-7" x1="1.574" y1="0.909" x2="-0.351" y2="0.5" xlink:href="#linear-gradient-5"/>
  </defs>
  <g id="Group_17721" data-name="Group 17721" transform="translate(-187.054 -412.654)">
    <g id="Group_16207" data-name="Group 16207" transform="translate(187.054 416.345)">
      <path id="Path_1" data-name="Path 1" d="M180.741,177.863H188.3v5.425h-7.915c-3.446,0-5.944-2.735-5.944-6.395a5.919,5.919,0,0,1,5.944-6.28h9.168V168.32h-9.168c-4.76,0-8.251,3.377-8.251,8.465s3.492,8.824,8.251,8.824h10.246v-9.894h-10.65Z" transform="translate(-53.204 -168.213)" fill="#120638"/>
      <path id="Path_2" data-name="Path 2" d="M151.947,15.1V9.688h11.46l.764-2.139H151.947V2.43h12.484l-.764-2.3H149.64V17.412h14.432l.764-2.307Z" transform="translate(-9.245 -0.031)" fill="#120638"/>
      <path id="Path_3" data-name="Path 3" d="M238.1,181.994l-13.088-13.386a1.077,1.077,0,0,0-.986-.336H221.8l.909,2.376v14.914h2.208V171.748l13.034,13.432a1.742,1.742,0,0,0,1.192.6c.665,0,1.161-.52,1.161-1.406V168.18H238.1Z" transform="translate(-64.925 -168.18)" fill="#120638"/>
      <rect id="Rectangle_1" data-name="Rectangle 1" width="2.307" height="17.29" transform="translate(178.787 0.092)" fill="#120638"/>
      <path id="Path_4" data-name="Path 4" d="M274.016,177.957c0,3.9-1.757,5.585-6.876,5.585s-6.876-1.688-6.876-5.585V168.3H257.88v9.657c0,5.348,2.621,7.87,9.168,7.87s9.168-2.521,9.168-7.87V168.3h-2.292Z" transform="translate(-73.439 -168.208)" fill="#120638"/>
      <path id="Path_5" data-name="Path 5" d="M297.846,175.713h-8.06a2.414,2.414,0,0,1-2.666-2.544,2.445,2.445,0,0,1,2.689-2.567h11.575l.764-2.292H289.809c-3.308,0-5.088,2.025-5.088,4.737a4.71,4.71,0,0,0,5.043,4.821h8.083c1.9,0,2.949.909,2.949,2.689a2.623,2.623,0,0,1-2.949,2.735H284.98v2.292h12.866c3.446,0,5.134-2.116,5.134-4.943C302.98,177.387,301.2,175.713,297.846,175.713Z" transform="translate(-79.773 -168.211)" fill="#120638"/>
      <g id="Group_16299" data-name="Group 16299" transform="translate(0 0.321)">
        <path id="Path_6" data-name="Path 6" d="M70.6,172.94c0-2.926-1.436-4.34-4.164-4.34H50.59v17.061h5.119v-5.218h2.613a26.884,26.884,0,0,0,3.308-.168l3.194,5.386h5.509l-3.919-6.609C68.919,177.906,70.6,176.011,70.6,172.94ZM62.96,176.2a16.435,16.435,0,0,1-4.439.443H55.694v-4h8.962c.588,0,.764.244.764.764a2.956,2.956,0,0,1-2.445,2.8Z" transform="translate(-50.59 -168.6)" fill="url(#linear-gradient)"/>
        <path id="Path_7" data-name="Path 7" d="M36.889,10.78H49.4l.848-3.66H36.889v-2.8H50.878l-.9-3.9H31.77V17.481H50.244l.9-3.9H36.889Z" transform="translate(-7.497 -0.42)" fill="url(#linear-gradient-2)"/>
        <path id="Path_8" data-name="Path 8" d="M118.442,168.6l.764,1.314L110,185.661h5.5l1.612-2.758h9.932l1.612,2.758h5.509L124.1,168.6Zm.833,10.551,2.781-4.8,2.773,4.8Z" transform="translate(-64.609 -168.6)" fill="url(#linear-gradient-3)"/>
        <path id="Path_9" data-name="Path 9" d="M99.729.42H94.61V17.481h16.961l.947-4.1H99.729Z" transform="translate(-22.326 -0.42)" fill="url(#linear-gradient-4)"/>
      </g>
    </g>
    <g id="Group_16381" data-name="Group 16381" transform="translate(282.718 412.654)">
      <g id="Group_16209" data-name="Group 16209" transform="translate(5.148 20.302)">
        <path id="Path_10311" data-name="Path 10311" d="M190.442,426.671a19.524,19.524,0,0,1-3.47.365,18.587,18.587,0,0,1-3.418-.365l.269,1.724a13.955,13.955,0,0,0,3.134.365,15.226,15.226,0,0,0,3.217-.365Z" transform="translate(-183.554 -426.671)" fill="url(#linear-gradient-5)"/>
        <path id="Path_10313" data-name="Path 10313" d="M220.212,480a21.125,21.125,0,0,1-2.335.146,23.4,23.4,0,0,1-2.408-.146l.739,1.724a6.555,6.555,0,0,0,1.669.146,5.541,5.541,0,0,0,1.6-.146Z" transform="translate(-214.396 -477.176)" fill="url(#linear-gradient-5)"/>
      </g>
      <path id="Path_10342" data-name="Path 10342" d="M8.788,19.564a15.989,15.989,0,0,1-3.548-.489L14.207,8.85a.552.552,0,0,0,.1-.474.4.4,0,0,0-.244-.289l-3.041-.646,3.477-4.9.136.141a9.033,9.033,0,0,1,1.9,3.131v0a8.416,8.416,0,0,1,.628,3.777A8.722,8.722,0,0,1,15.9,13.366c-.316.548-.724,1.123-1.2,1.788l-.01.015c-.168.236-.307.427-.423.587l0,0a7.373,7.373,0,0,0-.717,1.1l-.086.169a6.382,6.382,0,0,0-.629,1.557c-.027.145-.052.289-.055.3l-.012,0c-.252.084-.472.154-.621.2l-.125.037A9.856,9.856,0,0,1,8.788,19.564ZM4.044,17.929h0a6.9,6.9,0,0,0-.411-1.075,6.085,6.085,0,0,0-.68-1.055l0,0-.063-.085c-.115-.155-.245-.331-.39-.538-.529-.746-.936-1.352-1.21-1.8A8.713,8.713,0,0,1,.024,9.591,8.369,8.369,0,0,1,.651,5.815v0a9.035,9.035,0,0,1,1.9-3.133A8.163,8.163,0,0,1,10.185.156c.141.028.284.061.423.1L4.687,9.962a.552.552,0,0,0-.092.434.264.264,0,0,0,.237.246l3.063.651-3.85,6.635Z" transform="translate(0 0)" fill="url(#linear-gradient-7)"/>
    </g>
  </g>
</svg>
