<svg id="Group_14361" data-name="Group 14361" xmlns="http://www.w3.org/2000/svg" xmlns:xlink="http://www.w3.org/1999/xlink" width="46.514" height="40" viewBox="0 0 46.514 40">
  <defs>
    <linearGradient id="linear-gradient" x1="0.5" x2="0.5" y2="1" gradientUnits="objectBoundingBox">
      <stop offset="0" stop-color="#0468f7"/>
      <stop offset="1" stop-color="#c645ff"/>
    </linearGradient>
    <clipPath id="clip-path">
      <rect id="Rectangle_4100" data-name="Rectangle 4100" width="46.514" height="40" fill="url(#linear-gradient)"/>
    </clipPath>
  </defs>
  <g id="Group_14360" data-name="Group 14360" clip-path="url(#clip-path)">
    <path id="Path_9266" data-name="Path 9266" d="M0,15.085a5.116,5.116,0,0,1,1.164-.941q17.488-7,35-13.958c.924-.368,1.278-.213,1.645.707l8.509,21.36c.389.977.243,1.324-.728,1.712-1.67.668-3.338,1.34-5.014,1.992a.528.528,0,0,0-.4.585q.019,6.11.008,12.221c0,.963-.272,1.231-1.247,1.231q-18.85,0-37.7.009A1.221,1.221,0,0,1,0,39.351V15.085m38.337,1.2H1.846V38.142H38.337ZM5.594,14.327l.03.1c1.7,0,3.391,0,5.086-.006a.858.858,0,0,0,.4-.143,5.626,5.626,0,0,1,.672-.434q4.038-1.626,8.086-3.226,5.246-2.084,10.5-4.161a.92.92,0,0,1,1.24.332,5.382,5.382,0,0,0,4.491,1.955c.67-.027.914.1,1.164.705.627,1.523,1.229,3.057,1.852,4.582a.751.751,0,0,0,.308.4c.634.275.762.43.763,1.116q0,4.021,0,8.041v.566l4.247-1.695L36.317,2.092Zm31.663.082c-.048-.148-.081-.276-.129-.4-.4-1.012-.819-2.018-1.2-3.037a.564.564,0,0,0-.59-.419,6.962,6.962,0,0,1-4.522-1.962.532.532,0,0,0-.67-.12q-7.136,2.859-14.278,5.7c-.133.053-.262.115-.392.173l.018.062Z" transform="translate(0 0)" fill="url(#linear-gradient)"/>
    <path id="Path_9267" data-name="Path 9267" d="M40.447,118.554q5.314,0,10.629,0c1.126,0,1.18.05,1.591,1.08A5.388,5.388,0,0,0,56,122.826c.658.236.835.437.838,1.119q.014,3.748,0,7.5c0,.666-.187.874-.852,1.111a5.377,5.377,0,0,0-3.405,3.408c-.26.727-.411.856-1.182.856q-11.014,0-22.029,0a.949.949,0,0,1-1.107-.79,5.39,5.39,0,0,0-3.493-3.491.932.932,0,0,1-.781-1.069q-.022-3.747,0-7.495c0-.733.169-.9.862-1.148a5.4,5.4,0,0,0,3.383-3.374c.263-.726.445-.881,1.227-.883q5.5-.011,10.992,0Zm0,16.446q5.064,0,10.129.005a.528.528,0,0,0,.58-.352,7.022,7.022,0,0,1,3.555-3.541.47.47,0,0,0,.321-.508q-.015-2.907,0-5.815a.5.5,0,0,0-.338-.542,7.06,7.06,0,0,1-3.549-3.548.469.469,0,0,0-.5-.327q-10.242.011-20.485,0a.44.44,0,0,0-.478.3,7.079,7.079,0,0,1-3.57,3.587.475.475,0,0,0-.329.5q.018,2.907,0,5.815a.507.507,0,0,0,.349.541,7,7,0,0,1,3.5,3.476.625.625,0,0,0,.686.412C33.7,135,37.072,135,40.448,135" transform="translate(-20.319 -100.478)" fill="url(#linear-gradient)"/>
    <path id="Path_9268" data-name="Path 9268" d="M106.834,147.952a5.472,5.472,0,1,1-5.483-5.482,5.49,5.49,0,0,1,5.483,5.482M105,147.94a3.645,3.645,0,1,0-3.653,3.666A3.647,3.647,0,0,0,105,147.94" transform="translate(-81.27 -120.747)" fill="url(#linear-gradient)"/>
    <path id="Path_9269" data-name="Path 9269" d="M58.287,172.16a1.366,1.366,0,0,1-1.353-1.365,1.385,1.385,0,0,1,1.356-1.37,1.4,1.4,0,0,1,1.381,1.4,1.372,1.372,0,0,1-1.384,1.338m-.1-.855.206.009c.117-.175.333-.356.323-.524a.619.619,0,0,0-.408-.423.362.362,0,0,0-.438.435c.028.18.206.336.317.5" transform="translate(-48.253 -143.592)" fill="url(#linear-gradient)"/>
    <path id="Path_9270" data-name="Path 9270" d="M188.751,170.816a1.371,1.371,0,0,1,1.33-1.391,1.4,1.4,0,0,1,1.4,1.375,1.376,1.376,0,0,1-1.365,1.358,1.353,1.353,0,0,1-1.369-1.343m1.472-.536-.2,0c-.119.164-.3.313-.34.494a.352.352,0,0,0,.416.449c.172-.032.422-.248.433-.4.013-.173-.2-.362-.311-.543" transform="translate(-159.971 -143.592)" fill="url(#linear-gradient)"/>
  </g>
</svg>
