<svg id="Group_14363" data-name="Group 14363" xmlns="http://www.w3.org/2000/svg" xmlns:xlink="http://www.w3.org/1999/xlink" width="33.644" height="40" viewBox="0 0 33.644 40">
  <defs>
    <linearGradient id="linear-gradient" x1="0.5" x2="0.5" y2="1" gradientUnits="objectBoundingBox">
      <stop offset="0" stop-color="#0468f7"/>
      <stop offset="1" stop-color="#c645ff"/>
    </linearGradient>
    <clipPath id="clip-path">
      <rect id="Rectangle_4101" data-name="Rectangle 4101" width="33.644" height="40" fill="url(#linear-gradient)"/>
    </clipPath>
  </defs>
  <g id="Group_14362" data-name="Group 14362" clip-path="url(#clip-path)">
    <path id="Path_9271" data-name="Path 9271" d="M31.342,35.084c-.156,0-.312,0-.469-.007a17.9,17.9,0,0,1-8.6-2.365,18.449,18.449,0,0,1-9.606-15.044,17.991,17.991,0,0,1,1.609-9.121,18.669,18.669,0,0,1,5.876-7.317c.6-.45.6-.793.028-1.228H18.852a2.082,2.082,0,0,1-.3.066A19.1,19.1,0,0,0,8.957,3.345,19.562,19.562,0,0,0,.044,18.911a18.876,18.876,0,0,0,3.274,12.1,19.6,19.6,0,0,0,16.089,8.974A19.224,19.224,0,0,0,27.6,38.5a20.434,20.434,0,0,0,4.085-2.266.609.609,0,0,0-.343-1.146" transform="translate(0 -0.001)" fill="url(#linear-gradient)"/>
    <path id="Path_9272" data-name="Path 9272" d="M136.4,40.695c.492.589,1,1.162,1.482,1.763a.891.891,0,0,1,.173.553c-.041.805-.117,1.609-.186,2.478-.016.519.372.8.924.581.749-.3,1.488-.62,2.242-.9a.953.953,0,0,1,.612.005c.706.261,1.4.564,2.1.847.681.275,1.045.023,1-.7-.046-.753-.1-1.506-.169-2.257a.815.815,0,0,1,.217-.669q.789-.892,1.542-1.815a.584.584,0,0,0-.35-1.025c-.781-.2-1.567-.375-2.343-.591a.9.9,0,0,1-.471-.338c-.431-.65-.825-1.324-1.241-1.985-.367-.583-.834-.579-1.2.009-.415.661-.81,1.335-1.24,1.985a.9.9,0,0,1-.469.341c-.738.206-1.488.369-2.231.559-.708.181-.849.606-.386,1.16" transform="translate(-118.224 -31.443)" fill="url(#linear-gradient)"/>
    <path id="Path_9273" data-name="Path 9273" d="M149.4,164.989a2.322,2.322,0,0,0,.332-.383c.38-.476.246-1.013-.35-1.08a2.677,2.677,0,0,1-2.327-1.682c-.244-.535-.774-.509-1.106-.016-.232.345-.425.717-.671,1.051a1.008,1.008,0,0,1-.471.34c-.419.135-.86.2-1.281.331a.586.586,0,0,0-.309.982,1.893,1.893,0,0,0,.224.269,1.946,1.946,0,0,1,.737,2.2c0,.052-.006.1-.01.156-.057.825.329,1.147,1.045.753a2.54,2.54,0,0,1,2.654.018c.621.337,1.039-.01.985-.72a2.635,2.635,0,0,0-.04-.349,1.733,1.733,0,0,1,.588-1.872" transform="translate(-124.236 -140.211)" fill="url(#linear-gradient)"/>
    <path id="Path_9274" data-name="Path 9274" d="M217.048,123.821a2.135,2.135,0,0,1-1.775-1.277.582.582,0,0,0-1.114.014,2.042,2.042,0,0,1-1.763,1.281.536.536,0,0,0-.518.652,1.3,1.3,0,0,0,.326.56c.464.465.8.956.6,1.431-.2,1.009.289,1.5,1.073,1.023a1.847,1.847,0,0,1,1.891.053c.611.279,1.074-.028.953-.673a2.019,2.019,0,0,1,.655-1.973c.453-.445.29-1.007-.328-1.092" transform="translate(-183.99 -106.069)" fill="url(#linear-gradient)"/>
  </g>
</svg>
