<svg xmlns="http://www.w3.org/2000/svg" xmlns:xlink="http://www.w3.org/1999/xlink" width="32.808" height="45.6" viewBox="0 0 32.808 45.6">
  <defs>
    <linearGradient id="linear-gradient" x1="0.5" x2="0.5" y2="1.406" gradientUnits="objectBoundingBox">
      <stop offset="0" stop-color="#0468f7"/>
      <stop offset="1" stop-color="#c645ff"/>
    </linearGradient>
  </defs>
  <g id="Group_730" data-name="Group 730" transform="translate(-1.011 -0.927)">
    <path id="Path_261" data-name="Path 261" d="M126.592,51.888a13.2,13.2,0,0,1-.09,1.726,5.27,5.27,0,0,1-.284,1.158,1.439,1.439,0,0,1-.49.638,1.261,1.261,0,0,1-.684.189H96.918a6.289,6.289,0,0,1-1.432-.142,1.929,1.929,0,0,1-.98-.532,2.416,2.416,0,0,1-.555-1.158,9.217,9.217,0,0,1-.168-1.974,14.147,14.147,0,0,1,.116-1.962,4.889,4.889,0,0,1,.413-1.454,7.135,7.135,0,0,1,.774-1.241A11.744,11.744,0,0,1,96.325,45.8l8.473-8.3a41.4,41.4,0,0,0,4.088-4.42,25.292,25.292,0,0,0,2.424-3.64,12.964,12.964,0,0,0,1.186-3.026,11.427,11.427,0,0,0,.322-2.636,5.828,5.828,0,0,0-.4-2.163,4.974,4.974,0,0,0-1.174-1.773,5.436,5.436,0,0,0-1.947-1.194,8.009,8.009,0,0,0-2.76-.426,13.8,13.8,0,0,0-3.946.52A19.437,19.437,0,0,0,99.574,19.9c-.877.437-1.6.827-2.179,1.182a2.851,2.851,0,0,1-1.354.544.881.881,0,0,1-.593-.213,1.4,1.4,0,0,1-.4-.686A8.8,8.8,0,0,1,94.8,19.42a17.4,17.4,0,0,1-.09-1.986,13.352,13.352,0,0,1,.052-1.347,5.6,5.6,0,0,1,.181-.934,2.336,2.336,0,0,1,.3-.7,4.492,4.492,0,0,1,.658-.709,9.848,9.848,0,0,1,1.741-1.052,21.2,21.2,0,0,1,3.121-1.253,33.352,33.352,0,0,1,4.088-1.028A25.707,25.707,0,0,1,109.492,10a22.607,22.607,0,0,1,6.68.887,13.7,13.7,0,0,1,4.746,2.458,9.856,9.856,0,0,1,2.811,3.735,11.666,11.666,0,0,1,.929,4.657,20.742,20.742,0,0,1-.451,4.291,15.861,15.861,0,0,1-1.9,4.562,36.271,36.271,0,0,1-4.049,5.4,90.775,90.775,0,0,1-6.925,6.879l-5.713,5.354H124.89a1.2,1.2,0,0,1,.7.213,1.538,1.538,0,0,1,.555.638,3.639,3.639,0,0,1,.335,1.135,10.608,10.608,0,0,1,.116,1.678Z" transform="translate(-92.773 -9.073)" fill="url(#linear-gradient)"/>
  </g>
</svg>
