<svg xmlns="http://www.w3.org/2000/svg" xmlns:xlink="http://www.w3.org/1999/xlink" width="33.013" height="49.469" viewBox="0 0 33.013 49.469">
  <defs>
    <linearGradient id="linear-gradient" x1="0.5" x2="0.5" y2="1.406" gradientUnits="objectBoundingBox">
      <stop offset="0" stop-color="#0468f7"/>
      <stop offset="1" stop-color="#c645ff"/>
    </linearGradient>
  </defs>
  <g id="Group_729" data-name="Group 729" transform="translate(-1.097 -1.005)">
    <path id="Path_258" data-name="Path 258" d="M138.55,55.671a10.8,10.8,0,0,1-.127,1.8,3.952,3.952,0,0,1-.354,1.18,1.47,1.47,0,0,1-.509.622,1.2,1.2,0,0,1-.665.194H107.234a1.131,1.131,0,0,1-.622-.194,1.581,1.581,0,0,1-.509-.622,3.953,3.953,0,0,1-.354-1.18,10.787,10.787,0,0,1-.127-1.8,13.661,13.661,0,0,1,.1-1.841,3.9,3.9,0,0,1,.339-1.193,1.837,1.837,0,0,1,.523-.661,1.044,1.044,0,0,1,.651-.207h10.014V19.8l-8.614,4.356a6.99,6.99,0,0,1-1.542.519,1.123,1.123,0,0,1-.962-.233,1.952,1.952,0,0,1-.467-1.115,15.158,15.158,0,0,1-.127-2.243c0-.609.014-1.115.042-1.5a3.242,3.242,0,0,1,.212-1,1.64,1.64,0,0,1,.453-.687,4.909,4.909,0,0,1,.778-.57l11.514-6.832a1.793,1.793,0,0,1,.509-.246,4.678,4.678,0,0,1,.82-.156c.325-.039.764-.065,1.3-.078S122.4,10,123.26,10c1.047,0,1.9.013,2.546.052a7.622,7.622,0,0,1,1.471.194,1.157,1.157,0,0,1,.665.363.926.926,0,0,1,.17.57V51.769h8.77a1.2,1.2,0,0,1,.693.207,1.721,1.721,0,0,1,.537.661,3.9,3.9,0,0,1,.34,1.193A13.68,13.68,0,0,1,138.55,55.671Z" transform="translate(-104.44 -8.995)" fill="url(#linear-gradient)"/>
  </g>
</svg>
