<svg xmlns="http://www.w3.org/2000/svg" xmlns:xlink="http://www.w3.org/1999/xlink" width="34.74" height="48.923" viewBox="0 0 34.74 48.923">
  <defs>
    <linearGradient id="linear-gradient" x1="0.5" x2="0.5" y2="1.406" gradientUnits="objectBoundingBox">
      <stop offset="0" stop-color="#0468f7"/>
      <stop offset="1" stop-color="#c645ff"/>
    </linearGradient>
  </defs>
  <path id="Path_264" data-name="Path 264" d="M131.006,43.575a12.774,12.774,0,0,1-1.439,6.143,13.1,13.1,0,0,1-4.024,4.494,19.183,19.183,0,0,1-6.156,2.772,31.139,31.139,0,0,1-7.849.94,32.057,32.057,0,0,1-4.837-.342,30.882,30.882,0,0,1-4-.855,17.938,17.938,0,0,1-2.865-1.05,9.445,9.445,0,0,1-1.479-.818,1.916,1.916,0,0,1-.533-.647,6.192,6.192,0,0,1-.306-.83,6.482,6.482,0,0,1-.2-1.221c-.04-.476-.053-1.075-.053-1.759a6.387,6.387,0,0,1,.307-2.369,1.02,1.02,0,0,1,.946-.66,3.78,3.78,0,0,1,1.346.476,25.891,25.891,0,0,0,2.439,1.026,30.158,30.158,0,0,0,3.478,1.026,19.585,19.585,0,0,0,4.531.476,14.124,14.124,0,0,0,3.784-.464,8.95,8.95,0,0,0,2.8-1.295,5.5,5.5,0,0,0,1.719-2.027,6.179,6.179,0,0,0,.56-2.65,5.8,5.8,0,0,0-2.718-5.068,10.213,10.213,0,0,0-3.4-1.4,20.662,20.662,0,0,0-4.824-.5h-4.371a2.564,2.564,0,0,1-.866-.122,1.17,1.17,0,0,1-.586-.525,3.124,3.124,0,0,1-.333-1.087,13.237,13.237,0,0,1-.093-1.8,11.82,11.82,0,0,1,.093-1.7,2.7,2.7,0,0,1,.32-1.014,1.075,1.075,0,0,1,.533-.5,2.008,2.008,0,0,1,.8-.147h4.4a14.663,14.663,0,0,0,4-.488,8.6,8.6,0,0,0,2.945-1.38,5.969,5.969,0,0,0,1.8-2.174,6.326,6.326,0,0,0,.626-2.821,5.986,5.986,0,0,0-.426-2.235,5.065,5.065,0,0,0-1.266-1.832,5.928,5.928,0,0,0-2.159-1.221,9.535,9.535,0,0,0-3.118-.452,12.566,12.566,0,0,0-3.811.562,24.857,24.857,0,0,0-3.211,1.209c-.946.452-1.746.867-2.412,1.246a3.522,3.522,0,0,1-1.466.574,1.062,1.062,0,0,1-.533-.122.953.953,0,0,1-.4-.488,4.447,4.447,0,0,1-.227-1.038,16,16,0,0,1-.08-1.771c0-.6.013-1.087.04-1.49a4.62,4.62,0,0,1,.16-.989,3.042,3.042,0,0,1,.293-.684,3.03,3.03,0,0,1,.56-.623,11.393,11.393,0,0,1,1.6-1.014,20.034,20.034,0,0,1,3.038-1.319,30.161,30.161,0,0,1,4.237-1.087,28.9,28.9,0,0,1,5.21-.44,24.282,24.282,0,0,1,6.489.794,13.9,13.9,0,0,1,4.757,2.272,9.588,9.588,0,0,1,2.918,3.652,11.593,11.593,0,0,1,1,4.9,12.889,12.889,0,0,1-.586,3.933,10.03,10.03,0,0,1-1.719,3.261,9.881,9.881,0,0,1-2.825,2.443,13.3,13.3,0,0,1-3.918,1.5v.11a15.771,15.771,0,0,1,4.77,1.233,12.08,12.08,0,0,1,3.571,2.369A10.051,10.051,0,0,1,130.22,39.7a9.637,9.637,0,0,1,.786,3.871Z" transform="translate(-96.766 -9.502)" stroke="rgba(0,0,0,0)" stroke-width="1" fill="url(#linear-gradient)"/>
</svg>
