<svg xmlns="http://www.w3.org/2000/svg" xmlns:xlink="http://www.w3.org/1999/xlink" width="79.872" height="79.988" viewBox="0 0 79.872 79.988">
  <defs>
    <linearGradient id="linear-gradient" x1="0.5" x2="0.5" y2="1" gradientUnits="objectBoundingBox">
      <stop offset="0" stop-color="#0468f7"/>
      <stop offset="1" stop-color="#c645ff"/>
    </linearGradient>
  </defs>
  <g id="phone-call_2_" data-name="phone-call (2)" transform="translate(-0.344 0)">
    <g id="Group_17249" data-name="Group 17249" transform="translate(0.344 0)">
      <path id="Path_10812" data-name="Path 10812" d="M63.5,72.329A7.867,7.867,0,0,0,57.8,69.712a8.135,8.135,0,0,0-5.774,2.6L46.688,77.63c-.439-.236-.878-.456-1.3-.675-.608-.3-1.182-.591-1.671-.895A57.981,57.981,0,0,1,29.822,63.4a34.206,34.206,0,0,1-4.558-7.192c1.384-1.266,2.667-2.583,3.917-3.849.473-.473.945-.962,1.418-1.435,3.545-3.545,3.545-8.137,0-11.682L25.99,34.632c-.523-.523-1.064-1.064-1.57-1.6-1.013-1.047-2.076-2.127-3.174-3.14a7.991,7.991,0,0,0-5.655-2.482,8.269,8.269,0,0,0-5.74,2.482l-.034.034-5.74,5.791a12.351,12.351,0,0,0-3.663,7.85A29.594,29.594,0,0,0,2.575,56.089,72.689,72.689,0,0,0,15.49,77.63,79.445,79.445,0,0,0,41.944,98.344c3.883,1.84,9.066,4.018,14.856,4.389.355.017.726.034,1.064.034A12.721,12.721,0,0,0,67.6,98.581c.017-.034.051-.051.068-.084a38.378,38.378,0,0,1,2.954-3.056c.726-.692,1.469-1.418,2.195-2.178a8.422,8.422,0,0,0,2.549-5.841,8.113,8.113,0,0,0-2.6-5.791Zm6.044,17.777c-.017,0-.017.017,0,0-.658.709-1.334,1.351-2.06,2.06a44.391,44.391,0,0,0-3.258,3.376,8.138,8.138,0,0,1-6.348,2.684c-.253,0-.523,0-.777-.017-5.014-.321-9.673-2.279-13.168-3.95A74.991,74.991,0,0,1,19.018,74.743,68.538,68.538,0,0,1,6.863,54.5c-1.57-4.2-2.144-7.479-1.891-10.568A7.75,7.75,0,0,1,7.3,38.92l5.757-5.757a3.838,3.838,0,0,1,2.566-1.2,3.611,3.611,0,0,1,2.465,1.182l.051.051c1.03.962,2.009,1.958,3.039,3.022.523.54,1.064,1.08,1.6,1.638l4.609,4.609c1.789,1.789,1.789,3.444,0,5.233-.49.49-.962.979-1.452,1.452-1.418,1.452-2.769,2.8-4.237,4.119-.034.034-.068.051-.084.084a3.443,3.443,0,0,0-.878,3.832l.051.152a37,37,0,0,0,5.453,8.9l.017.017A61.963,61.963,0,0,0,41.252,79.892a23.052,23.052,0,0,0,2.076,1.131c.608.3,1.182.591,1.671.895.068.034.135.084.2.118a3.66,3.66,0,0,0,1.671.422,3.61,3.61,0,0,0,2.566-1.165l5.774-5.774a3.819,3.819,0,0,1,2.549-1.266,3.438,3.438,0,0,1,2.431,1.232l.034.034,9.3,9.3C71.268,86.544,71.268,88.316,69.546,90.106Z" transform="translate(-0.344 -22.779)" fill="url(#linear-gradient)"/>
      <path id="Path_10813" data-name="Path 10813" d="M246.82,90.446a21.727,21.727,0,0,1,17.692,17.692,2.265,2.265,0,0,0,2.245,1.891,3.012,3.012,0,0,0,.388-.034,2.281,2.281,0,0,0,1.874-2.634,26.272,26.272,0,0,0-21.406-21.406,2.291,2.291,0,0,0-2.634,1.857A2.254,2.254,0,0,0,246.82,90.446Z" transform="translate(-203.65 -71.419)" fill="url(#linear-gradient)"/>
      <path id="Path_10814" data-name="Path 10814" d="M286.672,35.285A43.259,43.259,0,0,0,251.423.035a2.276,2.276,0,1,0-.743,4.491,38.639,38.639,0,0,1,31.5,31.5,2.265,2.265,0,0,0,2.245,1.891,3.013,3.013,0,0,0,.388-.034A2.237,2.237,0,0,0,286.672,35.285Z" transform="translate(-206.835 0)" fill="url(#linear-gradient)"/>
    </g>
  </g>
</svg>
