<?xml version="1.0" standalone="no"?>
<!DOCTYPE svg PUBLIC "-//W3C//DTD SVG 20010904//EN"
 "http://www.w3.org/TR/2001/REC-SVG-20010904/DTD/svg10.dtd">
<svg version="1.0" xmlns="http://www.w3.org/2000/svg"
 width="1024.000000pt" height="1024.000000pt" viewBox="0 0 1024.000000 1024.000000"
 preserveAspectRatio="xMidYMid meet">
<metadata>
Created by potrace 1.14, written by Peter Selinger 2001-2017
</metadata>
<g transform="translate(0.000000,1024.000000) scale(0.100000,-0.100000)"
fill="#000000" stroke="none">
<path d="M4825 10230 c-801 -81 -1503 -410 -2061 -965 -244 -244 -423 -470
-584 -741 -130 -218 -201 -368 -315 -665 -142 -369 -205 -617 -246 -974 -20
-163 -17 -551 5 -704 61 -435 175 -798 370 -1176 153 -296 401 -668 896 -1345
134 -183 250 -411 328 -643 37 -113 40 -117 54 -95 31 49 1547 2664 1553 2679
5 12 -1 18 -22 21 -110 18 -1235 262 -1261 273 -57 26 -81 131 -48 209 8 18
559 927 1225 2020 667 1093 1214 1993 1217 2001 3 7 -3 16 -13 19 -42 13 -277
57 -383 71 -136 19 -580 28 -715 15z"/>
<path d="M7529 9183 c-36 -40 -1410 -1985 -1406 -1989 2 -3 172 -40 378 -84
206 -44 484 -103 618 -132 260 -56 290 -67 325 -127 27 -46 27 -142 0 -193
-17 -32 -476 -558 -2979 -3411 -390 -445 -711 -812 -713 -816 -3 -9 321 -82
494 -111 565 -97 1149 -120 1594 -65 255 32 512 92 856 200 l141 45 17 86 c39
199 128 427 272 699 106 199 180 314 371 577 578 796 798 1170 956 1634 144
420 204 841 178 1241 -31 460 -125 827 -343 1343 -156 368 -402 748 -685 1058
-55 61 -59 63 -74 45z"/>
<path d="M3710 1913 c0 -5 24 -160 53 -346 36 -224 58 -342 67 -347 15 -9 280
-61 430 -85 542 -84 1107 -84 1692 0 185 26 440 74 459 85 12 8 124 688 114
698 -3 3 -58 -4 -123 -16 -483 -88 -962 -128 -1417 -119 -376 8 -723 43 -1111
112 -152 27 -164 29 -164 18z"/>
<path d="M4154 753 c3 -10 70 -169 149 -353 l144 -335 54 -12 c196 -44 687
-67 934 -44 145 13 302 39 333 54 18 9 57 89 172 357 82 190 147 346 146 347
-1 1 -62 -4 -136 -12 -553 -57 -1277 -53 -1758 11 -39 5 -43 4 -38 -13z"/>
</g>
</svg>
