<?xml version="1.0" encoding="utf-8"?>
<!-- Generator: Adobe Illustrator 24.3.0, SVG Export Plug-In . SVG Version: 6.00 Build 0)  -->
<svg version="1.1" id="Layer_1" xmlns="http://www.w3.org/2000/svg" xmlns:xlink="http://www.w3.org/1999/xlink" x="0px" y="0px"
	 viewBox="0 0 27.1 26" style="enable-background:new 0 0 27.1 26;" xml:space="preserve">
<style type="text/css">
	.st0{fill:#FFC400;stroke:#FFA700;stroke-width:2;}
</style>
<path id="FontAwsome_star_" class="st0" d="M12.2,1.8L9.2,8L2.3,9C1.5,9.2,0.9,9.9,1,10.7c0,0.3,0.2,0.6,0.4,0.9l5,4.8l-1.2,6.8
	c-0.1,0.8,0.4,1.6,1.2,1.7c0.3,0.1,0.7,0,0.9-0.2l6.1-3.2l6.1,3.2c0.7,0.4,1.6,0.1,2-0.6c0.2-0.3,0.2-0.6,0.2-0.9l-1.2-6.8l5-4.8
	c0.6-0.6,0.6-1.5,0-2.1c-0.2-0.2-0.5-0.4-0.9-0.4L18,8l-3.1-6.2c-0.4-0.7-1.3-1-2-0.7C12.6,1.3,12.4,1.5,12.2,1.8z"/>
</svg>
