<svg xmlns="http://www.w3.org/2000/svg" width="27.117" height="26.029" viewBox="0 0 27.117 26.029">
  <path id="FontAwsome_star_" data-name="FontAwsome (star)" d="M31.692.822,28.631,7.028l-6.848,1a1.5,1.5,0,0,0-.83,2.559l4.954,4.828-1.172,6.819a1.5,1.5,0,0,0,2.175,1.579l6.126-3.22,6.126,3.22a1.5,1.5,0,0,0,2.175-1.579l-1.172-6.819,4.954-4.828a1.5,1.5,0,0,0-.83-2.559l-6.848-1L34.382.822a1.5,1.5,0,0,0-2.69,0Z" transform="translate(-19.479 1.013)" fill="#c645ff" stroke="#120638" stroke-width="2"/>
</svg>
