<svg xmlns="http://www.w3.org/2000/svg" width="73.117" height="26.029" viewBox="0 0 73.117 26.029">
  <g id="Group_702" data-name="Group 702" transform="translate(-939.442 -573)">
    <path id="FontAwsome_star_" data-name="FontAwsome (star)" d="M31.692.822,28.631,7.028l-6.848,1a1.5,1.5,0,0,0-.83,2.559l4.954,4.828-1.172,6.819a1.5,1.5,0,0,0,2.175,1.579l6.126-3.22,6.126,3.22a1.5,1.5,0,0,0,2.175-1.579l-1.172-6.819,4.954-4.828a1.5,1.5,0,0,0-.83-2.559l-6.848-1L34.382.822a1.5,1.5,0,0,0-2.69,0Z" transform="translate(919.963 574.013)" fill="#c645ff" stroke="#120638" stroke-width="2"/>
    <path id="FontAwsome_star_2" data-name="FontAwsome (star)" d="M31.692.822,28.631,7.028l-6.848,1a1.5,1.5,0,0,0-.83,2.559l4.954,4.828-1.172,6.819a1.5,1.5,0,0,0,2.175,1.579l6.126-3.22,6.126,3.22a1.5,1.5,0,0,0,2.175-1.579l-1.172-6.819,4.954-4.828a1.5,1.5,0,0,0-.83-2.559l-6.848-1L34.382.822a1.5,1.5,0,0,0-2.69,0Z" transform="translate(965.963 574.013)" fill="#c645ff" stroke="#120638" stroke-width="2"/>
  </g>
</svg>
