<svg xmlns="http://www.w3.org/2000/svg" width="99.734" height="93.384" viewBox="0 0 99.734 93.384">
  <g id="Group_700" data-name="Group 700" transform="translate(-414.119 -540.313)">
    <path id="FontAwsome_star_" data-name="FontAwsome (star)" d="M31.692.822,28.631,7.028l-6.848,1a1.5,1.5,0,0,0-.83,2.559l4.954,4.828-1.172,6.819a1.5,1.5,0,0,0,2.175,1.579l6.126-3.22,6.126,3.22a1.5,1.5,0,0,0,2.175-1.579l-1.172-6.819,4.954-4.828a1.5,1.5,0,0,0-.83-2.559l-6.848-1L34.382.822a1.5,1.5,0,0,0-2.69,0Z" transform="translate(430.965 522.355) rotate(70)" fill="#ffc400" stroke="#ffa700" stroke-width="2"/>
    <path id="FontAwsome_star_2" data-name="FontAwsome (star)" d="M31.692.822,28.631,7.028l-6.848,1a1.5,1.5,0,0,0-.83,2.559l4.954,4.828-1.172,6.819a1.5,1.5,0,0,0,2.175,1.579l6.126-3.22,6.126,3.22a1.5,1.5,0,0,0,2.175-1.579l-1.172-6.819,4.954-4.828a1.5,1.5,0,0,0-.83-2.559l-6.848-1L34.382.822a1.5,1.5,0,0,0-2.69,0Z" transform="translate(496.965 522.355) rotate(70)" fill="#ffc400" stroke="#ffa700" stroke-width="2"/>
    <path id="FontAwsome_star_3" data-name="FontAwsome (star)" d="M31.692.822,28.631,7.028l-6.848,1a1.5,1.5,0,0,0-.83,2.559l4.954,4.828-1.172,6.819a1.5,1.5,0,0,0,2.175,1.579l6.126-3.22,6.126,3.22a1.5,1.5,0,0,0,2.175-1.579l-1.172-6.819,4.954-4.828a1.5,1.5,0,0,0-.83-2.559l-6.848-1L34.382.822a1.5,1.5,0,0,0-2.69,0Z" transform="translate(496.965 581.355) rotate(70)" fill="#ffc400" stroke="#ffa700" stroke-width="2"/>
    <path id="FontAwsome_star_4" data-name="FontAwsome (star)" d="M31.692.822,28.631,7.028l-6.848,1a1.5,1.5,0,0,0-.83,2.559l4.954,4.828-1.172,6.819a1.5,1.5,0,0,0,2.175,1.579l6.126-3.22,6.126,3.22a1.5,1.5,0,0,0,2.175-1.579l-1.172-6.819,4.954-4.828a1.5,1.5,0,0,0-.83-2.559l-6.848-1L34.382.822a1.5,1.5,0,0,0-2.69,0Z" transform="translate(430.965 581.355) rotate(70)" fill="#ffc400" stroke="#ffa700" stroke-width="2"/>
  </g>
</svg>
