<svg xmlns="http://www.w3.org/2000/svg" xmlns:xlink="http://www.w3.org/1999/xlink" width="122.206" height="130" viewBox="0 0 122.206 130">
  <defs>
    <linearGradient id="linear-gradient" x1="1.117" y1="0.28" x2="-0.112" y2="0.827" gradientUnits="objectBoundingBox">
      <stop offset="0" stop-color="#0468f7"/>
      <stop offset="1" stop-color="#c645ff"/>
    </linearGradient>
    <linearGradient id="linear-gradient-9" x1="0.743" y1="1" x2="0.723" y2="0" xlink:href="#linear-gradient"/>
  </defs>
  <g id="loan" transform="translate(-15.348)">
    <path id="Path_5727" data-name="Path 5727" d="M135.015,0H75.7a2.539,2.539,0,0,0,0,5.078h56.78v113.5h-66.1v-4.849a2.528,2.528,0,0,0,1.8-.87l6.65-7.676a2.539,2.539,0,0,0-.257-3.582L48.687,79.182V5.078H79.156a2.539,2.539,0,1,0,0-5.078H46.147a2.539,2.539,0,0,0-2.539,2.539V77.883L16.224,101.6a2.539,2.539,0,0,0-.257,3.582l6.65,7.676a2.53,2.53,0,0,0,1.809.872v13.734A2.539,2.539,0,0,0,26.965,130H63.834a2.539,2.539,0,0,0,2.539-2.539v-3.809h68.641a2.539,2.539,0,0,0,2.539-2.539V2.539A2.539,2.539,0,0,0,135.015,0ZM21.469,103.774,45.4,83.052l23.929,20.722L66,107.612,47.06,91.208a2.539,2.539,0,0,0-3.324,0l-18.942,16.4Zm26.47,21.148H42.861v-8.957h5.078Zm5.078,0v-11.5a2.539,2.539,0,0,0-2.539-2.539H40.322a2.539,2.539,0,0,0-2.539,2.539v11.5H29.5V110.249L45.4,96.486l15.9,13.768v14.668Z" fill="url(#linear-gradient)"/>
    <path id="Path_5728" data-name="Path 5728" d="M223.189,304.589h52.3a2.539,2.539,0,1,0,0-5.078h-52.3a2.539,2.539,0,1,0,0,5.078Z" transform="translate(-153.175 -223.463)" fill="url(#linear-gradient)"/>
    <path id="Path_5729" data-name="Path 5729" d="M200.517,262.05a2.539,2.539,0,0,0-2.539-2.539H179.189a2.539,2.539,0,1,0,0,5.078h18.789A2.539,2.539,0,0,0,200.517,262.05Z" transform="translate(-120.347 -193.62)" fill="url(#linear-gradient)"/>
    <path id="Path_5730" data-name="Path 5730" d="M342.791,259.511h-29.4a2.539,2.539,0,1,0,0,5.078h29.4a2.539,2.539,0,1,0,0-5.078Z" transform="translate(-220.472 -193.62)" fill="url(#linear-gradient)"/>
    <path id="Path_5731" data-name="Path 5731" d="M272.024,344.589H290.96a2.539,2.539,0,0,0,0-5.078H272.024a2.539,2.539,0,1,0,0,5.078Z" transform="translate(-189.61 -253.307)" fill="url(#linear-gradient)"/>
    <path id="Path_5732" data-name="Path 5732" d="M404.677,339.511h-8.343a2.539,2.539,0,0,0,0,5.078h8.343a2.539,2.539,0,0,0,0-5.078Z" transform="translate(-282.357 -253.307)" fill="url(#linear-gradient)"/>
    <path id="Path_5733" data-name="Path 5733" d="M306.694,392.668h3.9a2.539,2.539,0,0,0,1.815-.764l1.817-1.857,3.957,5.538a2.539,2.539,0,0,0,2.066,1.063h.074a2.539,2.539,0,0,0,2.074-1.184l5.1-8.086,1.742,3.808a2.539,2.539,0,0,0,2.309,1.483H337.8a2.539,2.539,0,1,0,0-5.078h-4.625L330.154,381a2.539,2.539,0,0,0-4.457-.3l-5.585,8.86-3.521-4.928a2.539,2.539,0,0,0-3.881-.3l-3.189,3.26h-2.828a2.539,2.539,0,0,0,0,5.078Z" transform="translate(-215.477 -283.152)" fill="url(#linear-gradient)"/>
    <path id="Path_5734" data-name="Path 5734" d="M240.772,44.755a24.121,24.121,0,1,0,24.121,24.121A24.148,24.148,0,0,0,240.772,44.755Zm0,43.164a19.043,19.043,0,1,1,19.043-19.043A19.065,19.065,0,0,1,240.772,87.919Z" transform="translate(-150.191 -33.391)" fill="url(#linear-gradient)"/>
    <path id="Union_62" data-name="Union 62" d="M20217.523-4627.041a1.808,1.808,0,0,1-1.807-1.8c0-.889-.006-1.8.016-2.706,0-.29-.021-.3-.238-.4a7.124,7.124,0,0,1-3.854-4.66,1.813,1.813,0,0,1,.35-1.533,1.789,1.789,0,0,1,1.412-.68h1.965a1.8,1.8,0,0,1,1.674,1.132,1.547,1.547,0,0,0,1.426.944,1.339,1.339,0,0,0,.285-.025,1.546,1.546,0,0,0,1.229-1.482,1.48,1.48,0,0,0-1.209-1.482c-.258-.051-.547-.082-.8-.107h-.006a8.2,8.2,0,0,1-1.111-.162,7,7,0,0,1-5.371-6.112,6.933,6.933,0,0,1,3.975-6.964c.264-.122.285-.163.279-.447-.029-.894-.025-1.8-.02-2.675v-.01a1.806,1.806,0,0,1,1.807-1.792h1.857a1.8,1.8,0,0,1,1.8,1.8c0,.853.01,1.822-.016,2.761-.006.223-.006.233.223.335a7.131,7.131,0,0,1,3.863,4.69,1.794,1.794,0,0,1-.35,1.528,1.809,1.809,0,0,1-1.412.675h-1.953a1.792,1.792,0,0,1-1.676-1.137,1.514,1.514,0,0,0-1.416-.955,1.455,1.455,0,0,0-.295.031,1.52,1.52,0,0,0-1.232,1.487,1.519,1.519,0,0,0,1.27,1.5c.232.036.48.061.721.086a8.8,8.8,0,0,1,1.213.183,6.99,6.99,0,0,1,5.293,6.1,6.98,6.98,0,0,1-3.979,6.964c-.25.117-.279.147-.27.452.025.914.02,1.848.016,2.675a1.8,1.8,0,0,1-1.8,1.792Z" transform="translate(-20127.869 4678.005)" fill="url(#linear-gradient-9)"/>
  </g>
</svg>
