<svg id="tag_1_" data-name="tag (1)" xmlns="http://www.w3.org/2000/svg" xmlns:xlink="http://www.w3.org/1999/xlink" width="113.99" height="130" viewBox="0 0 113.99 130">
  <defs>
    <linearGradient id="linear-gradient" x1="0.605" y1="1.031" x2="0.605" y2="0.036" gradientUnits="objectBoundingBox">
      <stop offset="0" stop-color="#0468f7"/>
      <stop offset="1" stop-color="#c645ff"/>
    </linearGradient>
    <linearGradient id="linear-gradient-2" x1="1.033" y1="5.045" x2="1.033" y2="-0.701" xlink:href="#linear-gradient"/>
    <linearGradient id="linear-gradient-3" x1="1.231" y1="5.483" x2="1.231" y2="-2.399" xlink:href="#linear-gradient"/>
    <linearGradient id="linear-gradient-4" x1="1.231" y1="3.954" x2="1.231" y2="-3.924" xlink:href="#linear-gradient"/>
    <linearGradient id="linear-gradient-5" x1="0.797" y1="10.487" x2="0.797" y2="-8.154" xlink:href="#linear-gradient"/>
  </defs>
  <path id="Path_8411" data-name="Path 8411" d="M114.309,48.086l-1.646-33.6a13.47,13.47,0,0,0-12.82-12.82L66.241.018a13.469,13.469,0,0,0-10.2,3.94L4.488,55.509A13.518,13.518,0,0,0,3.138,73.026,13.518,13.518,0,0,0,4.271,90.812l35.249,35.249a13.555,13.555,0,0,0,19.109,0L110.181,74.51a13.469,13.469,0,0,0,3.94-10.2l-.54-11.147A14.011,14.011,0,0,0,114.309,48.086ZM8.32,59.315,59.871,7.764a8.138,8.138,0,0,1,5.722-2.375H66L99.6,7.035a8.081,8.081,0,0,1,7.692,7.692l1.647,33.6a8.146,8.146,0,0,1-2.375,6.127L55.013,106.007a8.079,8.079,0,0,1-11.443,0L8.32,70.785A8.112,8.112,0,0,1,8.32,59.315ZM106.347,70.7,54.8,122.255a8.079,8.079,0,0,1-11.443,0L8.131,87.006a8.108,8.108,0,0,1-1.187-9.959L39.737,109.84a13.551,13.551,0,0,0,19.108,0l49.662-49.689.216,4.427A8.146,8.146,0,0,1,106.347,70.7Zm0,0" transform="translate(-0.331 -0.001)" fill="url(#linear-gradient)"/>
  <path id="Path_8412" data-name="Path 8412" d="M275.025,98.189a11.315,11.315,0,1,0-8-3.31A11.316,11.316,0,0,0,275.025,98.189Zm-4.178-15.467a5.9,5.9,0,1,1,0,8.3A5.9,5.9,0,0,1,270.846,82.722Zm0,0" transform="translate(-192.712 -55.188)" fill="url(#linear-gradient-2)"/>
  <path id="Path_8413" data-name="Path 8413" d="M160.772,179.458a8.25,8.25,0,1,0-5.834-2.416A8.249,8.249,0,0,0,160.772,179.458ZM158.764,169.2a2.833,2.833,0,0,1,2.008-.814,2.882,2.882,0,0,1,2.009.814,2.821,2.821,0,1,1-4.016,0Zm0,0" transform="translate(-111.482 -119.011)" fill="url(#linear-gradient-3)"/>
  <path id="Path_8414" data-name="Path 8414" d="M154.842,258.258a8.237,8.237,0,1,0,5.834-2.422A8.25,8.25,0,0,0,154.842,258.258Zm7.841,7.841a2.82,2.82,0,1,1-1.981-4.8,2.882,2.882,0,0,1,2.009.814A2.825,2.825,0,0,1,162.684,266.1Zm0,0" transform="translate(-111.412 -186.84)" fill="url(#linear-gradient-4)"/>
  <path id="Path_8415" data-name="Path 8415" d="M112.3,233.729h.108l35.275-1.546a2.716,2.716,0,0,0-.216-5.427L112.189,228.3a2.714,2.714,0,1,0,.108,5.427Zm0,0" transform="translate(-80.144 -165.572)" fill="url(#linear-gradient-5)"/>
</svg>
