<svg xmlns="http://www.w3.org/2000/svg" xmlns:xlink="http://www.w3.org/1999/xlink" width="147.183" height="130" viewBox="0 0 147.183 130">
  <defs>
    <linearGradient id="linear-gradient" x1="0.743" y1="1" x2="0.723" gradientUnits="objectBoundingBox">
      <stop offset="0" stop-color="#0468f7"/>
      <stop offset="1" stop-color="#c645ff"/>
    </linearGradient>
    <clipPath id="clip-path">
      <rect id="Rectangle_4724" data-name="Rectangle 4724" width="147.183" height="130" fill="url(#linear-gradient)"/>
    </clipPath>
  </defs>
  <g id="Group_15812" data-name="Group 15812" transform="translate(0 0)">
    <g id="Group_15803" data-name="Group 15803" transform="translate(0 0)" clip-path="url(#clip-path)">
      <path id="Path_9943" data-name="Path 9943" d="M146.692,53.5a2,2,0,0,0-1.178-.474c-2.508.035-5.01.067-7.526.046a2.246,2.246,0,0,1-1.786-1.521,53.434,53.434,0,0,0-12.016-22.327,3.42,3.42,0,0,1-.413-2.821c1.5-6.147,3.037-12.286,4.572-18.425l1.16-4.638a1.646,1.646,0,0,0-1.144-1.982c-12.313-3.529-24.683-.105-33.078,9.157a2.962,2.962,0,0,1-3.13,1.024c-17.2-3.529-32.675-2.587-47.3,2.874-14.352,5.357-24.8,14.717-31.064,27.82a5.626,5.626,0,0,1-.273.494l-.1.178a.831.831,0,0,1-1.03.354A9.223,9.223,0,0,1,7.1,34.029c.359-4.175,2.757-6.832,7.546-8.358A1.646,1.646,0,0,0,15.8,24.1v-4a1.645,1.645,0,0,0-1.88-1.629A16.532,16.532,0,0,0,1.881,27.321,25.442,25.442,0,0,0,.535,31.1c-.15.5-.3.992-.456,1.485a1.635,1.635,0,0,0-.079.5V36.56a1.667,1.667,0,0,0,.112.6,2.239,2.239,0,0,1,.125.418A16.111,16.111,0,0,0,9.18,49.7a1.978,1.978,0,0,1,1.139,2.447l-.313,1.646A54.8,54.8,0,0,0,8.98,60.649c-1.4,21.765,6.6,38.132,24.477,50.037a2.847,2.847,0,0,1,1.448,2.663c-.036,3.937-.031,7.872-.026,11.809l0,3.165a1.648,1.648,0,0,0,1.646,1.644h1.751c6.34,0,12.561,0,18.774-.038a1.64,1.64,0,0,0,1.447-.882c1.165-2.227,2.322-4.541,3.435-6.876a2.208,2.208,0,0,1,2.3-1.374h.012c6.048.046,12.15.046,18.162,0a2.227,2.227,0,0,1,2.273,1.386c.481,1.011.986,2.013,1.526,3.078.632,1.256,1.266,2.51,1.853,3.785a1.65,1.65,0,0,0,1.5.956h.013c5.094-.044,10.186-.04,15.28-.036l5.232,0a1.646,1.646,0,0,0,1.646-1.643l0-3.695c.007-3.665.013-7.332-.038-11a3.273,3.273,0,0,1,1.726-3.117A51.778,51.778,0,0,0,132.943,88.25a2.928,2.928,0,0,1,3.023-1.916c2.9.023,5.783-.016,8.67-.056l.92-.012a1.648,1.648,0,0,0,1.626-1.646V54.676a1.649,1.649,0,0,0-.49-1.172m-42.043,64.787,0,3.762a.825.825,0,0,1-.825.823l-2.357,0c-2.566.007-5.079.01-7.592-.044-.871-.02-1.476-1.065-1.641-1.384-1.142-2.217-2.462-4.8-3.725-7.424a1.662,1.662,0,0,0-1.735-.912,87.306,87.306,0,0,1-26.934,0,1.652,1.652,0,0,0-1.736.909c-.566,1.172-1.139,2.312-1.743,3.519-.63,1.259-1.259,2.515-1.868,3.785a2.5,2.5,0,0,1-2.518,1.59h0c-1.351-.025-2.7-.031-4.075-.031q-1.2,0-2.436,0l-2.676,0a.823.823,0,0,1-.823-.823c0-1.285,0-2.553-.012-3.889-.015-3.231-.028-6.282.054-9.39a3.334,3.334,0,0,0-.033-.635,1.647,1.647,0,0,0-.882-1.21c-.072-.044-.176-.105-.313-.178C29.331,100.64,21.8,91.946,18.4,80.931c-5.9-19.084-2.13-35.545,11.2-48.924C36.5,25.091,45.419,20.6,56.879,18.27a80.195,80.195,0,0,1,38.867,1.5,1.636,1.636,0,0,0,1.837-.675c5.384-8.175,13.047-12.219,22.655-12.016a.813.813,0,0,1,.635.321.824.824,0,0,1,.146.7l-.922,3.741c-.55,2.228-1.086,4.4-1.629,6.575l-.6,2.414c-.708,2.86-1.419,5.724-2.192,8.563-.036.137-.059.242-.074.323a1.652,1.652,0,0,0,.379,1.376,3.209,3.209,0,0,0,.24.244,44.65,44.65,0,0,1,13.544,23.931l.105.5c.209.966.425,1.963.543,2.987a1.647,1.647,0,0,0,1.634,1.455l.048,0c1.55-.044,3.106-.033,4.615-.023l.221,0c.751.007,1.5.012,2.268.012a.823.823,0,0,1,.823.823V78.464a.824.824,0,0,1-.825.823l-6.6.01c-.836.008-1.669.016-2.5,0a1.6,1.6,0,0,0-1.6,1.111A45.831,45.831,0,0,1,118.6,97.1a49.609,49.609,0,0,1-13.1,9.878,1.645,1.645,0,0,0-.879,1.473c.038,3.308.031,6.524.025,9.839" transform="translate(0 0)" fill="url(#linear-gradient)"/>
      <path id="Path_9944" data-name="Path 9944" d="M52.3,53.522h0a16.833,16.833,0,0,0-2.214-.323c-.537-.054-1.073-.112-1.6-.2a5.151,5.151,0,1,1,5.657-6.99,1.644,1.644,0,0,0,1.529,1.037h4a1.646,1.646,0,0,0,1.6-2.01,12.436,12.436,0,0,0-6.766-8.181,2.463,2.463,0,0,1-1.641-2.607c.051-1.843.043-3.69.033-5.581a1.645,1.645,0,0,0-1.646-1.638h-3.8a1.648,1.648,0,0,0-1.646,1.636c-.01,1.822-.02,3.616.038,5.41A2.667,2.667,0,0,1,44.1,36.916a12.1,12.1,0,0,0-6.959,12.178,12.277,12.277,0,0,0,9.408,10.724,16.157,16.157,0,0,0,2.033.288c.606.061,1.211.123,1.8.234A5.1,5.1,0,0,1,54.534,65.4a5.172,5.172,0,0,1-9.964,1.9,1.644,1.644,0,0,0-1.527-1.032H39.025a1.646,1.646,0,0,0-1.6,2.018,12.417,12.417,0,0,0,6.74,8.134,2.573,2.573,0,0,1,1.675,2.73c-.041,1.822-.035,3.647-.028,5.477a1.646,1.646,0,0,0,1.646,1.639h3.8A1.646,1.646,0,0,0,52.9,84.632c.01-1.819.018-3.611-.036-5.4a2.659,2.659,0,0,1,1.743-2.839A12.181,12.181,0,0,0,52.3,53.522" transform="translate(23.946 17.459)" fill="url(#linear-gradient)"/>
      <path id="Path_9945" data-name="Path 9945" d="M67.227,18.186a70.459,70.459,0,0,0-31.877.025,1.646,1.646,0,0,0-1.21,2.066l1.06,3.613a1.649,1.649,0,0,0,1.934,1.147,65.8,65.8,0,0,1,28.338-.018A1.642,1.642,0,0,0,67.4,23.866l1.045-3.616a1.647,1.647,0,0,0-1.221-2.064" transform="translate(22.006 10.573)" fill="url(#linear-gradient)"/>
      <path id="Path_9946" data-name="Path 9946" d="M65.278,33.9H68.9a1.645,1.645,0,0,0,1.646-1.646V28.689A1.645,1.645,0,0,0,68.9,27.043H65.278a1.645,1.645,0,0,0-1.646,1.646v3.565A1.645,1.645,0,0,0,65.278,33.9" transform="translate(41.096 17.465)" fill="url(#linear-gradient)"/>
    </g>
  </g>
</svg>
