<svg id="Group_14365" data-name="Group 14365" xmlns="http://www.w3.org/2000/svg" xmlns:xlink="http://www.w3.org/1999/xlink" width="41.621" height="40" viewBox="0 0 41.621 40">
  <defs>
    <linearGradient id="linear-gradient" x1="0.5" x2="0.5" y2="1" gradientUnits="objectBoundingBox">
      <stop offset="0" stop-color="#0468f7"/>
      <stop offset="1" stop-color="#c645ff"/>
    </linearGradient>
    <clipPath id="clip-path">
      <rect id="Rectangle_4102" data-name="Rectangle 4102" width="41.621" height="40" fill="url(#linear-gradient)"/>
    </clipPath>
  </defs>
  <g id="Group_14364" data-name="Group 14364" clip-path="url(#clip-path)">
    <path id="Path_9275" data-name="Path 9275" d="M39.593,107.594c-3.454.03-6.909.011-10.364.011h-.477A11.238,11.238,0,0,0,14.076,90.658,10.86,10.86,0,0,0,9.8,97.483a11.187,11.187,0,0,0,3.068,10.122h-.514c-3.441,0-6.882.019-10.323-.011A1.849,1.849,0,0,0,0,108.907v.65a1.857,1.857,0,0,0,2.027,1.312q18.784-.025,37.567,0a1.86,1.86,0,0,0,2.027-1.312v-.65a1.849,1.849,0,0,0-2.028-1.312m-18.976.027a7.979,7.979,0,1,1,8.169-7.963,8.031,8.031,0,0,1-8.169,7.963" transform="translate(0 -78.826)" fill="url(#linear-gradient)"/>
    <path id="Path_9276" data-name="Path 9276" d="M2.023,180.175c.9-.04,1.811,0,2.717-.01a1.626,1.626,0,1,0,0-3.25c-.906-.005-1.813.031-2.717-.01A1.808,1.808,0,0,0,0,178.215v.65a1.811,1.811,0,0,0,2.023,1.309" transform="translate(0 -157.728)" fill="url(#linear-gradient)"/>
    <path id="Path_9277" data-name="Path 9277" d="M329.007,176.906c-.9.04-1.811,0-2.717.01a1.626,1.626,0,1,0,0,3.25c.906.006,1.813-.031,2.717.01a1.813,1.813,0,0,0,2.024-1.309v-.65a1.809,1.809,0,0,0-2.023-1.309" transform="translate(-289.409 -157.728)" fill="url(#linear-gradient)"/>
    <path id="Path_9278" data-name="Path 9278" d="M54.614,56.874a1.45,1.45,0,0,0,1.711.181,1.715,1.715,0,0,0,.923-1.607,2.537,2.537,0,0,0-.378-.833c-.807-.874-1.645-1.725-2.52-2.531a1.61,1.61,0,0,0-2.263,2.266c.806.876,1.652,1.718,2.528,2.524" transform="translate(-46.098 -46.098)" fill="url(#linear-gradient)"/>
    <path id="Path_9279" data-name="Path 9279" d="M282.976,57.265a2.907,2.907,0,0,0,.844-.423q1.266-1.171,2.444-2.436A1.612,1.612,0,0,0,284,52.126q-1.277,1.189-2.467,2.47a1.468,1.468,0,0,0-.21,1.743,1.718,1.718,0,0,0,1.657.925" transform="translate(-250.656 -46.118)" fill="url(#linear-gradient)"/>
    <path id="Path_9280" data-name="Path 9280" d="M178.565,6.439a1.608,1.608,0,0,0,1.642-1.646c.008-.514,0-1.029,0-1.543,0-.542.009-1.083,0-1.624a1.623,1.623,0,1,0-3.246.006q-.018,1.584,0,3.167a1.6,1.6,0,0,0,1.606,1.639" transform="translate(-157.773 0)" fill="url(#linear-gradient)"/>
    <path id="Path_9281" data-name="Path 9281" d="M86.739,339.1a2.77,2.77,0,0,0-.722-.073q-12.517-.005-25.035,0c-.135,0-.272-.005-.406.006a1.627,1.627,0,0,0,.242,3.245q6.32,0,12.639,0H85.975c.135,0,.271,0,.406,0a1.619,1.619,0,0,0,1.511-1.4,1.587,1.587,0,0,0-1.154-1.774" transform="translate(-52.689 -302.278)" fill="url(#linear-gradient)"/>
  </g>
</svg>
