<svg xmlns="http://www.w3.org/2000/svg" width="34" height="32" viewBox="0 0 34 32">
  <g id="_001-home" data-name="001-home" transform="translate(0 -16.018)">
    <path id="Path_8755" data-name="Path 8755" d="M65.633,212.232H43.055A3.064,3.064,0,0,1,40,209.166V193.03a1.063,1.063,0,1,1,2.125,0v16.136a.933.933,0,0,0,.93.933H65.633a.933.933,0,0,0,.93-.933V193.03a1.063,1.063,0,1,1,2.125,0v16.136A3.064,3.064,0,0,1,65.633,212.232Z" transform="translate(-37.344 -164.215)" fill="#120638"/>
    <path id="Path_8756" data-name="Path 8756" d="M32.938,32.548a1.057,1.057,0,0,1-.751-.312L18.972,18.968a2.784,2.784,0,0,0-3.944,0L1.814,32.235a1.065,1.065,0,0,1-1.5-1.509L13.526,17.46a4.906,4.906,0,0,1,6.949,0L33.689,30.726a1.07,1.07,0,0,1,0,1.509,1.057,1.057,0,0,1-.751.312Z" fill="#120638"/>
    <path id="Path_8757" data-name="Path 8757" d="M185.563,301.851h-8.5A1.065,1.065,0,0,1,176,300.784v-9.467a3.331,3.331,0,0,1,3.32-3.334H183.3a3.331,3.331,0,0,1,3.32,3.334v9.467A1.065,1.065,0,0,1,185.563,301.851Zm-7.437-2.133H184.5v-8.4a1.2,1.2,0,0,0-1.2-1.2H179.32a1.2,1.2,0,0,0-1.2,1.2Z" transform="translate(-164.312 -253.834)" fill="#120638"/>
  </g>
</svg>
