<svg xmlns="http://www.w3.org/2000/svg" width="36" height="32.4" viewBox="0 0 36 32.4">
  <g id="Group_12910" data-name="Group 12910" transform="translate(9052.998 19172.305)">
    <g id="_001-tag" data-name="001-tag" transform="translate(-9052.998 -19172.305)">
      <g id="Group_2226" data-name="Group 2226" transform="translate(0 0)">
        <g id="Group_2225" data-name="Group 2225" transform="translate(0 0)">
          <path id="Path_8311" data-name="Path 8311" d="M16.074,22.224h10.54a3.361,3.361,0,0,1,3.354,3.36V36.139a3.348,3.348,0,0,1-.982,2.377L15.266,52.256a3.35,3.35,0,0,1-4.743,0L-.017,41.7a3.369,3.369,0,0,1,0-4.752L13.7,23.208A3.375,3.375,0,0,1,16.074,22.224ZM12.894,51.563a1.667,1.667,0,0,0,1.188-.493L27.8,37.331a1.679,1.679,0,0,0,.492-1.192V25.584a1.683,1.683,0,0,0-1.68-1.683H16.074a1.69,1.69,0,0,0-1.188.493L1.167,38.133a1.688,1.688,0,0,0,0,2.381L11.707,51.07A1.667,1.667,0,0,0,12.894,51.563Zm9.314-24.3A2.73,2.73,0,1,1,19.483,30,2.73,2.73,0,0,1,22.208,27.267Zm0,3.782A1.052,1.052,0,1,0,21.157,30,1.053,1.053,0,0,0,22.208,31.048Z" transform="translate(0.998 -22.224)" fill="#120638"/>
        </g>
      </g>
      <g id="Group_2228" data-name="Group 2228" transform="translate(16.878 2.521)">
        <g id="Group_2227" data-name="Group 2227" transform="translate(0 0)">
          <path id="Path_8312" data-name="Path 8312" d="M232.5,54.224h.837a3.361,3.361,0,0,1,3.355,3.36V68.137a3.382,3.382,0,0,1-.985,2.376L223.123,83.119a3.35,3.35,0,0,1-4.743,0l-.806-.807,14.533-14.556a1.361,1.361,0,0,0,.4-.958Zm-11.753,28.2a1.667,1.667,0,0,0,1.188-.493l12.589-12.606a1.692,1.692,0,0,0,.494-1.19V57.584a1.684,1.684,0,0,0-.843-1.459V66.8a3.051,3.051,0,0,1-.888,2.144L220,82.25A1.67,1.67,0,0,0,220.752,82.425Z" transform="translate(-217.574 -54.224)" fill="#120638"/>
        </g>
      </g>
    </g>
  </g>
</svg>
