<svg xmlns="http://www.w3.org/2000/svg" width="39.958" height="40" viewBox="0 0 39.958 40">
  <g id="_001-telephone" data-name="001-telephone" transform="translate(-0.001 0)">
    <path id="Path_1682" data-name="Path 1682" d="M347.469,315.325a3.125,3.125,0,0,1,.531,4.846l-.64.641L335.989,312.3l1.623-1.623a3.124,3.124,0,0,1,3.887-.427Zm0,0" transform="translate(-309.739 -285.56)" fill="#80d261"/>
    <path id="Path_1683" data-name="Path 1683" d="M78.068,17.417a3.124,3.124,0,0,1-.427,3.887l-1.623,1.623L68.285,11.557l.641-.641a3.125,3.125,0,0,1,4.846.532Zm0,0" transform="translate(-62.95 -9.219)" fill="#80d261"/>
    <path id="Path_1684" data-name="Path 1684" d="M46.9,62.833l-1.54,1.54C33.839,75.891,1.32,43.211,12.292,32.239l2.321-2.321,7.733,11.371L20.734,42.9a1.561,1.561,0,0,0-.339,1.7c-.088-.133,2.338,7.745,11.819,11.667a1.562,1.562,0,0,0,1.7-.339l1.611-1.611Zm0,0" transform="translate(-9.277 -27.581)" fill="#c4ecb5"/>
    <path id="Path_1685" data-name="Path 1685" d="M229.786,387.62a.781.781,0,1,0,1.1,0A.781.781,0,0,0,229.786,387.62Zm0,0" transform="translate(-211.622 -357.127)" fill="#363636"/>
    <path id="Path_1686" data-name="Path 1686" d="M38.2,29.137l-5.931-5.044a.8.8,0,0,0-.087-.064,3.882,3.882,0,0,0-4.859.533L24.087,27.8a.779.779,0,0,1-.851.17,21.193,21.193,0,0,1-8.916-6.759,15.727,15.727,0,0,1-2.432-4.324.776.776,0,0,0-.047-.161.777.777,0,0,1,.17-.851l3.234-3.235a3.882,3.882,0,0,0,.533-4.859l-.025-.037L11.469,1.789a3.906,3.906,0,0,0-6.045-.645l-.648.648,0,0L2.463,4.105c-2.757,2.757-3.208,6.9-1.3,11.982A39.755,39.755,0,0,0,10.351,29.5a39.941,39.941,0,0,0,13.777,9.363c4.44,1.622,9.162,1.822,12.5-1.521l2.18-2.18a3.907,3.907,0,0,0-.616-6.027Zm-6.9-3.816,5.926,5.039a.769.769,0,0,0,.086.064,2.344,2.344,0,0,1,.4,3.635l-.162.162L27.439,26.653l.986-.986a2.329,2.329,0,0,1,2.873-.347ZM10.163,2.648l.025.037,4.282,5.95a2.329,2.329,0,0,1-.331,2.9l-.956.956L6.345,2.432l.183-.183a2.344,2.344,0,0,1,3.635.4ZM24.664,37.4a38.368,38.368,0,0,1-13.208-9A38.181,38.181,0,0,1,2.621,15.539C1.455,12.425.672,8.106,3.567,5.21L5.221,3.557l6.838,10.056-1.153,1.154a2.334,2.334,0,0,0-.535,2.487,17.352,17.352,0,0,0,2.526,4.66,22.916,22.916,0,0,0,9.742,7.5,2.337,2.337,0,0,0,2.553-.508l1.132-1.132,10.108,7.568-.9.9c-3.1,3.1-7.621,2.343-10.864,1.158Zm0,0" transform="translate(0 0)" fill="#363636"/>
    <path id="Path_1687" data-name="Path 1687" d="M103.336,261.109c-.825-.724-2.252-1.968-3-2.741a51.36,51.36,0,0,1-4.927-5.849.781.781,0,0,0-1.284.89,52.912,52.912,0,0,0,5.091,6.049c.793.817,2.233,2.072,3.094,2.827a.781.781,0,1,0,1.03-1.175Zm0,0" transform="translate(-86.638 -232.48)" fill="#363636"/>
  </g>
</svg>
