<svg xmlns="http://www.w3.org/2000/svg" width="23.995" height="23.995" viewBox="0 0 23.995 23.995">
  <path id="_003-twitter" data-name="003-twitter" d="M12,0A12,12,0,1,0,24,12,12,12,0,0,0,12,0Zm5.478,9.354q.008.177.008.356a7.782,7.782,0,0,1-7.835,7.835h0a7.8,7.8,0,0,1-4.221-1.237,5.6,5.6,0,0,0,.657.038A5.525,5.525,0,0,0,9.5,15.168a2.757,2.757,0,0,1-2.573-1.913,2.745,2.745,0,0,0,1.244-.047,2.754,2.754,0,0,1-2.209-2.7c0-.012,0-.024,0-.035a2.735,2.735,0,0,0,1.247.344,2.756,2.756,0,0,1-.853-3.676,7.818,7.818,0,0,0,5.676,2.877A2.755,2.755,0,0,1,16.73,7.507a5.523,5.523,0,0,0,1.749-.668,2.765,2.765,0,0,1-1.211,1.523,5.492,5.492,0,0,0,1.581-.434,5.6,5.6,0,0,1-1.374,1.426Zm0,0" fill="#b8b5c3" opacity="0.7"/>
</svg>
