<svg id="house_15_" data-name="house (15)" xmlns="http://www.w3.org/2000/svg" xmlns:xlink="http://www.w3.org/1999/xlink" width="130.38" height="95.018" viewBox="0 0 130.38 95.018">
  <defs>
    <linearGradient id="linear-gradient" x1="0.5" y1="-0.344" x2="0.5" y2="1" gradientUnits="objectBoundingBox">
      <stop offset="0" stop-color="#0468f7"/>
      <stop offset="1" stop-color="#c645ff"/>
    </linearGradient>
  </defs>
  <path id="Path_9183" data-name="Path 9183" d="M230.41,283.227a1.91,1.91,0,0,0-1.91,1.91V289a1.91,1.91,0,1,0,3.82,0v-3.861A1.91,1.91,0,0,0,230.41,283.227Zm0,0" transform="translate(-170.313 -211.103)" fill="url(#linear-gradient)"/>
  <path id="Path_9184" data-name="Path 9184" d="M96.022,171.563H88.589a3.187,3.187,0,0,0-3.183,3.183v19.172a3.187,3.187,0,0,0,3.183,3.183h7.433a3.187,3.187,0,0,0,3.183-3.183V174.746A3.187,3.187,0,0,0,96.022,171.563Zm-.637,21.719H89.226v-17.9h6.159Zm0,0" transform="translate(-63.658 -127.874)" fill="url(#linear-gradient)"/>
  <path id="Path_9185" data-name="Path 9185" d="M383.022,171.563h-7.432a3.187,3.187,0,0,0-3.183,3.183v19.172a3.187,3.187,0,0,0,3.183,3.183h7.432a3.187,3.187,0,0,0,3.183-3.183V174.746A3.187,3.187,0,0,0,383.022,171.563Zm-.637,21.719h-6.159v-17.9h6.159Zm0,0" transform="translate(-277.574 -127.874)" fill="url(#linear-gradient)"/>
  <path id="Path_9186" data-name="Path 9186" d="M232.463,111.2H230.8a7.5,7.5,0,0,0-7.493,7.494v7.259a2.75,2.75,0,0,0,2.747,2.747h11.157a2.75,2.75,0,0,0,2.747-2.747v-7.259A7.5,7.5,0,0,0,232.463,111.2Zm-5.34,13.681v-6.187a3.679,3.679,0,0,1,3.674-3.675h1.665a3.678,3.678,0,0,1,3.674,3.675v6.187Zm0,0" transform="translate(-166.441 -82.883)" fill="url(#linear-gradient)"/>
  <path id="Path_9187" data-name="Path 9187" d="M128.47,91.2h-8.977V34.827h7.7A2.53,2.53,0,0,0,129.4,30.82L113.781,6.1a4.5,4.5,0,0,0-3.567-1.966H70L67.473,1.1a2.927,2.927,0,0,0-4.566,0L60.384,4.138H20.166A4.5,4.5,0,0,0,16.6,6.1L.976,30.82a2.635,2.635,0,0,0-.165,2.7,2.634,2.634,0,0,0,2.372,1.3h7.7V75.569a10.039,10.039,0,0,0-3,8.824H7.076a3.187,3.187,0,0,0-3.183,3.183V91.2H1.91a1.91,1.91,0,1,0,0,3.82H128.47a1.91,1.91,0,0,0,0-3.82Zm-7.839-67.109h-34.1L84,21.033h34.7Zm-6.278-9.931,1.932,3.056H80.836L78.3,14.158Zm-4.159-6.2a.866.866,0,0,1,.369.2l1.376,2.176h-36.8l-1.973-2.38Zm-94.167,6.2H28.775a1.91,1.91,0,0,0,0-3.82H18.44l1.377-2.177a.877.877,0,0,1,.368-.2H57.217l-1.974,2.38H26.873a1.91,1.91,0,0,0,0,3.82h25.2l-2.534,3.056H14.1Zm-4.346,6.875h34.7l-2.534,3.056H9.749Zm-6.3,9.974,1.959-3.1H40.677l-2.569,3.1ZM42.214,72.668a9.8,9.8,0,0,0-4.86-1.3,9.96,9.96,0,0,0-8.411,4.7,7.619,7.619,0,0,0-3.521.145,10.137,10.137,0,0,0-7.574-3.45,10.032,10.032,0,0,0-3.14.5V34.827H34.941a2.424,2.424,0,0,0,1.933,4.106h5.341ZM19.923,84.393H11.782a6.25,6.25,0,0,1,10.266-6.17,7.585,7.585,0,0,0-2.175,5.321A7.479,7.479,0,0,0,19.923,84.393Zm22.291,6.8H7.713V88.213h34.5Zm0-6.8H23.793a3.732,3.732,0,0,1-.1-.849,3.788,3.788,0,0,1,5.4-3.428,1.909,1.909,0,0,0,2.6-1.038A6.051,6.051,0,0,1,42.215,77.65ZM39.665,35.114,65.19,4.326,90.714,35.114H87.346L66.66,10.163a1.91,1.91,0,0,0-2.94,0L43.034,35.114ZM73.277,91.2H57.1V61.556H73.277Zm42.4,0H88.166V68.135a1.91,1.91,0,1,0-3.82,0V91.2H77.1V60.92a3.187,3.187,0,0,0-3.183-3.183H56.466a3.187,3.187,0,0,0-3.183,3.183V91.2h-7.25V37.48L65.19,14.375,84.346,37.48V68.172a1.91,1.91,0,1,0,3.82,0V38.933h5.34a2.424,2.424,0,0,0,1.934-4.106h16.432a1.91,1.91,0,1,0,0-3.82h-19.6l-2.569-3.1h33.342l1.959,3.1H112.045a1.91,1.91,0,0,0,0,3.82h3.628Zm0,0" fill="url(#linear-gradient)"/>
</svg>
