<svg id="Group_14343" data-name="Group 14343" xmlns="http://www.w3.org/2000/svg" xmlns:xlink="http://www.w3.org/1999/xlink" width="80" height="80" viewBox="0 0 80 80">
  <defs>
    <linearGradient id="linear-gradient" x1="0.5" x2="0.5" y2="1" gradientUnits="objectBoundingBox">
      <stop offset="0" stop-color="#0069f7"/>
      <stop offset="0.112" stop-color="#3d5ef9"/>
      <stop offset="0.37" stop-color="#7753fc"/>
      <stop offset="0.627" stop-color="#a24cfe"/>
      <stop offset="0.802" stop-color="#bc47ff"/>
      <stop offset="0.892" stop-color="#c645ff"/>
      <stop offset="1" stop-color="#c645ff"/>
    </linearGradient>
    <clipPath id="clip-path">
      <rect id="Rectangle_4094" data-name="Rectangle 4094" width="80" height="80" fill="url(#linear-gradient)"/>
    </clipPath>
  </defs>
  <g id="Group_14342" data-name="Group 14342" clip-path="url(#clip-path)">
    <path id="Path_9225" data-name="Path 9225" d="M77.445,28.159a2.374,2.374,0,0,0,2.483-1.02A.493.493,0,0,0,80,26.883V21.636a.49.49,0,0,0-.1-.291,2.7,2.7,0,0,0-2.749-.868c-.683.073-1-.112-1.356-.8-1.266-2.4-5.635-10.283-8.25-14.969,0-.006-.042-.089-.045-.094-.606-1.152-1.28-2.37-2.061-3.726A2.33,2.33,0,0,0,64.92.315C64.855.259,64.79.2,64.73.144A.489.489,0,0,0,64.382,0H15.462a.493.493,0,0,0-.389.191c-.094.121-.193.237-.293.354a5.384,5.384,0,0,0-.665.906Q9.037,10.727,4.006,20.029c-.23.425-.374.48-.69.441a3.38,3.38,0,0,0-.621-.015,2.966,2.966,0,0,1-.4,0,2.345,2.345,0,0,0-2.188.876A.488.488,0,0,0,0,21.636v5.247a.5.5,0,0,0,.072.256A2.077,2.077,0,0,0,2.16,28.154c.344-.027.692-.02,1.065-.013h.091V34.9q0,15.264.011,30.529a.9.9,0,0,1-.449.914A7.189,7.189,0,0,0,.013,70.906.473.473,0,0,0,0,71.019v8.487A.494.494,0,0,0,.493,80H79.506A.494.494,0,0,0,80,79.506V71.019a.5.5,0,0,0-.014-.116,7.463,7.463,0,0,0-3.233-4.85.951.951,0,0,1-.058-.338c-.02-.593-.016-1.188-.013-1.781l0-35.773a5.506,5.506,0,0,1,.761,0m-60.8-24.5a.561.561,0,0,1,.636-.365q22.644.02,45.288,0a.661.661,0,0,1,.5.131l.982,1.772C66.517,9.653,71.142,18.009,72.4,20.3c.025.045.048.091.072.137H21.056c-1.382-.009-3.2-.012-5.059-.012-2.349,0-4.755,0-6.4.008l-2.07,0c.01-.017.019-.036.028-.053l2.032-3.731q3.537-6.493,7.057-13m60,20.1v1.024H3.356V23.76H6.2c3.951,0,10.971.006,14.743-.006.162.005.324,0,.486,0ZM52.635,76.65H48.814V65.983h3.821Zm6.777,0H56v-11.8c0-1.664-.544-2.2-2.232-2.2H47.6c-1.585,0-2.148.557-2.151,2.123q0,4.208,0,8.415v3.462H41.653V74.247c0-.76,0-1.52,0-2.276l0-43.766H73.338V64.97l-1.833,0c-1.741-.007-3.466-.009-5.191.01a6.943,6.943,0,0,0-6.643,5.167,9.2,9.2,0,0,0-.247,2.1c-.022,1.154-.019,2.31-.014,3.481Zm3.3.034,0-2.184c0-.869-.008-1.739.01-2.608a3.658,3.658,0,0,1,3.6-3.61c2.18-.033,4.46-.033,6.773,0a3.659,3.659,0,0,1,3.575,3.206,5.917,5.917,0,0,1,.028.782l0,4.414Zm-31.444-.02H27.417V66.02h3.855Zm7.075-.479v.466H34.629V64.776c0-1.565-.564-2.121-2.15-2.122h-6.25c-1.611,0-2.155.555-2.155,2.193V76.659H20.587V72.431c0-4.531-2.947-7.46-7.5-7.462H6.671V28.194H38.347l0,43.924c-.006.878,0,1.755,0,2.632ZM6.793,68.289c2.323-.05,4.676-.05,7,0a3.579,3.579,0,0,1,3.465,3.345c.056,1.245.044,2.473.03,3.773,0,.41-.01.821-.012,1.235H3.313q0-.621-.012-1.236c-.014-1.3-.027-2.527.029-3.771a3.574,3.574,0,0,1,3.463-3.346" fill="url(#linear-gradient)"/>
    <path id="Path_9226" data-name="Path 9226" d="M22.564,18.691q3.143.02,6.287.017l2.845,0h2.349a3.357,3.357,0,0,0,.549-.03A1.587,1.587,0,0,0,36,16.888a1.528,1.528,0,0,0-1.6-1.478c-.273-.005-.548,0-.834,0,0-.5.005-1,.008-1.491.01-1.439.02-2.8-.019-4.178a5.264,5.264,0,0,0-10.519.421c-.012,1.3-.009,2.6-.006,3.943l0,1.293-.023,0a3.04,3.04,0,0,0-1.089.071A2.009,2.009,0,0,0,20.672,16.5a1.845,1.845,0,0,0,.352,1.679,2.279,2.279,0,0,0,1.54.515m3.726-3.319v-.5l.011-1.382c.008-1.129.015-2.259.047-3.388a2.034,2.034,0,0,1,1.975-2.137,2.007,2.007,0,0,1,1.951,2.2c.007,1.291.005,2.581,0,3.9v1.3Z" fill="url(#linear-gradient)"/>
    <path id="Path_9227" data-name="Path 9227" d="M45.075,18.7q3.2.012,6.406.01,2.349,0,4.7,0H56.8a2.733,2.733,0,0,0,.653-.064,1.545,1.545,0,0,0,1.235-1.706,1.494,1.494,0,0,0-1.475-1.514c-.3-.018-.606-.016-.948-.01h0q0-.737.006-1.455c.008-1.427.015-2.811-.016-4.193a5.212,5.212,0,0,0-5.055-5.093,5.16,5.16,0,0,0-5.367,4.586c-.12,1.27-.126,2.562-.133,3.811,0,.539-.005,1.077-.017,1.615-.005.232,0,.462,0,.714a2.766,2.766,0,0,0-1.133.084,1.987,1.987,0,0,0-1.232,1.2,2.2,2.2,0,0,0,.514,1.6,1.472,1.472,0,0,0,1.254.419m3.915-3.334,0-1.255c0-1.4.006-2.855.063-4.275a1.946,1.946,0,0,1,3.774-.576,1.727,1.727,0,0,1,.116.577c.012,1.75.01,3.5.008,5.25l-.011.279Z" fill="url(#linear-gradient)"/>
    <path id="Path_9228" data-name="Path 9228" d="M21.123,33.109a1.7,1.7,0,0,0-1.944-1.934q-3.315-.009-6.631,0c-1.361,0-1.969.615-1.974,1.984q-.014,4.4,0,8.79a1.7,1.7,0,0,0,1.942,1.939q1.659,0,3.316,0t3.316,0c1.355,0,1.964-.615,1.975-1.983.008-1.024.006-2.049,0-3.073V36.2c0-1.031,0-2.062-.005-3.093m-7.2,1.429H17.8v5.985H13.923Z" fill="url(#linear-gradient)"/>
    <path id="Path_9229" data-name="Path 9229" d="M34.548,33.093a1.7,1.7,0,0,0-1.958-1.918q-3.317-.009-6.631,0c-1.33,0-1.952.612-1.957,1.921q-.018,4.432,0,8.868c0,1.309.627,1.919,1.956,1.923q1.657,0,3.314,0t3.318,0a1.7,1.7,0,0,0,1.958-1.919c.011-1.026.009-2.051.006-3.077l0-1.323,0-1.345c0-1.044,0-2.087-.006-3.13M27.364,34.5h3.82v6.039h-3.82Z" fill="url(#linear-gradient)"/>
    <path id="Path_9230" data-name="Path 9230" d="M54.039,31.175q-3.317-.009-6.631,0a1.7,1.7,0,0,0-1.956,1.92c-.011,1.026-.008,2.054-.006,3.081l0,1.317,0,1.34c0,1.045,0,2.091.006,3.136a1.7,1.7,0,0,0,1.958,1.918q1.657,0,3.315,0t3.317,0c1.329,0,1.951-.615,1.956-1.924q.02-4.434,0-8.868c-.005-1.308-.628-1.917-1.959-1.92m-1.4,9.385H48.817V34.522h3.818Z" fill="url(#linear-gradient)"/>
    <path id="Path_9231" data-name="Path 9231" d="M58.878,41.967a1.7,1.7,0,0,0,1.956,1.92q1.657,0,3.315,0t3.317,0c1.33,0,1.953-.614,1.959-1.922q.018-4.436,0-8.868c-.006-1.309-.628-1.919-1.958-1.922q-3.318-.009-6.631,0a1.7,1.7,0,0,0-1.958,1.918c-.011,1.026-.008,2.054-.006,3.081l0,1.317,0,1.34c0,1.046-.005,2.091.006,3.136m7.182-1.428H62.242V34.5H66.06Z" fill="url(#linear-gradient)"/>
    <path id="Path_9232" data-name="Path 9232" d="M19.132,46.915h0q-3.276-.006-6.553,0c-1.4,0-2,.609-2.005,2.03-.007,1.034-.005,2.067,0,3.1v2.522c0,1.031,0,2.062,0,3.093.012,1.358.626,1.965,1.991,1.967q1.638,0,3.277,0t3.276,0c1.381,0,2-.606,2-1.955q.017-4.4,0-8.791c0-1.357-.619-1.964-1.991-1.967m-5.218,3.343h3.852v6.027H13.914Z" fill="url(#linear-gradient)"/>
    <path id="Path_9233" data-name="Path 9233" d="M32.627,46.916q-3.313-.009-6.631,0c-1.368,0-1.984.606-2,1.959-.009,1.045-.007,2.09,0,3.134l0,1.265,0,1.363c0,1.037-.005,2.075.008,3.112a1.684,1.684,0,0,0,1.918,1.879q1.677.006,3.354.006t3.355-.006a1.68,1.68,0,0,0,1.917-1.886q.021-4.47,0-8.944a1.678,1.678,0,0,0-1.92-1.881M31.185,56.28H27.364V50.242h3.821Z" fill="url(#linear-gradient)"/>
    <path id="Path_9234" data-name="Path 9234" d="M54.04,46.916q-3.317-.009-6.631,0a1.7,1.7,0,0,0-1.957,1.918c-.011,1.026-.008,2.054-.006,3.082l0,1.316,0,1.34c0,1.045,0,2.091.006,3.135a1.7,1.7,0,0,0,1.957,1.921q1.657,0,3.314.005t3.318-.005c1.33,0,1.952-.615,1.957-1.924q.02-4.432,0-8.867c-.005-1.308-.628-1.919-1.958-1.921m-1.386,9.351H48.8V50.275h3.857Z" fill="url(#linear-gradient)"/>
    <path id="Path_9235" data-name="Path 9235" d="M64.165,59.633q1.659,0,3.317-.005a1.706,1.706,0,0,0,1.944-1.936c.009-1.016.007-2.032,0-3.048V52.083c0-1.063,0-2.124,0-3.186-.012-1.368-.622-1.979-1.977-1.982q-3.313-.008-6.631,0a1.7,1.7,0,0,0-1.941,1.936q-.018,4.4,0,8.791c0,1.368.613,1.981,1.973,1.985q1.658,0,3.315.005m-1.942-9.357h3.856v5.991H62.223Z" fill="url(#linear-gradient)"/>
  </g>
</svg>
