<svg id="Group_14345" data-name="Group 14345" xmlns="http://www.w3.org/2000/svg" xmlns:xlink="http://www.w3.org/1999/xlink" width="80" height="80" viewBox="0 0 80 80">
  <defs>
    <linearGradient id="linear-gradient" x1="0.5" x2="0.5" y2="1" gradientUnits="objectBoundingBox">
      <stop offset="0" stop-color="#0069f7"/>
      <stop offset="0.112" stop-color="#3d5ef9"/>
      <stop offset="0.37" stop-color="#7753fc"/>
      <stop offset="0.627" stop-color="#a24cfe"/>
      <stop offset="0.802" stop-color="#bc47ff"/>
      <stop offset="0.892" stop-color="#c645ff"/>
      <stop offset="1" stop-color="#c645ff"/>
    </linearGradient>
    <clipPath id="clip-path">
      <rect id="Rectangle_4095" data-name="Rectangle 4095" width="80" height="80" fill="url(#linear-gradient)"/>
    </clipPath>
  </defs>
  <g id="Group_14344" data-name="Group 14344" clip-path="url(#clip-path)">
    <path id="Path_9236" data-name="Path 9236" d="M78.025,72.047c-1.17.023-2.341.018-3.528.015l-.932,0V59.495c.18-.066.358-.129.537-.19a11.449,11.449,0,0,0,1.866-.778,7.612,7.612,0,0,0,3.9-5.587,1,1,0,0,1,.05-.15l.052-.139L80,50.643l-.021-.14a9.556,9.556,0,0,0-2.072-4.149,7.607,7.607,0,0,0-7.22-2.448,7.9,7.9,0,0,0-5.561,11.515,7.82,7.82,0,0,0,5.254,3.948c.161.034.2.059.2.053a.425.425,0,0,1,.017.155q-.035,4.543-.043,9.086l-.023,3.345H65.818V69.021c0-1.621-.345-2.006-1.93-2.105V40.492c.216,0,.43,0,.642-.005,1.37-.04,1.67-.883,1.681-1.584.032-1.975.033-4.03,0-6.11a1.514,1.514,0,0,0-1.659-1.61c-.215-.007-.43-.008-.658-.005V7.922c.226,0,.447,0,.667-.005a1.5,1.5,0,0,0,1.6-1.586l.008-.978c.011-1.229.023-2.5-.035-3.752A1.966,1.966,0,0,0,65.643.554c-.077-.1-.154-.207-.216-.311L65.283,0H14.974l-.14.123a2.361,2.361,0,0,0-.774,1.956c.024.848.019,1.7.016,2.544l0,1.224c0,1.557.508,2.061,2.079,2.074h.182V31.186c-1.666.163-1.907.538-1.907,2.391v4.784c0,1.6.385,2.039,1.919,2.124V66.9c-1.768.326-1.919.644-1.919,2.694V72H9.363c0-.057-.005-.115-.005-.171l.017-3.56c.014-2.825.028-5.652.019-8.478,0-.356.029-.392.4-.477a7.918,7.918,0,0,0,4.955-3.659,7.544,7.544,0,0,0,.876-5.8,8.211,8.211,0,0,0-3.932-5.135,7.684,7.684,0,0,0-6.036-.591A7.865,7.865,0,0,0,6.144,59.35c.086.021.171.045.26.07V72.058l-1.59,0c-1.036,0-2.072,0-3.109.006A1.5,1.5,0,0,0,.016,73.638c-.023,1.6-.019,3.2,0,4.8A1.483,1.483,0,0,0,1.55,79.987c.137.007.276.007.416,0h15.3q30.3,0,60.606.009a2.238,2.238,0,0,0,2.03-.831l.093-.13V73.006l-.1-.132a2.17,2.17,0,0,0-1.875-.827M7.844,56.628A4.964,4.964,0,0,1,3,51.515,5.016,5.016,0,0,1,4.607,48.03a4.72,4.72,0,0,1,3.214-1.3c.062,0,.125,0,.189,0a4.95,4.95,0,0,1-.048,9.9l-.118,0M60.9,34.2h2.3v3.248H60.9ZM22.868,34.19h2.388v3.273H22.868Zm5.473.024h2.325v3.269H28.341Zm5.414-.029H36.1v3.277H33.755Zm5.422.013H41.57v3.278H39.177Zm5.454.023h2.361v3.27H44.631Zm5.437-.021h2.343v3.277H50.068Zm5.424,0h2.367v3.25H55.492Zm.547,24.139a6.041,6.041,0,0,0-4.374-6.189,5.957,5.957,0,0,0-5.206.884,5.773,5.773,0,0,0-2.448,4.492c-.077,2.057-.065,4.148-.053,6.168q.009,1.359.009,2.719v.456H19.41V40.53H60.827V66.876H56.042l0-2.876c0-1.888.005-3.776,0-5.664m-9.081-.5A3.006,3.006,0,0,1,50.9,54.994a2.915,2.915,0,0,1,2.144,2.73c.045,2.244.036,4.444.027,6.773,0,.788-.007,1.58-.008,2.377H46.933q0-1.229-.008-2.458c-.011-2.16-.022-4.393.033-6.584M19.416,7.957H60.844V31.145H19.416Zm.407,29.5h-2.4V34.193h2.4ZM62.792,72.016H17.422V69.925h45.37Zm.391-67.125H17.1V3.029H63.183Zm8.893,51.738a4.952,4.952,0,0,1,0-9.9,4.952,4.952,0,0,1,0,9.9ZM77,76.962H3.038V75.087H77Z" fill="url(#linear-gradient)"/>
    <path id="Path_9237" data-name="Path 9237" d="M48.525,46.023c0-.626,0-1.253-.005-1.878a1.512,1.512,0,0,0-1.582-1.683c-1.343-.03-2.7-.028-4.029,0a1.486,1.486,0,0,0-1.541,1.569q-.017,2.739,0,5.479a1.5,1.5,0,0,0,1.587,1.607q1.024.015,2.016.016c.658,0,1.305-.006,1.931-.016a1.506,1.506,0,0,0,1.619-1.639c.014-.615.011-1.231.008-1.847l0-.784Zm-4.139-.551H45.5v2.651H44.386Z" fill="url(#linear-gradient)"/>
    <path id="Path_9238" data-name="Path 9238" d="M33.345,51.125q.942.01,1.883.011.915,0,1.827-.011a1.557,1.557,0,0,0,1.719-1.713c.014-.615.01-1.229.007-1.844l0-.788,0-.828c0-.6.007-1.2-.008-1.8a1.543,1.543,0,0,0-1.663-1.69c-1.339-.024-2.643-.023-3.871,0A1.5,1.5,0,0,0,31.626,44.1q-.026,2.663,0,5.323a1.52,1.52,0,0,0,1.721,1.7m1.292-5.65h1.116v2.653H34.637Z" fill="url(#linear-gradient)"/>
    <path id="Path_9239" data-name="Path 9239" d="M58.262,49.487c.013-.6.01-1.195.007-1.793l0-.836,0-.829c0-.626,0-1.251-.005-1.876a1.512,1.512,0,0,0-1.642-1.694c-1.316-.025-2.62-.023-3.872,0A1.511,1.511,0,0,0,51.115,44.1c-.027,1.848-.026,3.667,0,5.407a1.521,1.521,0,0,0,1.662,1.613q.99.013,1.978.015.945,0,1.892-.016a1.489,1.489,0,0,0,1.614-1.635M55.274,48.1H54.132v-2.63h1.142Z" fill="url(#linear-gradient)"/>
    <path id="Path_9240" data-name="Path 9240" d="M27.374,42.46c-1.25-.025-2.553-.026-3.869,0a1.485,1.485,0,0,0-1.635,1.616c-.019.621-.015,1.242-.011,1.863l0,.846,0,.818c0,.632-.009,1.263.01,1.893a1.48,1.48,0,0,0,1.62,1.627q.957.016,1.913.016.978,0,1.955-.015A1.49,1.49,0,0,0,29,49.505c.029-1.784.029-3.6,0-5.408a1.5,1.5,0,0,0-1.632-1.637M24.84,45.47H26v2.624H24.84Z" fill="url(#linear-gradient)"/>
    <path id="Path_9241" data-name="Path 9241" d="M37.122,52.739q-1.935-.028-3.865,0c-1.1.017-1.616.551-1.634,1.68-.01.591-.008,1.18,0,1.77l0,.781,0,.821c0,.626,0,1.253,0,1.881.016,1.133.534,1.669,1.628,1.687q.966.016,1.933.016t1.933-.015a1.484,1.484,0,0,0,1.651-1.606c.026-1.749.027-3.567,0-5.4a1.484,1.484,0,0,0-1.647-1.611m-2.506,3h1.16v2.636h-1.16Z" fill="url(#linear-gradient)"/>
    <path id="Path_9242" data-name="Path 9242" d="M27.39,52.734H23.46a1.475,1.475,0,0,0-1.593,1.581c-.01.638-.008,1.274-.006,1.911l0,.791,0,.792c0,.638-.009,1.277.008,1.915a1.461,1.461,0,0,0,1.6,1.633c.531.01,1.064.013,1.6.013q.644,0,1.289,0l1.049,0a1.491,1.491,0,0,0,1.6-1.584q.028-2.739,0-5.475a1.489,1.489,0,0,0-1.614-1.57m-1.372,5.612H24.864V55.718h1.154Z" fill="url(#linear-gradient)"/>
    <path id="Path_9243" data-name="Path 9243" d="M27.3,20.6c-1.336-.034-2.667-.031-3.954,0a1.479,1.479,0,0,0-1.587,1.66c-.01.592-.008,1.185-.006,1.778l0,.849,0,.8c0,.608-.005,1.218,0,1.828A1.509,1.509,0,0,0,23.4,29.214q.968.015,1.934.015t1.934-.015a1.516,1.516,0,0,0,1.641-1.63q.031-2.664,0-5.327A1.492,1.492,0,0,0,27.3,20.6m-2.525,2.979h1.1V26.2h-1.1Z" fill="url(#linear-gradient)"/>
    <path id="Path_9244" data-name="Path 9244" d="M38.653,22.272a1.478,1.478,0,0,0-1.579-1.666c-1.261-.033-2.591-.033-3.953,0a1.492,1.492,0,0,0-1.62,1.645q-.03,2.662,0,5.327a1.516,1.516,0,0,0,1.634,1.637q.967.017,1.935.016T37,29.214a1.508,1.508,0,0,0,1.649-1.687c.01-.608.008-1.215.005-1.824l0-.8,0-.8c0-.607,0-1.215-.005-1.824m-4.135,1.31h1.1V26.2h-1.1Z" fill="url(#linear-gradient)"/>
    <path id="Path_9245" data-name="Path 9245" d="M21.759,17.414a1.482,1.482,0,0,0,1.609,1.635c.552.008,1.106.01,1.66.01l1.393,0,.885,0a1.5,1.5,0,0,0,1.6-1.588q.028-2.7,0-5.4a1.481,1.481,0,0,0-1.659-1.6q-1.9-.026-3.788,0a1.494,1.494,0,0,0-1.7,1.7c-.009.613-.007,1.225,0,1.837l0,.713,0,.819c0,.628-.006,1.257.007,1.887m4.125-1.355h-1.1V13.473h1.1Z" fill="url(#linear-gradient)"/>
    <path id="Path_9246" data-name="Path 9246" d="M38.657,13.991c0-.643,0-1.287,0-1.93a1.471,1.471,0,0,0-1.579-1.6c-1.312-.009-2.625-.018-3.939,0A1.479,1.479,0,0,0,31.5,12.087q-.033,2.663,0,5.326a1.516,1.516,0,0,0,1.705,1.639q.961.01,1.925.01.93,0,1.861-.011a1.489,1.489,0,0,0,1.661-1.663c.011-.607.008-1.212.005-1.819l0-.809Zm-4.142-.54h1.1v2.593h-1.1Z" fill="url(#linear-gradient)"/>
    <path id="Path_9247" data-name="Path 9247" d="M48.4,22.261A1.48,1.48,0,0,0,46.817,20.6c-1.291-.033-2.621-.033-3.952,0a1.5,1.5,0,0,0-1.608,1.656c-.026,1.889-.025,3.632,0,5.327A1.506,1.506,0,0,0,42.9,29.214q.966.015,1.933.015t1.932-.015A1.489,1.489,0,0,0,48.4,27.6c.016-.617.013-1.234.009-1.852l0-.778,0-.784c0-.64.007-1.282-.006-1.922M44.275,23.6H45.36v2.622H44.275Z" fill="url(#linear-gradient)"/>
    <path id="Path_9248" data-name="Path 9248" d="M56.55,20.6c-1.314-.011-2.627-.015-3.939.005a1.483,1.483,0,0,0-1.582,1.6c-.005.635,0,1.271,0,1.907v.793l-.005.791c0,.614-.007,1.226.008,1.838a1.514,1.514,0,0,0,1.651,1.681c.541.008,1.083.01,1.624.01q.772,0,1.546,0l.69,0a1.5,1.5,0,0,0,1.632-1.568c.026-1.679.026-3.471,0-5.48A1.5,1.5,0,0,0,56.55,20.6m-2.531,3h1.145v2.6H54.019Z" fill="url(#linear-gradient)"/>
    <path id="Path_9249" data-name="Path 9249" d="M48.4,12.12a1.476,1.476,0,0,0-1.658-1.657q-1.893-.024-3.786,0a1.5,1.5,0,0,0-1.7,1.637c-.027,1.778-.027,3.571,0,5.328A1.5,1.5,0,0,0,42.9,19.05q.966.012,1.931.013t1.931-.013A1.487,1.487,0,0,0,48.4,17.376c.012-.594.01-1.187.007-1.781l0-.77,0-.823c0-.627.005-1.255-.007-1.882m-2.937,3.615v.294h-1.21V13.411h.021a6.157,6.157,0,0,1,1.174.056c.021.748.019,1.5.016,2.268" fill="url(#linear-gradient)"/>
    <path id="Path_9250" data-name="Path 9250" d="M56.468,10.462q-1.855-.021-3.707,0c-1.184.013-1.717.529-1.73,1.674q-.031,2.623,0,5.248c.013,1.13.565,1.66,1.737,1.67q.885.008,1.771.008.927,0,1.855-.008c1.23-.009,1.766-.543,1.792-1.788.012-.587.009-1.173.006-1.76l0-.79,0-.808c0-.583.008-1.167-.01-1.749a1.525,1.525,0,0,0-1.715-1.7m-2.452,3h1.16v2.585h-1.16Z" fill="url(#linear-gradient)"/>
  </g>
</svg>
