<svg id="Group_14347" data-name="Group 14347" xmlns="http://www.w3.org/2000/svg" xmlns:xlink="http://www.w3.org/1999/xlink" width="73.936" height="80" viewBox="0 0 73.936 80">
  <defs>
    <linearGradient id="linear-gradient" x1="0.5" x2="0.5" y2="1" gradientUnits="objectBoundingBox">
      <stop offset="0" stop-color="#0468f7"/>
      <stop offset="1" stop-color="#c645ff"/>
    </linearGradient>
    <clipPath id="clip-path">
      <rect id="Rectangle_4096" data-name="Rectangle 4096" width="73.936" height="80" fill="url(#linear-gradient)"/>
    </clipPath>
  </defs>
  <g id="Group_14346" data-name="Group 14346" clip-path="url(#clip-path)">
    <path id="Path_9251" data-name="Path 9251" d="M46.784,46.5a4.176,4.176,0,0,0-4.062,4.091c-.041,1.187-.023,2.412-.006,3.493a1.529,1.529,0,0,0,1.671,1.672c.325.007.651.009.976.009l.754,0,.747,0,.743,0c.579.005,1.155.007,1.732-.006a1.492,1.492,0,0,0,1.676-1.581c.025-1.182.054-2.522-.042-3.819A4.144,4.144,0,0,0,46.784,46.5m1.222,5.814c0,.148-.007.3-.009.447H45.739c0-.141,0-.282-.007-.422a17.352,17.352,0,0,1,.032-2.01,1.108,1.108,0,0,1,1.1-.865h0a1.1,1.1,0,0,1,1.1.93,16.19,16.19,0,0,1,.033,1.92" fill="url(#linear-gradient)"/>
    <path id="Path_9252" data-name="Path 9252" d="M42.717,41.037a1.489,1.489,0,0,0,1.628,1.624c.562.011,1.13.009,1.69.006h1.554q.384,0,.77,0c.339,0,.678,0,1.016-.008a1.474,1.474,0,0,0,1.643-1.606l0-.14c.021-1.205.042-2.45-.053-3.679a4.032,4.032,0,0,0-4.1-3.806h-.034a4.1,4.1,0,0,0-4.1,3.954c-.057,1.132-.038,2.281-.02,3.391Zm3.019-3.683a1.1,1.1,0,0,1,1.1-.961,1.061,1.061,0,0,1,1.128.874A15.681,15.681,0,0,1,48,39.216c0,.161-.008.321-.011.482H47.96c-.665,0-1.333,0-2.02,0h-.223c0-.143,0-.286-.008-.427-.012-.668-.023-1.3.027-1.92" fill="url(#linear-gradient)"/>
    <path id="Path_9253" data-name="Path 9253" d="M44.338,29.534c.328.007.656.009.984.009l.748,0,.743,0h.846c.567,0,1.135,0,1.7,0a1.475,1.475,0,0,0,1.6-1.58l0-.817c.007-.975.015-1.984-.026-2.98a4.124,4.124,0,0,0-8.231-.021c-.056,1.225-.04,2.466-.025,3.666l0,.138a1.48,1.48,0,0,0,1.651,1.593m1.4-5.511a1.075,1.075,0,0,1,1.128-.767,1.1,1.1,0,0,1,1.068.912c.047.626.037,1.261.026,1.934,0,.144-.005.289-.007.435H45.713c0-.152-.006-.3-.009-.454a17.3,17.3,0,0,1,.036-2.06" fill="url(#linear-gradient)"/>
    <path id="Path_9254" data-name="Path 9254" d="M59.937,55.758a1.506,1.506,0,0,0,1.683-1.646c.018-1.212.03-2.4-.01-3.569a4.131,4.131,0,0,0-8.26.038c-.034,1.19-.02,2.41-.007,3.487a1.527,1.527,0,0,0,1.723,1.691c.557.009,1.112.008,1.669.005l.728,0,.744,0,.747,0c.328,0,.656,0,.983-.009m-1.323-3.447c0,.148-.006.3-.008.446H56.349l-.006-.409c-.012-.685-.023-1.332.027-1.977a1.125,1.125,0,0,1,1.115-.906h.009a1.1,1.1,0,0,1,1.09.866,18.486,18.486,0,0,1,.03,1.98" fill="url(#linear-gradient)"/>
    <path id="Path_9255" data-name="Path 9255" d="M53.346,41.081a1.461,1.461,0,0,0,1.578,1.58c.327.008.655.01.982.01l.751,0,.746,0h2.622a1.469,1.469,0,0,0,1.6-1.58l0-.8c.008-.958.016-1.947-.025-2.925a4.1,4.1,0,0,0-4.111-3.933h-.005a4.1,4.1,0,0,0-4.127,3.924c-.049,1.212-.031,2.44-.014,3.627Zm3.039-3.866a1.108,1.108,0,0,1,1.1-.824h.006a1.069,1.069,0,0,1,1.091.85,17.82,17.82,0,0,1,.031,1.972l-.009.456H56.363c0-.146,0-.292-.008-.436a19.512,19.512,0,0,1,.03-2.018" fill="url(#linear-gradient)"/>
    <path id="Path_9256" data-name="Path 9256" d="M54.917,29.537l3.251,0h.787c.352,0,.7,0,1.056-.006a1.467,1.467,0,0,0,1.572-1.527l.007-.454c.021-1.124.042-2.288-.029-3.435a4.1,4.1,0,0,0-4.109-3.825h-.039a4.056,4.056,0,0,0-4.072,3.789c-.075,1.13-.062,2.275-.049,3.383l.006.5a1.489,1.489,0,0,0,1.619,1.567m3.694-3.392c0,.125,0,.251-.005.378h-2.3c0-.138-.006-.275-.009-.412a16.006,16.006,0,0,1,.033-1.907,1.092,1.092,0,0,1,1.141-.953A1.165,1.165,0,0,1,58.6,24.366c.032.584.024,1.17.016,1.779" fill="url(#linear-gradient)"/>
    <path id="Path_9257" data-name="Path 9257" d="M20.684,48.267a1.566,1.566,0,0,0-1.745-1.776q-2.4-.027-4.8,0a1.59,1.59,0,0,0-1.789,1.818q-.018,2.819,0,5.639a1.582,1.582,0,0,0,1.788,1.812q1.177.008,2.356.008t2.355-.007c1.268-.006,1.816-.558,1.833-1.846.008-.639.006-1.278,0-1.917l0-.867,0-.866c0-.665.006-1.332-.007-2m-5.3,1.234h2.271v3.263H15.386Z" fill="url(#linear-gradient)"/>
    <path id="Path_9258" data-name="Path 9258" d="M29.57,55.758a1.524,1.524,0,0,0,1.715-1.713q.03-2.934,0-5.872a1.51,1.51,0,0,0-1.673-1.679c-1.645-.025-3.309-.025-4.952,0a1.55,1.55,0,0,0-1.678,1.756c-.008.656-.006,1.313,0,1.969l0,.891,0,.906c0,.677-.006,1.355.005,2.033a1.541,1.541,0,0,0,1.72,1.709q1.218.01,2.434.011t2.434-.011M28.3,52.742H26V49.495h2.3Z" fill="url(#linear-gradient)"/>
    <path id="Path_9259" data-name="Path 9259" d="M12.354,40.857c.015,1.243.564,1.8,1.779,1.807q1.2.007,2.395.007t2.394-.007a1.543,1.543,0,0,0,1.76-1.75q.027-2.859,0-5.717a1.55,1.55,0,0,0-1.738-1.775q-2.433-.027-4.871,0a1.536,1.536,0,0,0-1.718,1.708c-.015.669-.011,1.337-.008,2.006l0,.86,0,.863c0,.665,0,1.332.005,2m3.01-4.437h2.317v3.223H15.364Z" fill="url(#linear-gradient)"/>
    <path id="Path_9260" data-name="Path 9260" d="M22.984,41a1.5,1.5,0,0,0,1.679,1.658q1.236.01,2.472.01t2.473-.01A1.483,1.483,0,0,0,31.283,41q.034-2.937,0-5.873a1.512,1.512,0,0,0-1.715-1.707q-2.433-.029-4.871,0c-1.176.015-1.706.565-1.718,1.782-.008.679-.006,1.358,0,2.038l0,.745,0,.9c0,.706-.006,1.411.008,2.116m5.287-1.352H26V36.4h2.27Z" fill="url(#linear-gradient)"/>
    <path id="Path_9261" data-name="Path 9261" d="M69.081,73.013a12.531,12.531,0,0,0,1.558-.654,6.655,6.655,0,0,0,3.279-4.46.522.522,0,0,0,.018-.13v-1.7a.474.474,0,0,0-.04-.193l-.249-.584c-.236-.553-.473-1.106-.695-1.664a.445.445,0,0,1,0-.2,5.436,5.436,0,0,0-.63-4.229.43.43,0,0,1-.051-.2,4.958,4.958,0,0,0-3.564-5.857V15.487c1.656-.15,1.876-.5,1.876-2.346V11.717q0-1.6,0-3.206c0-1.486-.492-1.966-2-1.977l-2.4-.018V4.7c0-.257.005-.514.013-.77a14.462,14.462,0,0,0-.041-1.9,4.212,4.212,0,0,0-.4-1.241c-.067-.153-.132-.305-.189-.459A.5.5,0,0,0,65.109,0H59.863a.5.5,0,0,0-.292.1,2.108,2.108,0,0,0-.834,1.877c.024,1.165.019,2.331.014,3.521l0,.971H55.868l0-.894c0-1.164-.009-2.333.016-3.5A2.342,2.342,0,0,0,55.092.118.493.493,0,0,0,54.771,0H49.527a.5.5,0,0,0-.316.113,2.3,2.3,0,0,0-.8,1.953c.027,1.165.021,2.329.016,3.515l0,.952H44.771q-4.415,0-8.826,0c-1.387,0-1.9.522-1.909,1.914,0,1.14,0,2.28,0,3.419v1.366c0,1.564.154,1.9,1.413,2.248v3.909q-14.979-.006-29.955,0c-1.359,0-1.868.506-1.879,1.862-.009,1.2-.007,2.4-.005,3.6l0,1.258c0,1.614.3,2.046,1.735,2.193V53.146C2.513,54.2,1.5,55.866,1.767,59a.823.823,0,0,1-.139.353,5.433,5.433,0,0,0-.58,3.917.948.948,0,0,1-.094.582A5.965,5.965,0,0,0,2.215,71.46a11.706,11.706,0,0,0,2.273,1.393c.284.147.574.3.863.455v3.706l-1.32,0c-.8,0-1.594,0-2.392.008A1.5,1.5,0,0,0,0,78.469a1.3,1.3,0,0,0,.33.97,1.792,1.792,0,0,0,1.278.549c.082.006.162,0,.332,0H7.367c22.758,0,41.084,0,64.6.01a2.2,2.2,0,0,0,1.864-.818.486.486,0,0,0,.1-.3v-.772a.493.493,0,0,0-.318-.461c-.152-.058-.3-.129-.453-.2a3.645,3.645,0,0,0-1.257-.4c-.868-.062-1.717-.051-2.615-.037l-.591.006V73.153l.379-.14M52.9,3.022V6.447l-1.443.022V3.022Zm10.3,3.445H61.769V3.035h1.422ZM37.042,9.534H67.6V12.48H37.042ZM58.424,65.888a5.847,5.847,0,0,0-3.856-5.805,5.725,5.725,0,0,0-5.186.709,6.106,6.106,0,0,0-2.473,5.015c-.022,2.464-.018,4.929-.013,7.394L46.9,76.95H38.578V28.312c1.353-.2,1.6-.611,1.6-2.154v-.971c0-1.3,0-2.594,0-3.89,0-1.34-.428-1.844-1.66-1.9V15.513H65.64V53.14a5.131,5.131,0,0,0-3.517,3.5,1.021,1.021,0,0,0-.09.489,8.782,8.782,0,0,1-.731,4.057.913.913,0,0,0-.045.492,6.913,6.913,0,0,1-.437,3.3l-.152.514a5.747,5.747,0,0,0,.568,4.459,6.542,6.542,0,0,0,4.024,3.065l.426.109V77c-.093.005-.179.009-.264.009l-6.992,0,0-3.673c0-2.484.006-4.969-.008-7.453m-8.549-.249a2.713,2.713,0,0,1,1.449-2.558,2.594,2.594,0,0,1,2.8.055,2.521,2.521,0,0,1,1.316,2.179c.024,2.913.021,5.824.015,8.771v2.9H49.875l0-1.5q-.008-4.922,0-9.841M63.253,66.91c.077-.181.149-.364.22-.548a9.067,9.067,0,0,1,.645-1.4,2.052,2.052,0,0,0,.272-2.019,2.263,2.263,0,0,1,.378-2.464,1.855,1.855,0,0,0,.312-1.9,1.784,1.784,0,0,1,.657-2.236,2.532,2.532,0,0,1,2.886,0,1.808,1.808,0,0,1,.659,2.233,1.856,1.856,0,0,0,.31,1.9,2.477,2.477,0,0,1,.377,2.572,2.011,2.011,0,0,0,.206,1.739,3.245,3.245,0,0,1,.177,3.986,4.05,4.05,0,0,1-4.289,1.395,3.821,3.821,0,0,1-2.81-3.259M37.217,24.1v1.2H6.6V22.4H37.214c0,.015,0,.031,0,.046ZM27.073,65.7a5.7,5.7,0,0,0-4.788-5.844,5.809,5.809,0,0,0-4.694,1.282A5.948,5.948,0,0,0,15.58,65.7c-.021,2.544-.017,5.088-.012,7.633l0,3.636H8.413V73.184c.179-.079.358-.154.538-.23a12.34,12.34,0,0,0,1.847-.908,6.085,6.085,0,0,0,1.987-8.189.94.94,0,0,1-.1-.572,5.6,5.6,0,0,0-.577-3.915.889.889,0,0,1-.14-.419c.328-3-.811-4.842-3.579-5.8V28.366h27.06V76.953H27.08l0-3.567c0-2.563.008-5.126-.01-7.689M4.065,62.933a2.268,2.268,0,0,1,.353-2.406,1.9,1.9,0,0,0,.334-1.969,1.8,1.8,0,0,1,.688-2.224,2.523,2.523,0,0,1,2.884.02,1.809,1.809,0,0,1,.637,2.238,1.82,1.82,0,0,0,.324,1.9A2.441,2.441,0,0,1,9.668,63a2.035,2.035,0,0,0,.166,1.748,3.251,3.251,0,0,1,.113,4.144,4.07,4.07,0,0,1-4.482,1.192,3.832,3.832,0,0,1-2.532-3.188c.078-.18.153-.361.227-.542a9.253,9.253,0,0,1,.66-1.394,2.082,2.082,0,0,0,.245-2.024m4.022-9.362V53.49h.027l-.026.082h0m10.475,11.9a2.726,2.726,0,0,1,1.912-2.615,2.788,2.788,0,0,1,3.1.992,3.29,3.29,0,0,1,.552,2.1l0,10.719c0,.1,0,.2-.008.3H18.553l0-2.582c0-2.972,0-5.942.012-8.914" fill="url(#linear-gradient)"/>
  </g>
</svg>
