<svg xmlns="http://www.w3.org/2000/svg" xmlns:xlink="http://www.w3.org/1999/xlink" width="110.227" height="80" viewBox="0 0 110.227 80">
  <defs>
    <linearGradient id="linear-gradient" x1="0.5" x2="0.5" y2="1" gradientUnits="objectBoundingBox">
      <stop offset="0" stop-color="#0468f7"/>
      <stop offset="1" stop-color="#c645ff"/>
    </linearGradient>
  </defs>
  <g id="Group_14339" data-name="Group 14339" transform="translate(0 -21.937)">
    <path id="Path_8802" data-name="Path 8802" d="M103.114,213.333a4.789,4.789,0,0,0,1.776.346,4.863,4.863,0,0,0,.856-.076,5.153,5.153,0,0,0,3.071-1.861,6.487,6.487,0,0,0,1.276-5.386,6.2,6.2,0,0,0-2.179-3.621l-4.8-3.857v-13.2H92.447v4.627l-7.9-6.347a9.912,9.912,0,0,0-12.65,0L55.112,197.448,38.326,183.959a9.913,9.913,0,0,0-12.65,0l-7.9,6.346v-4.627H7.111v13.2L2.234,202.8a6.1,6.1,0,0,0-2.161,3.9,6.5,6.5,0,0,0,1.61,5.366,5.035,5.035,0,0,0,2.61,1.509,4.927,4.927,0,0,0,1.047.114,4.758,4.758,0,0,0,1.771-.346v24.345H0v24H110.225v-24h-7.111ZM96,245.679v-4h3.556v4Zm-30.86,0a6.882,6.882,0,0,0-2.919-1.742v-2.258h8.889v4Zm-20.06,0h-5.97v-4H48v2.258a6.883,6.883,0,0,0-2.919,1.742Zm-30.86-4v4H10.667v-4Zm3.556,0h3.556v4H17.778Zm23.112-4H23.112v-16H40.89Zm-16,4h3.556v4H24.89Zm7.111,0h3.556v4H32Zm19.556-8h3.556v-4H51.557v-16h7.111v8H55.113v4h3.556v13.075a6.415,6.415,0,0,0-7.111,0Zm35.556,4H69.335v-16H87.113Zm-12.445,4h3.556v4H74.668Zm7.111,0h3.556v4H81.78Zm7.111,0h3.556v4H88.891Zm1.778-4v-20H65.779v20H62.224V212.151c.129-.13.253-.265.371-.409a6.486,6.486,0,0,0,1.276-5.386,6.344,6.344,0,0,0-.28-.974L78.1,193.723a.2.2,0,0,1,.25,0l21.21,17.044v26.912Zm5.333-48h3.556v6.342L96,193.163Zm-22.038-2.465a6.673,6.673,0,0,1,8.517,0l23.366,18.776a2.157,2.157,0,0,1,.344,3.054,1.682,1.682,0,0,1-1,.608,1.62,1.62,0,0,1-1.332-.346L80.415,190.469a3.434,3.434,0,0,0-4.383,0l-14.8,11.895-3.059-2.458Zm-63.3,2.465h3.556v3.484l-3.556,2.857Zm-5.7,19.96a1.629,1.629,0,0,1-.834-.48,2.166,2.166,0,0,1-.553-1.809,2.031,2.031,0,0,1,.72-1.3l23.442-18.837a6.673,6.673,0,0,1,8.517,0L59.625,205.99a2.157,2.157,0,0,1,.344,3.054,1.681,1.681,0,0,1-1,.608,1.623,1.623,0,0,1-1.333-.346L34.192,190.469a3.434,3.434,0,0,0-4.383,0L6.366,209.307a1.617,1.617,0,0,1-1.4.332Zm5.7,1.128,21.209-17.043a.2.2,0,0,1,.249,0l19.856,15.955H48v28H44.446v-20H19.556v20H10.667ZM7.111,241.679v4H3.556v-4Zm-3.556,8H42.9c-.016.068-.034.135-.049.2a7.872,7.872,0,0,0-5.514,7.8H3.556Zm40.89,4h1.778v-2a3.8,3.8,0,0,1,3.556-4h1.778v-2a3.58,3.58,0,1,1,7.111,0v2h1.778a3.8,3.8,0,0,1,3.556,4v2H65.78a3.8,3.8,0,0,1,3.556,4H40.89a3.8,3.8,0,0,1,3.556-4Zm28.445,4a7.872,7.872,0,0,0-5.514-7.8c-.014-.069-.033-.135-.049-.2h39.341v8H72.891Zm33.779-12h-3.556v-4h3.556Z" transform="translate(0 -159.742)" fill="url(#linear-gradient)"/>
    <path id="Path_8803" data-name="Path 8803" d="M342.929,247.742a4.355,4.355,0,1,0,4.355,4.355A4.36,4.36,0,0,0,342.929,247.742Zm0,5.806a1.452,1.452,0,1,1,1.452-1.452A1.453,1.453,0,0,1,342.929,253.548Z" transform="translate(-264.25 -202.326)" fill="url(#linear-gradient)"/>
    <path id="Path_8804" data-name="Path 8804" d="M128.223,256.451a4.355,4.355,0,1,0-4.355-4.355A4.36,4.36,0,0,0,128.223,256.451Zm0-5.806a1.452,1.452,0,1,1-1.452,1.452A1.453,1.453,0,0,1,128.223,250.644Z" transform="translate(-96.677 -202.325)" fill="url(#linear-gradient)"/>
  </g>
</svg>
