<svg xmlns="http://www.w3.org/2000/svg" xmlns:xlink="http://www.w3.org/1999/xlink" width="79.999" height="80" viewBox="0 0 79.999 80">
  <defs>
    <linearGradient id="linear-gradient" x1="0.5" x2="0.5" y2="1" gradientUnits="objectBoundingBox">
      <stop offset="0" stop-color="#0468f7"/>
      <stop offset="1" stop-color="#c645ff"/>
    </linearGradient>
  </defs>
  <g id="XMLID_1948_" transform="translate(-0.002 0.001)">
    <g id="XMLID_1949_" transform="translate(0.002 -0.001)">
      <g id="XMLID_16_">
        <path id="XMLID_457_" d="M74.689,35.625h-29A14.522,14.522,0,0,0,55.757,20.388a1.562,1.562,0,0,0-1.406-1.406A14.481,14.481,0,0,0,42.69,23.168a14.645,14.645,0,0,0-1.127,1.267V17.381a14.467,14.467,0,0,0,10.009-4.247A14.479,14.479,0,0,0,55.757,1.473,1.562,1.562,0,0,0,54.352.067,14.521,14.521,0,0,0,38.577,12.508a14.624,14.624,0,0,0-1.264-1.442A14.476,14.476,0,0,0,25.652,6.88a1.562,1.562,0,0,0-1.406,1.406A14.513,14.513,0,0,0,38.438,24.194V35.624H5.314A5.318,5.318,0,0,0,0,40.937v33.75A5.318,5.318,0,0,0,5.314,80H32.97a1.562,1.562,0,1,0,0-3.125H13.195A11.581,11.581,0,0,0,3.127,66.807V48.817A11.581,11.581,0,0,0,13.195,38.75H66.809A11.581,11.581,0,0,0,76.876,48.817v17.99A11.581,11.581,0,0,0,66.809,76.874H32.469a1.562,1.562,0,0,0,0,3.125H74.689A5.318,5.318,0,0,0,80,74.687V40.937a5.318,5.318,0,0,0-5.312-5.312ZM44.9,25.378a11.354,11.354,0,0,1,7.8-3.335A11.4,11.4,0,0,1,41.565,33.174,11.355,11.355,0,0,1,44.9,25.378Zm0-18.915a11.354,11.354,0,0,1,7.8-3.335A11.4,11.4,0,0,1,41.565,14.259,11.355,11.355,0,0,1,44.9,6.462ZM30.641,17.737a11.356,11.356,0,0,1-3.335-7.8A11.4,11.4,0,0,1,38.438,21.069v0A11.356,11.356,0,0,1,30.641,17.737Zm-20.6,59.137H5.314a2.19,2.19,0,0,1-2.187-2.187V69.963A8.456,8.456,0,0,1,10.039,76.874ZM3.127,45.662V40.937A2.19,2.19,0,0,1,5.314,38.75h4.724A8.457,8.457,0,0,1,3.127,45.662ZM69.965,38.75h4.724a2.19,2.19,0,0,1,2.187,2.187v4.724A8.457,8.457,0,0,1,69.965,38.75Zm4.724,38.125H69.965a8.457,8.457,0,0,1,6.912-6.912v4.724A2.19,2.19,0,0,1,74.689,76.874Z" transform="translate(-0.002 0.001)" fill="url(#linear-gradient)"/>
        <path id="XMLID_737_" d="M199.627,300.816a12.812,12.812,0,1,0-12.812,12.812A12.827,12.827,0,0,0,199.627,300.816Zm-22.5,0a9.687,9.687,0,1,1,9.687,9.687A9.7,9.7,0,0,1,177.127,300.816Z" transform="translate(-146.815 -243.004)" fill="url(#linear-gradient)"/>
        <path id="XMLID_740_" d="M78.009,343a5,5,0,1,0,5-5A5.006,5.006,0,0,0,78.009,343Zm6.875,0a1.875,1.875,0,1,1-1.875-1.875A1.877,1.877,0,0,1,84.884,343Z" transform="translate(-65.821 -285.191)" fill="url(#linear-gradient)"/>
        <path id="XMLID_743_" d="M379.995,343a5,5,0,1,0-5,5A5.006,5.006,0,0,0,379.995,343Zm-6.875,0a1.875,1.875,0,1,1,1.875,1.875A1.877,1.877,0,0,1,373.12,343Z" transform="translate(-312.184 -285.191)" fill="url(#linear-gradient)"/>
      </g>
    </g>
  </g>
</svg>
