<svg xmlns="http://www.w3.org/2000/svg" xmlns:xlink="http://www.w3.org/1999/xlink" width="31.799" height="20" viewBox="0 0 31.799 20">
  <defs>
    <linearGradient id="linear-gradient" y1="0.5" x2="1" y2="0.5" gradientUnits="objectBoundingBox">
      <stop offset="0" stop-color="#0069f7"/>
      <stop offset="0.112" stop-color="#3d5ef9"/>
      <stop offset="0.37" stop-color="#7753fc"/>
      <stop offset="0.627" stop-color="#a24cfe"/>
      <stop offset="0.802" stop-color="#bc47ff"/>
      <stop offset="0.892" stop-color="#c645ff"/>
      <stop offset="1" stop-color="#c645ff"/>
    </linearGradient>
  </defs>
  <g id="_001-united-states" data-name="001-united-states" transform="translate(0 -88.276)">
    <path id="Path_11043" data-name="Path 11043" d="M31.25,108.276H.548A.538.538,0,0,1,0,107.75V88.8a.538.538,0,0,1,.548-.526h30.7a.538.538,0,0,1,.548.526V107.75A.538.538,0,0,1,31.25,108.276Z" transform="translate(0 0)" fill="#f5f5f5"/>
    <g id="Group_18220" data-name="Group 18220" transform="translate(0 88.276)">
      <path id="Path_11044" data-name="Path 11044" d="M31.8,90.88H0V89.167c0-.492.246-.891.548-.891h30.7c.3,0,.548.4.548.891V90.88Z" transform="translate(0 -88.276)" fill="url(#linear-gradient)"/>
      <rect id="Rectangle_5523" data-name="Rectangle 5523" width="31.799" height="2.604" transform="translate(0 4.257)" fill="url(#linear-gradient)"/>
      <path id="Path_11045" data-name="Path 11045" d="M31.8,245.7H.548c-.3,0-.548-.4-.548-.891V243.1H31.8Z" transform="translate(0 -234.457)" fill="url(#linear-gradient)"/>
      <path id="Path_11046" data-name="Path 11046" d="M31.25,400.513H.548c-.3,0-.548-.4-.548-.887v-1.705H31.8v1.705C31.8,400.116,31.553,400.513,31.25,400.513Z" transform="translate(0 -380.513)" fill="url(#linear-gradient)"/>
      <rect id="Rectangle_5525" data-name="Rectangle 5525" width="31.799" height="2.604" transform="translate(0 13.024)" fill="url(#linear-gradient)"/>
    </g>
    <path id="Path_11047" data-name="Path 11047" d="M14.255,88.277H.548A.548.548,0,0,0,0,88.825V98.947a.548.548,0,0,0,.548.548H14.255a.548.548,0,0,0,.548-.548V88.825A.548.548,0,0,0,14.255,88.277Z" transform="translate(0 -0.001)" fill="#0468f7"/>
    <g id="Group_18221" data-name="Group 18221" transform="translate(0.885 89.499)">
      <path id="Path_11048" data-name="Path 11048" d="M14.907,108l.121.364.384,0a.052.052,0,0,1,.03.093l-.309.228.116.366a.052.052,0,0,1-.079.058l-.312-.223-.312.223a.052.052,0,0,1-.079-.058l.116-.366-.309-.228a.052.052,0,0,1,.03-.093l.384,0,.121-.364A.052.052,0,0,1,14.907,108Z" transform="translate(-14.253 -107.969)" fill="#f5f5f5"/>
      <path id="Path_11049" data-name="Path 11049" d="M14.907,138.659l.121.364.384,0a.052.052,0,0,1,.03.093l-.309.228.116.366a.052.052,0,0,1-.079.058l-.312-.223-.312.223a.052.052,0,0,1-.079-.058l.116-.366-.309-.228a.052.052,0,0,1,.03-.093l.384,0,.121-.364A.052.052,0,0,1,14.907,138.659Z" transform="translate(-14.253 -136.72)" fill="#f5f5f5"/>
      <path id="Path_11050" data-name="Path 11050" d="M14.907,169.313l.121.364.384,0a.052.052,0,0,1,.03.093l-.309.228.116.366a.052.052,0,0,1-.079.058l-.312-.223-.312.223a.052.052,0,0,1-.079-.058l.116-.366-.309-.228a.052.052,0,0,1,.03-.093l.384,0,.121-.364A.052.052,0,0,1,14.907,169.313Z" transform="translate(-14.253 -165.47)" fill="#f5f5f5"/>
      <path id="Path_11051" data-name="Path 11051" d="M14.907,199.967l.121.364.384,0a.052.052,0,0,1,.03.093l-.309.228.116.366a.052.052,0,0,1-.079.058l-.312-.223-.312.223a.052.052,0,0,1-.079-.058l.116-.366-.309-.228a.052.052,0,0,1,.03-.093l.384,0,.121-.364A.052.052,0,0,1,14.907,199.967Z" transform="translate(-14.253 -194.22)" fill="#f5f5f5"/>
      <path id="Path_11052" data-name="Path 11052" d="M14.907,230.621l.121.364.384,0a.052.052,0,0,1,.03.093l-.309.228.116.366a.052.052,0,0,1-.079.058l-.312-.223-.312.223a.052.052,0,0,1-.079-.058l.116-.366-.309-.228a.052.052,0,0,1,.03-.093l.384,0,.121-.364A.052.052,0,0,1,14.907,230.621Z" transform="translate(-14.253 -222.97)" fill="#f5f5f5"/>
      <path id="Path_11053" data-name="Path 11053" d="M38.7,123.034l.121.364.384,0a.052.052,0,0,1,.03.093l-.309.228.116.366a.052.052,0,0,1-.079.058l-.312-.223-.312.223a.052.052,0,0,1-.079-.058l.116-.366-.309-.228a.052.052,0,0,1,.03-.093l.384,0,.121-.364A.052.052,0,0,1,38.7,123.034Z" transform="translate(-36.568 -122.065)" fill="#f5f5f5"/>
      <path id="Path_11054" data-name="Path 11054" d="M38.7,153.688l.121.364.384,0a.052.052,0,0,1,.03.093l-.309.228.116.366a.052.052,0,0,1-.079.058l-.312-.223-.312.223a.052.052,0,0,1-.079-.058l.116-.366-.309-.228a.052.052,0,0,1,.03-.093l.384,0,.121-.364A.052.052,0,0,1,38.7,153.688Z" transform="translate(-36.568 -150.815)" fill="#f5f5f5"/>
      <path id="Path_11055" data-name="Path 11055" d="M38.7,184.342l.121.364.384,0a.052.052,0,0,1,.03.093l-.309.228.116.366a.052.052,0,0,1-.079.058l-.312-.223-.312.223a.052.052,0,0,1-.079-.058l.116-.366-.309-.228a.052.052,0,0,1,.03-.093l.384,0,.121-.364A.052.052,0,0,1,38.7,184.342Z" transform="translate(-36.568 -179.566)" fill="#f5f5f5"/>
      <path id="Path_11056" data-name="Path 11056" d="M38.7,215l.121.364.384,0a.052.052,0,0,1,.03.093l-.309.228.116.366a.052.052,0,0,1-.079.058l-.312-.223-.312.223a.052.052,0,0,1-.079-.058l.116-.366-.309-.228a.052.052,0,0,1,.03-.093l.384,0L38.6,215A.052.052,0,0,1,38.7,215Z" transform="translate(-36.568 -208.316)" fill="#f5f5f5"/>
      <path id="Path_11057" data-name="Path 11057" d="M62.493,108l.121.364.384,0a.052.052,0,0,1,.03.093l-.309.228.116.366a.052.052,0,0,1-.079.058l-.312-.223-.312.223a.052.052,0,0,1-.079-.058l.116-.366-.309-.228a.052.052,0,0,1,.03-.093l.384,0L62.4,108A.052.052,0,0,1,62.493,108Z" transform="translate(-58.883 -107.969)" fill="#f5f5f5"/>
      <path id="Path_11058" data-name="Path 11058" d="M62.493,138.659l.121.364.384,0a.052.052,0,0,1,.03.093l-.309.228.116.366a.052.052,0,0,1-.079.058l-.312-.223-.312.223a.052.052,0,0,1-.079-.058l.116-.366-.309-.228a.052.052,0,0,1,.03-.093l.384,0,.121-.364A.052.052,0,0,1,62.493,138.659Z" transform="translate(-58.883 -136.72)" fill="#f5f5f5"/>
      <path id="Path_11059" data-name="Path 11059" d="M62.493,169.313l.121.364.384,0a.052.052,0,0,1,.03.093L62.72,170l.116.366a.052.052,0,0,1-.079.058l-.312-.223-.312.223a.052.052,0,0,1-.079-.058l.116-.366-.309-.228a.052.052,0,0,1,.03-.093l.384,0,.121-.364A.052.052,0,0,1,62.493,169.313Z" transform="translate(-58.883 -165.47)" fill="#f5f5f5"/>
      <path id="Path_11060" data-name="Path 11060" d="M62.493,199.967l.121.364.384,0a.052.052,0,0,1,.03.093l-.309.228.116.366a.052.052,0,0,1-.079.058l-.312-.223-.312.223a.052.052,0,0,1-.079-.058l.116-.366-.309-.228a.052.052,0,0,1,.03-.093l.384,0,.121-.364A.052.052,0,0,1,62.493,199.967Z" transform="translate(-58.883 -194.22)" fill="#f5f5f5"/>
      <path id="Path_11061" data-name="Path 11061" d="M62.493,230.621l.121.364.384,0a.052.052,0,0,1,.03.093l-.309.228.116.366a.052.052,0,0,1-.079.058l-.312-.223-.312.223a.052.052,0,0,1-.079-.058l.116-.366-.309-.228a.052.052,0,0,1,.03-.093l.384,0,.121-.364A.052.052,0,0,1,62.493,230.621Z" transform="translate(-58.883 -222.97)" fill="#f5f5f5"/>
      <path id="Path_11062" data-name="Path 11062" d="M86.287,123.034l.121.364.384,0a.052.052,0,0,1,.03.093l-.309.228.116.366a.052.052,0,0,1-.079.058l-.312-.223-.312.223a.052.052,0,0,1-.079-.058l.116-.366-.309-.228a.052.052,0,0,1,.03-.093l.384,0,.121-.364A.052.052,0,0,1,86.287,123.034Z" transform="translate(-81.199 -122.065)" fill="#f5f5f5"/>
      <path id="Path_11063" data-name="Path 11063" d="M86.287,153.688l.121.364.384,0a.052.052,0,0,1,.03.093l-.309.228.116.366a.052.052,0,0,1-.079.058l-.312-.223-.312.223a.052.052,0,0,1-.079-.058l.116-.366-.309-.228a.052.052,0,0,1,.03-.093l.384,0,.121-.364A.052.052,0,0,1,86.287,153.688Z" transform="translate(-81.199 -150.815)" fill="#f5f5f5"/>
      <path id="Path_11064" data-name="Path 11064" d="M86.287,184.342l.121.364.384,0a.052.052,0,0,1,.03.093l-.309.228.116.366a.052.052,0,0,1-.079.058l-.312-.223-.312.223a.052.052,0,0,1-.079-.058l.116-.366-.309-.228a.052.052,0,0,1,.03-.093l.384,0,.121-.364A.052.052,0,0,1,86.287,184.342Z" transform="translate(-81.199 -179.566)" fill="#f5f5f5"/>
      <path id="Path_11065" data-name="Path 11065" d="M86.287,215l.121.364.384,0a.052.052,0,0,1,.03.093l-.309.228.116.366a.052.052,0,0,1-.079.058l-.312-.223-.312.223a.052.052,0,0,1-.079-.058l.116-.366-.309-.228a.052.052,0,0,1,.03-.093l.384,0,.121-.364A.052.052,0,0,1,86.287,215Z" transform="translate(-81.199 -208.316)" fill="#f5f5f5"/>
      <path id="Path_11066" data-name="Path 11066" d="M110.079,108l.121.364.384,0a.052.052,0,0,1,.03.093l-.309.228.116.366a.052.052,0,0,1-.079.058l-.312-.223-.312.223a.052.052,0,0,1-.079-.058l.116-.366-.309-.228a.052.052,0,0,1,.03-.093l.384,0,.121-.364A.052.052,0,0,1,110.079,108Z" transform="translate(-103.514 -107.969)" fill="#f5f5f5"/>
      <path id="Path_11067" data-name="Path 11067" d="M110.079,138.659l.121.364.384,0a.052.052,0,0,1,.03.093l-.309.228.116.366a.052.052,0,0,1-.079.058l-.312-.223-.312.223a.052.052,0,0,1-.079-.058l.116-.366-.309-.228a.052.052,0,0,1,.03-.093l.384,0,.121-.364A.052.052,0,0,1,110.079,138.659Z" transform="translate(-103.514 -136.72)" fill="#f5f5f5"/>
      <path id="Path_11068" data-name="Path 11068" d="M110.079,169.313l.121.364.384,0a.052.052,0,0,1,.03.093l-.309.228.116.366a.052.052,0,0,1-.079.058l-.312-.223-.312.223a.052.052,0,0,1-.079-.058l.116-.366-.309-.228a.052.052,0,0,1,.03-.093l.384,0,.121-.364A.052.052,0,0,1,110.079,169.313Z" transform="translate(-103.514 -165.47)" fill="#f5f5f5"/>
      <path id="Path_11069" data-name="Path 11069" d="M110.079,199.967l.121.364.384,0a.052.052,0,0,1,.03.093l-.309.228.116.366a.052.052,0,0,1-.079.058l-.312-.223-.312.223a.052.052,0,0,1-.079-.058l.116-.366-.309-.228a.052.052,0,0,1,.03-.093l.384,0,.121-.364A.052.052,0,0,1,110.079,199.967Z" transform="translate(-103.514 -194.22)" fill="#f5f5f5"/>
      <path id="Path_11070" data-name="Path 11070" d="M110.079,230.621l.121.364.384,0a.052.052,0,0,1,.03.093l-.309.228.116.366a.052.052,0,0,1-.079.058l-.312-.223-.312.223a.052.052,0,0,1-.079-.058l.116-.366-.309-.228a.052.052,0,0,1,.03-.093l.384,0,.121-.364A.052.052,0,0,1,110.079,230.621Z" transform="translate(-103.514 -222.97)" fill="#f5f5f5"/>
      <path id="Path_11071" data-name="Path 11071" d="M133.873,123.034l.121.364.384,0a.052.052,0,0,1,.03.093l-.309.228.116.366a.052.052,0,0,1-.079.058l-.312-.223-.312.223a.052.052,0,0,1-.079-.058l.116-.366-.309-.228a.052.052,0,0,1,.03-.093l.384,0,.121-.364A.052.052,0,0,1,133.873,123.034Z" transform="translate(-125.83 -122.065)" fill="#f5f5f5"/>
      <path id="Path_11072" data-name="Path 11072" d="M133.873,153.688l.121.364.384,0a.052.052,0,0,1,.03.093l-.309.228.116.366a.052.052,0,0,1-.079.058l-.312-.223-.312.223a.052.052,0,0,1-.079-.058l.116-.366-.309-.228a.052.052,0,0,1,.03-.093l.384,0,.121-.364A.052.052,0,0,1,133.873,153.688Z" transform="translate(-125.83 -150.815)" fill="#f5f5f5"/>
      <path id="Path_11073" data-name="Path 11073" d="M133.873,184.342l.121.364.384,0a.052.052,0,0,1,.03.093l-.309.228.116.366a.052.052,0,0,1-.079.058l-.312-.223-.312.223a.052.052,0,0,1-.079-.058l.116-.366-.309-.228a.052.052,0,0,1,.03-.093l.384,0,.121-.364A.052.052,0,0,1,133.873,184.342Z" transform="translate(-125.83 -179.566)" fill="#f5f5f5"/>
      <path id="Path_11074" data-name="Path 11074" d="M133.873,215l.121.364.384,0a.052.052,0,0,1,.03.093l-.309.228.116.366a.052.052,0,0,1-.079.058l-.312-.223-.312.223a.052.052,0,0,1-.079-.058l.116-.366-.309-.228a.052.052,0,0,1,.03-.093l.384,0,.121-.364A.052.052,0,0,1,133.873,215Z" transform="translate(-125.83 -208.316)" fill="#f5f5f5"/>
      <path id="Path_11075" data-name="Path 11075" d="M157.667,108l.121.364.384,0a.052.052,0,0,1,.03.093l-.309.228.116.366a.052.052,0,0,1-.079.058l-.312-.223-.312.223a.052.052,0,0,1-.079-.058l.116-.366-.309-.228a.052.052,0,0,1,.03-.093l.384,0,.121-.364A.052.052,0,0,1,157.667,108Z" transform="translate(-148.146 -107.969)" fill="#f5f5f5"/>
      <path id="Path_11076" data-name="Path 11076" d="M157.667,138.659l.121.364.384,0a.052.052,0,0,1,.03.093l-.309.228.116.366a.052.052,0,0,1-.079.058l-.312-.223-.312.223a.052.052,0,0,1-.079-.058l.116-.366-.309-.228a.052.052,0,0,1,.03-.093l.384,0,.121-.364A.052.052,0,0,1,157.667,138.659Z" transform="translate(-148.146 -136.72)" fill="#f5f5f5"/>
      <path id="Path_11077" data-name="Path 11077" d="M157.667,169.313l.121.364.384,0a.052.052,0,0,1,.03.093l-.309.228.116.366a.052.052,0,0,1-.079.058l-.312-.223-.312.223a.052.052,0,0,1-.079-.058l.116-.366-.309-.228a.052.052,0,0,1,.03-.093l.384,0,.121-.364A.052.052,0,0,1,157.667,169.313Z" transform="translate(-148.146 -165.47)" fill="#f5f5f5"/>
      <path id="Path_11078" data-name="Path 11078" d="M157.667,199.967l.121.364.384,0a.052.052,0,0,1,.03.093l-.309.228.116.366a.052.052,0,0,1-.079.058l-.312-.223-.312.223a.052.052,0,0,1-.079-.058l.116-.366-.309-.228a.052.052,0,0,1,.03-.093l.384,0,.121-.364A.052.052,0,0,1,157.667,199.967Z" transform="translate(-148.146 -194.22)" fill="#f5f5f5"/>
      <path id="Path_11079" data-name="Path 11079" d="M157.667,230.621l.121.364.384,0a.052.052,0,0,1,.03.093l-.309.228.116.366a.052.052,0,0,1-.079.058l-.312-.223-.312.223a.052.052,0,0,1-.079-.058l.116-.366-.309-.228a.052.052,0,0,1,.03-.093l.384,0,.121-.364A.052.052,0,0,1,157.667,230.621Z" transform="translate(-148.146 -222.97)" fill="#f5f5f5"/>
      <path id="Path_11080" data-name="Path 11080" d="M181.46,123.034l.121.364.384,0a.052.052,0,0,1,.03.093l-.309.228.116.366a.052.052,0,0,1-.079.058l-.312-.223-.312.223a.052.052,0,0,1-.079-.058l.116-.366-.309-.228a.052.052,0,0,1,.03-.093l.384,0,.121-.364A.052.052,0,0,1,181.46,123.034Z" transform="translate(-170.462 -122.065)" fill="#f5f5f5"/>
      <path id="Path_11081" data-name="Path 11081" d="M181.46,153.688l.121.364.384,0a.052.052,0,0,1,.03.093l-.309.228.116.366a.052.052,0,0,1-.079.058l-.312-.223-.312.223a.052.052,0,0,1-.079-.058l.116-.366-.309-.228a.052.052,0,0,1,.03-.093l.384,0,.121-.364A.052.052,0,0,1,181.46,153.688Z" transform="translate(-170.462 -150.815)" fill="#f5f5f5"/>
      <path id="Path_11082" data-name="Path 11082" d="M181.46,184.342l.121.364.384,0a.052.052,0,0,1,.03.093l-.309.228.116.366a.052.052,0,0,1-.079.058l-.312-.223-.312.223a.052.052,0,0,1-.079-.058l.116-.366-.309-.228a.052.052,0,0,1,.03-.093l.384,0,.121-.364A.052.052,0,0,1,181.46,184.342Z" transform="translate(-170.462 -179.566)" fill="#f5f5f5"/>
      <path id="Path_11083" data-name="Path 11083" d="M181.46,215l.121.364.384,0a.052.052,0,0,1,.03.093l-.309.228.116.366a.052.052,0,0,1-.079.058l-.312-.223-.312.223a.052.052,0,0,1-.079-.058l.116-.366-.309-.228a.052.052,0,0,1,.03-.093l.384,0,.121-.364A.052.052,0,0,1,181.46,215Z" transform="translate(-170.462 -208.316)" fill="#f5f5f5"/>
      <path id="Path_11084" data-name="Path 11084" d="M205.254,108l.121.364.384,0a.052.052,0,0,1,.03.093l-.309.228.116.366a.052.052,0,0,1-.079.058l-.312-.223-.312.223a.052.052,0,0,1-.079-.058l.116-.366-.309-.228a.052.052,0,0,1,.03-.093l.384,0,.121-.364A.052.052,0,0,1,205.254,108Z" transform="translate(-192.778 -107.969)" fill="#f5f5f5"/>
      <path id="Path_11085" data-name="Path 11085" d="M205.254,138.659l.121.364.384,0a.052.052,0,0,1,.03.093l-.309.228.116.366a.052.052,0,0,1-.079.058l-.312-.223-.312.223a.052.052,0,0,1-.079-.058l.116-.366-.309-.228a.052.052,0,0,1,.03-.093l.384,0,.121-.364A.052.052,0,0,1,205.254,138.659Z" transform="translate(-192.778 -136.72)" fill="#f5f5f5"/>
      <path id="Path_11086" data-name="Path 11086" d="M205.254,169.313l.121.364.384,0a.052.052,0,0,1,.03.093l-.309.228.116.366a.052.052,0,0,1-.079.058l-.312-.223-.312.223a.052.052,0,0,1-.079-.058l.116-.366-.309-.228a.052.052,0,0,1,.03-.093l.384,0,.121-.364A.052.052,0,0,1,205.254,169.313Z" transform="translate(-192.778 -165.47)" fill="#f5f5f5"/>
      <path id="Path_11087" data-name="Path 11087" d="M205.254,199.967l.121.364.384,0a.052.052,0,0,1,.03.093l-.309.228.116.366a.052.052,0,0,1-.079.058l-.312-.223-.312.223a.052.052,0,0,1-.079-.058l.116-.366-.309-.228a.052.052,0,0,1,.03-.093l.384,0,.121-.364A.052.052,0,0,1,205.254,199.967Z" transform="translate(-192.778 -194.22)" fill="#f5f5f5"/>
      <path id="Path_11088" data-name="Path 11088" d="M205.254,230.621l.121.364.384,0a.052.052,0,0,1,.03.093l-.309.228.116.366a.052.052,0,0,1-.079.058l-.312-.223-.312.223a.052.052,0,0,1-.079-.058l.116-.366-.309-.228a.052.052,0,0,1,.03-.093l.384,0,.121-.364A.052.052,0,0,1,205.254,230.621Z" transform="translate(-192.778 -222.97)" fill="#f5f5f5"/>
    </g>
  </g>
</svg>
