<?xml version="1.0" encoding="UTF-8" standalone="no" ?>
<!DOCTYPE svg PUBLIC "-//W3C//DTD SVG 1.1//EN" "http://www.w3.org/Graphics/SVG/1.1/DTD/svg11.dtd">
<svg xmlns="http://www.w3.org/2000/svg" xmlns:xlink="http://www.w3.org/1999/xlink" version="1.1" width="1920" height="141" viewBox="0 0 1920 141" xml:space="preserve">
<desc>Created with Fabric.js 4.6.0</desc>
<defs>
</defs>
<g transform="matrix(1 0 0 1 959.44 71.33)" id="uzLtOhpsIZ3Awdbh63iVQ"  >
<path style="stroke: none; stroke-width: 1; stroke-dasharray: none; stroke-linecap: butt; stroke-dashoffset: 0; stroke-linejoin: miter; stroke-miterlimit: 4; fill: rgb(18,6,56); fill-rule: nonzero; opacity: 1;" vector-effect="non-scaling-stroke"  transform=" translate(0, 0)" d="M 959.947 70.11038 L -959.9999999999999 70.11038 L -959.9999999999999 -31.10239 C -959.8689999999999 -31.08139 -946.2289999999999 -28.83139 -917.8239999999998 -25.45039 C -892.6869999999999 -22.45639 -850.4309999999998 -17.94239 -791.8689999999998 -13.43639 C -726.3399999999998 -8.39739 -654.0449999999998 -4.383389999999999 -576.9879999999998 -1.5083899999999986 C -480.8469999999998 2.0776100000000013 -376.8979999999998 3.891610000000002 -268.03099999999984 3.891610000000002 C -224.93899999999985 3.891610000000002 -180.91999999999985 2.4446100000000017 -129.50399999999985 -0.6613899999999981 C -83.79699999999985 -3.423389999999998 -38.144999999999854 -7.1383899999999985 10.189000000000163 -11.07339 L 10.447000000000163 -11.09339 C 69.33800000000016 -15.88839 130.23400000000018 -20.847389999999997 198.18700000000018 -24.667389999999997 C 234.9330000000002 -26.731389999999998 269.9680000000002 -28.253389999999996 305.2940000000002 -29.31939 C 344.6570000000002 -30.50639 384.7840000000002 -31.10839 424.56200000000024 -31.10839 C 494.59100000000024 -31.10839 566.3140000000003 -29.26839 637.7360000000002 -25.63939 C 694.8530000000002 -22.73939 751.9360000000003 -18.69239 807.3920000000003 -13.608389999999998 C 856.7300000000002 -9.08739 895.5810000000002 -4.5693899999999985 919.4840000000003 -1.5753899999999987 C 944.2240000000003 1.5246100000000014 958.4120000000003 3.6546100000000017 959.9470000000002 3.889610000000001 L 959.9680000000002 3.889610000000001 L 959.9680000000002 -70.11039 L 959.9990000000001 -70.11039 L 960.0000000000001 70.11037999999999 L 960.0000000000001 70.11037999999999 L 960.0000000000001 70.11037999999999 z" stroke-linecap="round" />
</g>
</svg>