<svg xmlns="http://www.w3.org/2000/svg" width="1920" height="100" viewBox="0 0 1920 100">
  <path id="Subtraction_27" data-name="Subtraction 27" d="M1920,100H0L0,31.268c2.221.29,55.66,7.228,168.4,14.176,65.469,4.033,137.744,7.244,214.818,9.55,96.061,2.869,199.938,4.324,308.748,4.324,43.1,0,87.121-1.158,138.527-3.646,45.949-2.228,91.609-5.209,139.951-8.364l.271-.02c58.832-3.837,119.668-7.807,187.469-10.859,77.186-3.478,151.234-5.165,226.375-5.165,70.012,0,141.734,1.474,213.174,4.384,57.135,2.324,114.217,5.57,169.656,9.646,49.352,3.625,88.2,7.244,112.092,9.644,22.748,2.282,36.627,3.917,40.338,4.363l.146.018,0-59.317H1920V100Z" fill="#f5f5f5"/>
</svg>
